<?xml version="1.0" encoding="utf-8" standalone="no"?>
<!DOCTYPE svg PUBLIC "-//W3C//DTD SVG 1.1//EN"
  "http://www.w3.org/Graphics/SVG/1.1/DTD/svg11.dtd">
<svg xmlns:xlink="http://www.w3.org/1999/xlink" width="864pt" height="504pt" viewBox="0 0 864 504" xmlns="http://www.w3.org/2000/svg" version="1.1">
 <metadata>
  <rdf:RDF xmlns:dc="http://purl.org/dc/elements/1.1/" xmlns:cc="http://creativecommons.org/ns#" xmlns:rdf="http://www.w3.org/1999/02/22-rdf-syntax-ns#">
   <cc:Work>
    <dc:type rdf:resource="http://purl.org/dc/dcmitype/StillImage"/>
    <dc:date>2026-01-25T15:09:33.764610</dc:date>
    <dc:format>image/svg+xml</dc:format>
    <dc:creator>
     <cc:Agent>
      <dc:title>Matplotlib v3.10.8, https://matplotlib.org/</dc:title>
     </cc:Agent>
    </dc:creator>
   </cc:Work>
  </rdf:RDF>
 </metadata>
 <defs>
  <style type="text/css">*{stroke-linejoin: round; stroke-linecap: butt}</style>
 </defs>
 <g id="figure_1">
  <g id="patch_1">
   <path d="M 0 504 
L 864 504 
L 864 0 
L 0 0 
z
" style="fill: #ffffff"/>
  </g>
  <g id="axes_1">
   <g id="patch_2">
    <path d="M 56.356738 456.60375 
L 691.82 456.60375 
L 691.82 29.04 
L 56.356738 29.04 
z
" style="fill: #ffffff"/>
   </g>
   <g id="matplotlib.axis_1">
    <g id="xtick_1">
     <g id="line2d_1">
      <path d="M 85.241432 456.60375 
L 85.241432 29.04 
" clip-path="url(#pa46a57c9a7)" style="fill: none; stroke: #cccccc; stroke-linecap: round"/>
     </g>
     <g id="text_1">
      <!-- 5 -->
      <g style="fill: #262626" transform="translate(82.182916 473.977344) scale(0.11 -0.11)">
       <defs>
        <path id="ArialMT-35" d="M 266 1200 
L 856 1250 
Q 922 819 1161 601 
Q 1400 384 1738 384 
Q 2144 384 2425 690 
Q 2706 997 2706 1503 
Q 2706 1984 2436 2262 
Q 2166 2541 1728 2541 
Q 1456 2541 1237 2417 
Q 1019 2294 894 2097 
L 366 2166 
L 809 4519 
L 3088 4519 
L 3088 3981 
L 1259 3981 
L 1013 2750 
Q 1425 3038 1878 3038 
Q 2478 3038 2890 2622 
Q 3303 2206 3303 1553 
Q 3303 931 2941 478 
Q 2500 -78 1738 -78 
Q 1113 -78 717 272 
Q 322 622 266 1200 
z
" transform="scale(0.015625)"/>
       </defs>
       <use xlink:href="#ArialMT-35"/>
      </g>
     </g>
    </g>
    <g id="xtick_2">
     <g id="line2d_2">
      <path d="M 200.780207 456.60375 
L 200.780207 29.04 
" clip-path="url(#pa46a57c9a7)" style="fill: none; stroke: #cccccc; stroke-linecap: round"/>
     </g>
     <g id="text_2">
      <!-- 10 -->
      <g style="fill: #262626" transform="translate(194.663175 473.977344) scale(0.11 -0.11)">
       <defs>
        <path id="ArialMT-31" d="M 2384 0 
L 1822 0 
L 1822 3584 
Q 1619 3391 1289 3197 
Q 959 3003 697 2906 
L 697 3450 
Q 1169 3672 1522 3987 
Q 1875 4303 2022 4600 
L 2384 4600 
L 2384 0 
z
" transform="scale(0.015625)"/>
        <path id="ArialMT-30" d="M 266 2259 
Q 266 3072 433 3567 
Q 600 4063 929 4331 
Q 1259 4600 1759 4600 
Q 2128 4600 2406 4451 
Q 2684 4303 2865 4023 
Q 3047 3744 3150 3342 
Q 3253 2941 3253 2259 
Q 3253 1453 3087 958 
Q 2922 463 2592 192 
Q 2263 -78 1759 -78 
Q 1097 -78 719 397 
Q 266 969 266 2259 
z
M 844 2259 
Q 844 1131 1108 757 
Q 1372 384 1759 384 
Q 2147 384 2411 759 
Q 2675 1134 2675 2259 
Q 2675 3391 2411 3762 
Q 2147 4134 1753 4134 
Q 1366 4134 1134 3806 
Q 844 3388 844 2259 
z
" transform="scale(0.015625)"/>
       </defs>
       <use xlink:href="#ArialMT-31"/>
       <use xlink:href="#ArialMT-30" transform="translate(55.615234 0)"/>
      </g>
     </g>
    </g>
    <g id="xtick_3">
     <g id="line2d_3">
      <path d="M 316.318981 456.60375 
L 316.318981 29.04 
" clip-path="url(#pa46a57c9a7)" style="fill: none; stroke: #cccccc; stroke-linecap: round"/>
     </g>
     <g id="text_3">
      <!-- 15 -->
      <g style="fill: #262626" transform="translate(310.20195 473.977344) scale(0.11 -0.11)">
       <use xlink:href="#ArialMT-31"/>
       <use xlink:href="#ArialMT-35" transform="translate(55.615234 0)"/>
      </g>
     </g>
    </g>
    <g id="xtick_4">
     <g id="line2d_4">
      <path d="M 431.857756 456.60375 
L 431.857756 29.04 
" clip-path="url(#pa46a57c9a7)" style="fill: none; stroke: #cccccc; stroke-linecap: round"/>
     </g>
     <g id="text_4">
      <!-- 20 -->
      <g style="fill: #262626" transform="translate(425.740725 473.977344) scale(0.11 -0.11)">
       <defs>
        <path id="ArialMT-32" d="M 3222 541 
L 3222 0 
L 194 0 
Q 188 203 259 391 
Q 375 700 629 1000 
Q 884 1300 1366 1694 
Q 2113 2306 2375 2664 
Q 2638 3022 2638 3341 
Q 2638 3675 2398 3904 
Q 2159 4134 1775 4134 
Q 1369 4134 1125 3890 
Q 881 3647 878 3216 
L 300 3275 
Q 359 3922 746 4261 
Q 1134 4600 1788 4600 
Q 2447 4600 2831 4234 
Q 3216 3869 3216 3328 
Q 3216 3053 3103 2787 
Q 2991 2522 2730 2228 
Q 2469 1934 1863 1422 
Q 1356 997 1212 845 
Q 1069 694 975 541 
L 3222 541 
z
" transform="scale(0.015625)"/>
       </defs>
       <use xlink:href="#ArialMT-32"/>
       <use xlink:href="#ArialMT-30" transform="translate(55.615234 0)"/>
      </g>
     </g>
    </g>
    <g id="xtick_5">
     <g id="line2d_5">
      <path d="M 547.396531 456.60375 
L 547.396531 29.04 
" clip-path="url(#pa46a57c9a7)" style="fill: none; stroke: #cccccc; stroke-linecap: round"/>
     </g>
     <g id="text_5">
      <!-- 25 -->
      <g style="fill: #262626" transform="translate(541.2795 473.977344) scale(0.11 -0.11)">
       <use xlink:href="#ArialMT-32"/>
       <use xlink:href="#ArialMT-35" transform="translate(55.615234 0)"/>
      </g>
     </g>
    </g>
    <g id="xtick_6">
     <g id="line2d_6">
      <path d="M 662.935306 456.60375 
L 662.935306 29.04 
" clip-path="url(#pa46a57c9a7)" style="fill: none; stroke: #cccccc; stroke-linecap: round"/>
     </g>
     <g id="text_6">
      <!-- 30 -->
      <g style="fill: #262626" transform="translate(656.818275 473.977344) scale(0.11 -0.11)">
       <defs>
        <path id="ArialMT-33" d="M 269 1209 
L 831 1284 
Q 928 806 1161 595 
Q 1394 384 1728 384 
Q 2125 384 2398 659 
Q 2672 934 2672 1341 
Q 2672 1728 2419 1979 
Q 2166 2231 1775 2231 
Q 1616 2231 1378 2169 
L 1441 2663 
Q 1497 2656 1531 2656 
Q 1891 2656 2178 2843 
Q 2466 3031 2466 3422 
Q 2466 3731 2256 3934 
Q 2047 4138 1716 4138 
Q 1388 4138 1169 3931 
Q 950 3725 888 3313 
L 325 3413 
Q 428 3978 793 4289 
Q 1159 4600 1703 4600 
Q 2078 4600 2393 4439 
Q 2709 4278 2876 4000 
Q 3044 3722 3044 3409 
Q 3044 3113 2884 2869 
Q 2725 2625 2413 2481 
Q 2819 2388 3044 2092 
Q 3269 1797 3269 1353 
Q 3269 753 2831 336 
Q 2394 -81 1725 -81 
Q 1122 -81 723 278 
Q 325 638 269 1209 
z
" transform="scale(0.015625)"/>
       </defs>
       <use xlink:href="#ArialMT-33"/>
       <use xlink:href="#ArialMT-30" transform="translate(55.615234 0)"/>
      </g>
     </g>
    </g>
    <g id="text_7">
     <!-- Vector Size (N) -->
     <g style="fill: #262626" transform="translate(333.743994 488.899219) scale(0.12 -0.12)">
      <defs>
       <path id="ArialMT-56" d="M 1803 0 
L 28 4581 
L 684 4581 
L 1875 1253 
Q 2019 853 2116 503 
Q 2222 878 2363 1253 
L 3600 4581 
L 4219 4581 
L 2425 0 
L 1803 0 
z
" transform="scale(0.015625)"/>
       <path id="ArialMT-65" d="M 2694 1069 
L 3275 997 
Q 3138 488 2766 206 
Q 2394 -75 1816 -75 
Q 1088 -75 661 373 
Q 234 822 234 1631 
Q 234 2469 665 2931 
Q 1097 3394 1784 3394 
Q 2450 3394 2872 2941 
Q 3294 2488 3294 1666 
Q 3294 1616 3291 1516 
L 816 1516 
Q 847 969 1125 678 
Q 1403 388 1819 388 
Q 2128 388 2347 550 
Q 2566 713 2694 1069 
z
M 847 1978 
L 2700 1978 
Q 2663 2397 2488 2606 
Q 2219 2931 1791 2931 
Q 1403 2931 1139 2672 
Q 875 2413 847 1978 
z
" transform="scale(0.015625)"/>
       <path id="ArialMT-63" d="M 2588 1216 
L 3141 1144 
Q 3050 572 2676 248 
Q 2303 -75 1759 -75 
Q 1078 -75 664 370 
Q 250 816 250 1647 
Q 250 2184 428 2587 
Q 606 2991 970 3192 
Q 1334 3394 1763 3394 
Q 2303 3394 2647 3120 
Q 2991 2847 3088 2344 
L 2541 2259 
Q 2463 2594 2264 2762 
Q 2066 2931 1784 2931 
Q 1359 2931 1093 2626 
Q 828 2322 828 1663 
Q 828 994 1084 691 
Q 1341 388 1753 388 
Q 2084 388 2306 591 
Q 2528 794 2588 1216 
z
" transform="scale(0.015625)"/>
       <path id="ArialMT-74" d="M 1650 503 
L 1731 6 
Q 1494 -44 1306 -44 
Q 1000 -44 831 53 
Q 663 150 594 308 
Q 525 466 525 972 
L 525 2881 
L 113 2881 
L 113 3319 
L 525 3319 
L 525 4141 
L 1084 4478 
L 1084 3319 
L 1650 3319 
L 1650 2881 
L 1084 2881 
L 1084 941 
Q 1084 700 1114 631 
Q 1144 563 1211 522 
Q 1278 481 1403 481 
Q 1497 481 1650 503 
z
" transform="scale(0.015625)"/>
       <path id="ArialMT-6f" d="M 213 1659 
Q 213 2581 725 3025 
Q 1153 3394 1769 3394 
Q 2453 3394 2887 2945 
Q 3322 2497 3322 1706 
Q 3322 1066 3130 698 
Q 2938 331 2570 128 
Q 2203 -75 1769 -75 
Q 1072 -75 642 372 
Q 213 819 213 1659 
z
M 791 1659 
Q 791 1022 1069 705 
Q 1347 388 1769 388 
Q 2188 388 2466 706 
Q 2744 1025 2744 1678 
Q 2744 2294 2464 2611 
Q 2184 2928 1769 2928 
Q 1347 2928 1069 2612 
Q 791 2297 791 1659 
z
" transform="scale(0.015625)"/>
       <path id="ArialMT-72" d="M 416 0 
L 416 3319 
L 922 3319 
L 922 2816 
Q 1116 3169 1280 3281 
Q 1444 3394 1641 3394 
Q 1925 3394 2219 3213 
L 2025 2691 
Q 1819 2813 1613 2813 
Q 1428 2813 1281 2702 
Q 1134 2591 1072 2394 
Q 978 2094 978 1738 
L 978 0 
L 416 0 
z
" transform="scale(0.015625)"/>
       <path id="ArialMT-20" transform="scale(0.015625)"/>
       <path id="ArialMT-53" d="M 288 1472 
L 859 1522 
Q 900 1178 1048 958 
Q 1197 738 1509 602 
Q 1822 466 2213 466 
Q 2559 466 2825 569 
Q 3091 672 3220 851 
Q 3350 1031 3350 1244 
Q 3350 1459 3225 1620 
Q 3100 1781 2813 1891 
Q 2628 1963 1997 2114 
Q 1366 2266 1113 2400 
Q 784 2572 623 2826 
Q 463 3081 463 3397 
Q 463 3744 659 4045 
Q 856 4347 1234 4503 
Q 1613 4659 2075 4659 
Q 2584 4659 2973 4495 
Q 3363 4331 3572 4012 
Q 3781 3694 3797 3291 
L 3216 3247 
Q 3169 3681 2898 3903 
Q 2628 4125 2100 4125 
Q 1550 4125 1298 3923 
Q 1047 3722 1047 3438 
Q 1047 3191 1225 3031 
Q 1400 2872 2139 2705 
Q 2878 2538 3153 2413 
Q 3553 2228 3743 1945 
Q 3934 1663 3934 1294 
Q 3934 928 3725 604 
Q 3516 281 3123 101 
Q 2731 -78 2241 -78 
Q 1619 -78 1198 103 
Q 778 284 539 648 
Q 300 1013 288 1472 
z
" transform="scale(0.015625)"/>
       <path id="ArialMT-69" d="M 425 3934 
L 425 4581 
L 988 4581 
L 988 3934 
L 425 3934 
z
M 425 0 
L 425 3319 
L 988 3319 
L 988 0 
L 425 0 
z
" transform="scale(0.015625)"/>
       <path id="ArialMT-7a" d="M 125 0 
L 125 456 
L 2238 2881 
Q 1878 2863 1603 2863 
L 250 2863 
L 250 3319 
L 2963 3319 
L 2963 2947 
L 1166 841 
L 819 456 
Q 1197 484 1528 484 
L 3063 484 
L 3063 0 
L 125 0 
z
" transform="scale(0.015625)"/>
       <path id="ArialMT-28" d="M 1497 -1347 
Q 1031 -759 709 28 
Q 388 816 388 1659 
Q 388 2403 628 3084 
Q 909 3875 1497 4659 
L 1900 4659 
Q 1522 4009 1400 3731 
Q 1209 3300 1100 2831 
Q 966 2247 966 1656 
Q 966 153 1900 -1347 
L 1497 -1347 
z
" transform="scale(0.015625)"/>
       <path id="ArialMT-4e" d="M 488 0 
L 488 4581 
L 1109 4581 
L 3516 984 
L 3516 4581 
L 4097 4581 
L 4097 0 
L 3475 0 
L 1069 3600 
L 1069 0 
L 488 0 
z
" transform="scale(0.015625)"/>
       <path id="ArialMT-29" d="M 791 -1347 
L 388 -1347 
Q 1322 153 1322 1656 
Q 1322 2244 1188 2822 
Q 1081 3291 891 3722 
Q 769 4003 388 4659 
L 791 4659 
Q 1378 3875 1659 3084 
Q 1900 2403 1900 1659 
Q 1900 816 1576 28 
Q 1253 -759 791 -1347 
z
" transform="scale(0.015625)"/>
      </defs>
      <use xlink:href="#ArialMT-56"/>
      <use xlink:href="#ArialMT-65" transform="translate(61.199219 0)"/>
      <use xlink:href="#ArialMT-63" transform="translate(116.814453 0)"/>
      <use xlink:href="#ArialMT-74" transform="translate(166.814453 0)"/>
      <use xlink:href="#ArialMT-6f" transform="translate(194.597656 0)"/>
      <use xlink:href="#ArialMT-72" transform="translate(250.212891 0)"/>
      <use xlink:href="#ArialMT-20" transform="translate(283.513672 0)"/>
      <use xlink:href="#ArialMT-53" transform="translate(311.296875 0)"/>
      <use xlink:href="#ArialMT-69" transform="translate(377.996094 0)"/>
      <use xlink:href="#ArialMT-7a" transform="translate(400.212891 0)"/>
      <use xlink:href="#ArialMT-65" transform="translate(450.212891 0)"/>
      <use xlink:href="#ArialMT-20" transform="translate(505.828125 0)"/>
      <use xlink:href="#ArialMT-28" transform="translate(533.611328 0)"/>
      <use xlink:href="#ArialMT-4e" transform="translate(566.912109 0)"/>
      <use xlink:href="#ArialMT-29" transform="translate(639.128906 0)"/>
     </g>
    </g>
   </g>
   <g id="matplotlib.axis_2">
    <g id="ytick_1">
     <g id="line2d_7">
      <path d="M 56.356738 397.283639 
L 691.82 397.283639 
" clip-path="url(#pa46a57c9a7)" style="fill: none; stroke: #cccccc; stroke-linecap: round"/>
     </g>
     <g id="text_8">
      <!-- $2^{-1}$ -->
      <g style="fill: #262626" transform="translate(28.046738 401.220436) scale(0.11 -0.11)">
       <defs>
        <path id="DejaVuSans-32" d="M 1228 531 
L 3431 531 
L 3431 0 
L 469 0 
L 469 531 
Q 828 903 1448 1529 
Q 2069 2156 2228 2338 
Q 2531 2678 2651 2914 
Q 2772 3150 2772 3378 
Q 2772 3750 2511 3984 
Q 2250 4219 1831 4219 
Q 1534 4219 1204 4116 
Q 875 4013 500 3803 
L 500 4441 
Q 881 4594 1212 4672 
Q 1544 4750 1819 4750 
Q 2544 4750 2975 4387 
Q 3406 4025 3406 3419 
Q 3406 3131 3298 2873 
Q 3191 2616 2906 2266 
Q 2828 2175 2409 1742 
Q 1991 1309 1228 531 
z
" transform="scale(0.015625)"/>
        <path id="DejaVuSans-2212" d="M 678 2272 
L 4684 2272 
L 4684 1741 
L 678 1741 
L 678 2272 
z
" transform="scale(0.015625)"/>
        <path id="DejaVuSans-31" d="M 794 531 
L 1825 531 
L 1825 4091 
L 703 3866 
L 703 4441 
L 1819 4666 
L 2450 4666 
L 2450 531 
L 3481 531 
L 3481 0 
L 794 0 
L 794 531 
z
" transform="scale(0.015625)"/>
       </defs>
       <use xlink:href="#DejaVuSans-32" transform="translate(0 0.684375)"/>
       <use xlink:href="#DejaVuSans-2212" transform="translate(64.580078 38.965625) scale(0.7)"/>
       <use xlink:href="#DejaVuSans-31" transform="translate(123.232422 38.965625) scale(0.7)"/>
      </g>
     </g>
    </g>
    <g id="ytick_2">
     <g id="line2d_8">
      <path d="M 56.356738 321.6924 
L 691.82 321.6924 
" clip-path="url(#pa46a57c9a7)" style="fill: none; stroke: #cccccc; stroke-linecap: round"/>
     </g>
     <g id="text_9">
      <!-- $2^{1}$ -->
      <g style="fill: #262626" transform="translate(34.536738 325.629196) scale(0.11 -0.11)">
       <use xlink:href="#DejaVuSans-32" transform="translate(0 0.684375)"/>
       <use xlink:href="#DejaVuSans-31" transform="translate(64.580078 38.965625) scale(0.7)"/>
      </g>
     </g>
    </g>
    <g id="ytick_3">
     <g id="line2d_9">
      <path d="M 56.356738 246.10116 
L 691.82 246.10116 
" clip-path="url(#pa46a57c9a7)" style="fill: none; stroke: #cccccc; stroke-linecap: round"/>
     </g>
     <g id="text_10">
      <!-- $2^{3}$ -->
      <g style="fill: #262626" transform="translate(34.536738 250.037957) scale(0.11 -0.11)">
       <defs>
        <path id="DejaVuSans-33" d="M 2597 2516 
Q 3050 2419 3304 2112 
Q 3559 1806 3559 1356 
Q 3559 666 3084 287 
Q 2609 -91 1734 -91 
Q 1441 -91 1130 -33 
Q 819 25 488 141 
L 488 750 
Q 750 597 1062 519 
Q 1375 441 1716 441 
Q 2309 441 2620 675 
Q 2931 909 2931 1356 
Q 2931 1769 2642 2001 
Q 2353 2234 1838 2234 
L 1294 2234 
L 1294 2753 
L 1863 2753 
Q 2328 2753 2575 2939 
Q 2822 3125 2822 3475 
Q 2822 3834 2567 4026 
Q 2313 4219 1838 4219 
Q 1578 4219 1281 4162 
Q 984 4106 628 3988 
L 628 4550 
Q 988 4650 1302 4700 
Q 1616 4750 1894 4750 
Q 2613 4750 3031 4423 
Q 3450 4097 3450 3541 
Q 3450 3153 3228 2886 
Q 3006 2619 2597 2516 
z
" transform="scale(0.015625)"/>
       </defs>
       <use xlink:href="#DejaVuSans-32" transform="translate(0 0.765625)"/>
       <use xlink:href="#DejaVuSans-33" transform="translate(64.580078 39.046875) scale(0.7)"/>
      </g>
     </g>
    </g>
    <g id="ytick_4">
     <g id="line2d_10">
      <path d="M 56.356738 170.50992 
L 691.82 170.50992 
" clip-path="url(#pa46a57c9a7)" style="fill: none; stroke: #cccccc; stroke-linecap: round"/>
     </g>
     <g id="text_11">
      <!-- $2^{5}$ -->
      <g style="fill: #262626" transform="translate(34.536738 174.446717) scale(0.11 -0.11)">
       <defs>
        <path id="DejaVuSans-35" d="M 691 4666 
L 3169 4666 
L 3169 4134 
L 1269 4134 
L 1269 2991 
Q 1406 3038 1543 3061 
Q 1681 3084 1819 3084 
Q 2600 3084 3056 2656 
Q 3513 2228 3513 1497 
Q 3513 744 3044 326 
Q 2575 -91 1722 -91 
Q 1428 -91 1123 -41 
Q 819 9 494 109 
L 494 744 
Q 775 591 1075 516 
Q 1375 441 1709 441 
Q 2250 441 2565 725 
Q 2881 1009 2881 1497 
Q 2881 1984 2565 2268 
Q 2250 2553 1709 2553 
Q 1456 2553 1204 2497 
Q 953 2441 691 2322 
L 691 4666 
z
" transform="scale(0.015625)"/>
       </defs>
       <use xlink:href="#DejaVuSans-32" transform="translate(0 0.684375)"/>
       <use xlink:href="#DejaVuSans-35" transform="translate(64.580078 38.965625) scale(0.7)"/>
      </g>
     </g>
    </g>
    <g id="ytick_5">
     <g id="line2d_11">
      <path d="M 56.356738 94.91868 
L 691.82 94.91868 
" clip-path="url(#pa46a57c9a7)" style="fill: none; stroke: #cccccc; stroke-linecap: round"/>
     </g>
     <g id="text_12">
      <!-- $2^{7}$ -->
      <g style="fill: #262626" transform="translate(34.536738 98.855477) scale(0.11 -0.11)">
       <defs>
        <path id="DejaVuSans-37" d="M 525 4666 
L 3525 4666 
L 3525 4397 
L 1831 0 
L 1172 0 
L 2766 4134 
L 525 4134 
L 525 4666 
z
" transform="scale(0.015625)"/>
       </defs>
       <use xlink:href="#DejaVuSans-32" transform="translate(0 0.684375)"/>
       <use xlink:href="#DejaVuSans-37" transform="translate(64.580078 38.965625) scale(0.7)"/>
      </g>
     </g>
    </g>
    <g id="text_13">
     <!-- Average Time (seconds) -->
     <g style="fill: #262626" transform="translate(21.521113 307.740937) rotate(-90) scale(0.12 -0.12)">
      <defs>
       <path id="ArialMT-41" d="M -9 0 
L 1750 4581 
L 2403 4581 
L 4278 0 
L 3588 0 
L 3053 1388 
L 1138 1388 
L 634 0 
L -9 0 
z
M 1313 1881 
L 2866 1881 
L 2388 3150 
Q 2169 3728 2063 4100 
Q 1975 3659 1816 3225 
L 1313 1881 
z
" transform="scale(0.015625)"/>
       <path id="ArialMT-76" d="M 1344 0 
L 81 3319 
L 675 3319 
L 1388 1331 
Q 1503 1009 1600 663 
Q 1675 925 1809 1294 
L 2547 3319 
L 3125 3319 
L 1869 0 
L 1344 0 
z
" transform="scale(0.015625)"/>
       <path id="ArialMT-61" d="M 2588 409 
Q 2275 144 1986 34 
Q 1697 -75 1366 -75 
Q 819 -75 525 192 
Q 231 459 231 875 
Q 231 1119 342 1320 
Q 453 1522 633 1644 
Q 813 1766 1038 1828 
Q 1203 1872 1538 1913 
Q 2219 1994 2541 2106 
Q 2544 2222 2544 2253 
Q 2544 2597 2384 2738 
Q 2169 2928 1744 2928 
Q 1347 2928 1158 2789 
Q 969 2650 878 2297 
L 328 2372 
Q 403 2725 575 2942 
Q 747 3159 1072 3276 
Q 1397 3394 1825 3394 
Q 2250 3394 2515 3294 
Q 2781 3194 2906 3042 
Q 3031 2891 3081 2659 
Q 3109 2516 3109 2141 
L 3109 1391 
Q 3109 606 3145 398 
Q 3181 191 3288 0 
L 2700 0 
Q 2613 175 2588 409 
z
M 2541 1666 
Q 2234 1541 1622 1453 
Q 1275 1403 1131 1340 
Q 988 1278 909 1158 
Q 831 1038 831 891 
Q 831 666 1001 516 
Q 1172 366 1500 366 
Q 1825 366 2078 508 
Q 2331 650 2450 897 
Q 2541 1088 2541 1459 
L 2541 1666 
z
" transform="scale(0.015625)"/>
       <path id="ArialMT-67" d="M 319 -275 
L 866 -356 
Q 900 -609 1056 -725 
Q 1266 -881 1628 -881 
Q 2019 -881 2231 -725 
Q 2444 -569 2519 -288 
Q 2563 -116 2559 434 
Q 2191 0 1641 0 
Q 956 0 581 494 
Q 206 988 206 1678 
Q 206 2153 378 2554 
Q 550 2956 876 3175 
Q 1203 3394 1644 3394 
Q 2231 3394 2613 2919 
L 2613 3319 
L 3131 3319 
L 3131 450 
Q 3131 -325 2973 -648 
Q 2816 -972 2473 -1159 
Q 2131 -1347 1631 -1347 
Q 1038 -1347 672 -1080 
Q 306 -813 319 -275 
z
M 784 1719 
Q 784 1066 1043 766 
Q 1303 466 1694 466 
Q 2081 466 2343 764 
Q 2606 1063 2606 1700 
Q 2606 2309 2336 2618 
Q 2066 2928 1684 2928 
Q 1309 2928 1046 2623 
Q 784 2319 784 1719 
z
" transform="scale(0.015625)"/>
       <path id="ArialMT-54" d="M 1659 0 
L 1659 4041 
L 150 4041 
L 150 4581 
L 3781 4581 
L 3781 4041 
L 2266 4041 
L 2266 0 
L 1659 0 
z
" transform="scale(0.015625)"/>
       <path id="ArialMT-6d" d="M 422 0 
L 422 3319 
L 925 3319 
L 925 2853 
Q 1081 3097 1340 3245 
Q 1600 3394 1931 3394 
Q 2300 3394 2536 3241 
Q 2772 3088 2869 2813 
Q 3263 3394 3894 3394 
Q 4388 3394 4653 3120 
Q 4919 2847 4919 2278 
L 4919 0 
L 4359 0 
L 4359 2091 
Q 4359 2428 4304 2576 
Q 4250 2725 4106 2815 
Q 3963 2906 3769 2906 
Q 3419 2906 3187 2673 
Q 2956 2441 2956 1928 
L 2956 0 
L 2394 0 
L 2394 2156 
Q 2394 2531 2256 2718 
Q 2119 2906 1806 2906 
Q 1569 2906 1367 2781 
Q 1166 2656 1075 2415 
Q 984 2175 984 1722 
L 984 0 
L 422 0 
z
" transform="scale(0.015625)"/>
       <path id="ArialMT-73" d="M 197 991 
L 753 1078 
Q 800 744 1014 566 
Q 1228 388 1613 388 
Q 2000 388 2187 545 
Q 2375 703 2375 916 
Q 2375 1106 2209 1216 
Q 2094 1291 1634 1406 
Q 1016 1563 777 1677 
Q 538 1791 414 1992 
Q 291 2194 291 2438 
Q 291 2659 392 2848 
Q 494 3038 669 3163 
Q 800 3259 1026 3326 
Q 1253 3394 1513 3394 
Q 1903 3394 2198 3281 
Q 2494 3169 2634 2976 
Q 2775 2784 2828 2463 
L 2278 2388 
Q 2241 2644 2061 2787 
Q 1881 2931 1553 2931 
Q 1166 2931 1000 2803 
Q 834 2675 834 2503 
Q 834 2394 903 2306 
Q 972 2216 1119 2156 
Q 1203 2125 1616 2013 
Q 2213 1853 2448 1751 
Q 2684 1650 2818 1456 
Q 2953 1263 2953 975 
Q 2953 694 2789 445 
Q 2625 197 2315 61 
Q 2006 -75 1616 -75 
Q 969 -75 630 194 
Q 291 463 197 991 
z
" transform="scale(0.015625)"/>
       <path id="ArialMT-6e" d="M 422 0 
L 422 3319 
L 928 3319 
L 928 2847 
Q 1294 3394 1984 3394 
Q 2284 3394 2536 3286 
Q 2788 3178 2913 3003 
Q 3038 2828 3088 2588 
Q 3119 2431 3119 2041 
L 3119 0 
L 2556 0 
L 2556 2019 
Q 2556 2363 2490 2533 
Q 2425 2703 2258 2804 
Q 2091 2906 1866 2906 
Q 1506 2906 1245 2678 
Q 984 2450 984 1813 
L 984 0 
L 422 0 
z
" transform="scale(0.015625)"/>
       <path id="ArialMT-64" d="M 2575 0 
L 2575 419 
Q 2259 -75 1647 -75 
Q 1250 -75 917 144 
Q 584 363 401 755 
Q 219 1147 219 1656 
Q 219 2153 384 2558 
Q 550 2963 881 3178 
Q 1213 3394 1622 3394 
Q 1922 3394 2156 3267 
Q 2391 3141 2538 2938 
L 2538 4581 
L 3097 4581 
L 3097 0 
L 2575 0 
z
M 797 1656 
Q 797 1019 1065 703 
Q 1334 388 1700 388 
Q 2069 388 2326 689 
Q 2584 991 2584 1609 
Q 2584 2291 2321 2609 
Q 2059 2928 1675 2928 
Q 1300 2928 1048 2622 
Q 797 2316 797 1656 
z
" transform="scale(0.015625)"/>
      </defs>
      <use xlink:href="#ArialMT-41"/>
      <use xlink:href="#ArialMT-76" transform="translate(64.949219 0)"/>
      <use xlink:href="#ArialMT-65" transform="translate(114.949219 0)"/>
      <use xlink:href="#ArialMT-72" transform="translate(170.564453 0)"/>
      <use xlink:href="#ArialMT-61" transform="translate(203.865234 0)"/>
      <use xlink:href="#ArialMT-67" transform="translate(259.480469 0)"/>
      <use xlink:href="#ArialMT-65" transform="translate(315.095703 0)"/>
      <use xlink:href="#ArialMT-20" transform="translate(370.710938 0)"/>
      <use xlink:href="#ArialMT-54" transform="translate(396.744141 0)"/>
      <use xlink:href="#ArialMT-69" transform="translate(454.078125 0)"/>
      <use xlink:href="#ArialMT-6d" transform="translate(476.294922 0)"/>
      <use xlink:href="#ArialMT-65" transform="translate(559.595703 0)"/>
      <use xlink:href="#ArialMT-20" transform="translate(615.210938 0)"/>
      <use xlink:href="#ArialMT-28" transform="translate(642.994141 0)"/>
      <use xlink:href="#ArialMT-73" transform="translate(676.294922 0)"/>
      <use xlink:href="#ArialMT-65" transform="translate(726.294922 0)"/>
      <use xlink:href="#ArialMT-63" transform="translate(781.910156 0)"/>
      <use xlink:href="#ArialMT-6f" transform="translate(831.910156 0)"/>
      <use xlink:href="#ArialMT-6e" transform="translate(887.525391 0)"/>
      <use xlink:href="#ArialMT-64" transform="translate(943.140625 0)"/>
      <use xlink:href="#ArialMT-73" transform="translate(998.755859 0)"/>
      <use xlink:href="#ArialMT-29" transform="translate(1048.755859 0)"/>
     </g>
    </g>
   </g>
   <g id="FillBetweenPolyCollection_1"/>
   <g id="FillBetweenPolyCollection_2"/>
   <g id="FillBetweenPolyCollection_3"/>
   <g id="FillBetweenPolyCollection_4"/>
   <g id="FillBetweenPolyCollection_5"/>
   <g id="FillBetweenPolyCollection_6"/>
   <g id="FillBetweenPolyCollection_7"/>
   <g id="FillBetweenPolyCollection_8"/>
   <g id="FillBetweenPolyCollection_9"/>
   <g id="FillBetweenPolyCollection_10"/>
   <g id="FillBetweenPolyCollection_11"/>
   <g id="FillBetweenPolyCollection_12"/>
   <g id="line2d_12">
    <path d="M 85.241432 419.627634 
L 200.780207 417.044731 
L 316.318981 125.587514 
L 431.857756 48.474716 
L 547.396531 48.474716 
L 662.935306 48.474716 
" clip-path="url(#pa46a57c9a7)" style="fill: none; stroke: #38aabf; stroke-width: 2.5; stroke-linecap: round"/>
    <defs>
     <path id="m1ca624b092" d="M 0 3 
C 0.795609 3 1.55874 2.683901 2.12132 2.12132 
C 2.683901 1.55874 3 0.795609 3 0 
C 3 -0.795609 2.683901 -1.55874 2.12132 -2.12132 
C 1.55874 -2.683901 0.795609 -3 0 -3 
C -0.795609 -3 -1.55874 -2.683901 -2.12132 -2.12132 
C -2.683901 -1.55874 -3 -0.795609 -3 0 
C -3 0.795609 -2.683901 1.55874 -2.12132 2.12132 
C -1.55874 2.683901 -0.795609 3 0 3 
z
" style="stroke: #ffffff; stroke-width: 0.75"/>
    </defs>
    <g clip-path="url(#pa46a57c9a7)">
     <use xlink:href="#m1ca624b092" x="85.241432" y="419.627634" style="fill: #38aabf; stroke: #ffffff; stroke-width: 0.75"/>
     <use xlink:href="#m1ca624b092" x="200.780207" y="417.044731" style="fill: #38aabf; stroke: #ffffff; stroke-width: 0.75"/>
     <use xlink:href="#m1ca624b092" x="316.318981" y="125.587514" style="fill: #38aabf; stroke: #ffffff; stroke-width: 0.75"/>
     <use xlink:href="#m1ca624b092" x="431.857756" y="48.474716" style="fill: #38aabf; stroke: #ffffff; stroke-width: 0.75"/>
     <use xlink:href="#m1ca624b092" x="547.396531" y="48.474716" style="fill: #38aabf; stroke: #ffffff; stroke-width: 0.75"/>
     <use xlink:href="#m1ca624b092" x="662.935306" y="48.474716" style="fill: #38aabf; stroke: #ffffff; stroke-width: 0.75"/>
    </g>
   </g>
   <g id="line2d_13">
    <path d="M 85.241432 424.325871 
L 200.780207 425.814399 
L 316.318981 420.907565 
L 431.857756 173.435576 
L 547.396531 171.996275 
L 662.935306 85.461003 
" clip-path="url(#pa46a57c9a7)" style="fill: none; stroke: #50b131; stroke-width: 2.5; stroke-linecap: round"/>
    <defs>
     <path id="me5e538b672" d="M 0 3 
C 0.795609 3 1.55874 2.683901 2.12132 2.12132 
C 2.683901 1.55874 3 0.795609 3 0 
C 3 -0.795609 2.683901 -1.55874 2.12132 -2.12132 
C 1.55874 -2.683901 0.795609 -3 0 -3 
C -0.795609 -3 -1.55874 -2.683901 -2.12132 -2.12132 
C -2.683901 -1.55874 -3 -0.795609 -3 0 
C -3 0.795609 -2.683901 1.55874 -2.12132 2.12132 
C -1.55874 2.683901 -0.795609 3 0 3 
z
" style="stroke: #ffffff; stroke-width: 0.75"/>
    </defs>
    <g clip-path="url(#pa46a57c9a7)">
     <use xlink:href="#me5e538b672" x="85.241432" y="424.325871" style="fill: #50b131; stroke: #ffffff; stroke-width: 0.75"/>
     <use xlink:href="#me5e538b672" x="200.780207" y="425.814399" style="fill: #50b131; stroke: #ffffff; stroke-width: 0.75"/>
     <use xlink:href="#me5e538b672" x="316.318981" y="420.907565" style="fill: #50b131; stroke: #ffffff; stroke-width: 0.75"/>
     <use xlink:href="#me5e538b672" x="431.857756" y="173.435576" style="fill: #50b131; stroke: #ffffff; stroke-width: 0.75"/>
     <use xlink:href="#me5e538b672" x="547.396531" y="171.996275" style="fill: #50b131; stroke: #ffffff; stroke-width: 0.75"/>
     <use xlink:href="#me5e538b672" x="662.935306" y="85.461003" style="fill: #50b131; stroke: #ffffff; stroke-width: 0.75"/>
    </g>
   </g>
   <g id="line2d_14">
    <path d="M 85.241432 420.789958 
L 200.780207 419.104427 
L 316.318981 396.214543 
L 431.857756 292.057416 
L 547.396531 206.036012 
L 662.935306 155.3285 
" clip-path="url(#pa46a57c9a7)" style="fill: none; stroke: #bb9832; stroke-width: 2.5; stroke-linecap: round"/>
    <defs>
     <path id="ma88c12257b" d="M 0 3 
C 0.795609 3 1.55874 2.683901 2.12132 2.12132 
C 2.683901 1.55874 3 0.795609 3 0 
C 3 -0.795609 2.683901 -1.55874 2.12132 -2.12132 
C 1.55874 -2.683901 0.795609 -3 0 -3 
C -0.795609 -3 -1.55874 -2.683901 -2.12132 -2.12132 
C -2.683901 -1.55874 -3 -0.795609 -3 0 
C -3 0.795609 -2.683901 1.55874 -2.12132 2.12132 
C -1.55874 2.683901 -0.795609 3 0 3 
z
" style="stroke: #ffffff; stroke-width: 0.75"/>
    </defs>
    <g clip-path="url(#pa46a57c9a7)">
     <use xlink:href="#ma88c12257b" x="85.241432" y="420.789958" style="fill: #bb9832; stroke: #ffffff; stroke-width: 0.75"/>
     <use xlink:href="#ma88c12257b" x="200.780207" y="419.104427" style="fill: #bb9832; stroke: #ffffff; stroke-width: 0.75"/>
     <use xlink:href="#ma88c12257b" x="316.318981" y="396.214543" style="fill: #bb9832; stroke: #ffffff; stroke-width: 0.75"/>
     <use xlink:href="#ma88c12257b" x="431.857756" y="292.057416" style="fill: #bb9832; stroke: #ffffff; stroke-width: 0.75"/>
     <use xlink:href="#ma88c12257b" x="547.396531" y="206.036012" style="fill: #bb9832; stroke: #ffffff; stroke-width: 0.75"/>
     <use xlink:href="#ma88c12257b" x="662.935306" y="155.3285" style="fill: #bb9832; stroke: #ffffff; stroke-width: 0.75"/>
    </g>
   </g>
   <g id="line2d_15">
    <path d="M 85.241432 420.006814 
L 200.780207 423.933328 
L 316.318981 390.812771 
L 431.857756 276.978601 
L 547.396531 169.663005 
L 662.935306 120.376763 
" clip-path="url(#pa46a57c9a7)" style="fill: none; stroke: #36ada4; stroke-width: 2.5; stroke-linecap: round"/>
    <defs>
     <path id="m8f81ff71f2" d="M 0 3 
C 0.795609 3 1.55874 2.683901 2.12132 2.12132 
C 2.683901 1.55874 3 0.795609 3 0 
C 3 -0.795609 2.683901 -1.55874 2.12132 -2.12132 
C 1.55874 -2.683901 0.795609 -3 0 -3 
C -0.795609 -3 -1.55874 -2.683901 -2.12132 -2.12132 
C -2.683901 -1.55874 -3 -0.795609 -3 0 
C -3 0.795609 -2.683901 1.55874 -2.12132 2.12132 
C -1.55874 2.683901 -0.795609 3 0 3 
z
" style="stroke: #ffffff; stroke-width: 0.75"/>
    </defs>
    <g clip-path="url(#pa46a57c9a7)">
     <use xlink:href="#m8f81ff71f2" x="85.241432" y="420.006814" style="fill: #36ada4; stroke: #ffffff; stroke-width: 0.75"/>
     <use xlink:href="#m8f81ff71f2" x="200.780207" y="423.933328" style="fill: #36ada4; stroke: #ffffff; stroke-width: 0.75"/>
     <use xlink:href="#m8f81ff71f2" x="316.318981" y="390.812771" style="fill: #36ada4; stroke: #ffffff; stroke-width: 0.75"/>
     <use xlink:href="#m8f81ff71f2" x="431.857756" y="276.978601" style="fill: #36ada4; stroke: #ffffff; stroke-width: 0.75"/>
     <use xlink:href="#m8f81ff71f2" x="547.396531" y="169.663005" style="fill: #36ada4; stroke: #ffffff; stroke-width: 0.75"/>
     <use xlink:href="#m8f81ff71f2" x="662.935306" y="120.376763" style="fill: #36ada4; stroke: #ffffff; stroke-width: 0.75"/>
    </g>
   </g>
   <g id="line2d_16">
    <path d="M 85.241432 422.321732 
L 200.780207 425.998738 
L 316.318981 429.644808 
L 431.857756 424.956255 
L 547.396531 431.044565 
L 662.935306 389.691219 
" clip-path="url(#pa46a57c9a7)" style="fill: none; stroke: #e68332; stroke-width: 2.5; stroke-linecap: round"/>
    <defs>
     <path id="m483ffe253d" d="M 0 3 
C 0.795609 3 1.55874 2.683901 2.12132 2.12132 
C 2.683901 1.55874 3 0.795609 3 0 
C 3 -0.795609 2.683901 -1.55874 2.12132 -2.12132 
C 1.55874 -2.683901 0.795609 -3 0 -3 
C -0.795609 -3 -1.55874 -2.683901 -2.12132 -2.12132 
C -2.683901 -1.55874 -3 -0.795609 -3 0 
C -3 0.795609 -2.683901 1.55874 -2.12132 2.12132 
C -1.55874 2.683901 -0.795609 3 0 3 
z
" style="stroke: #ffffff; stroke-width: 0.75"/>
    </defs>
    <g clip-path="url(#pa46a57c9a7)">
     <use xlink:href="#m483ffe253d" x="85.241432" y="422.321732" style="fill: #e68332; stroke: #ffffff; stroke-width: 0.75"/>
     <use xlink:href="#m483ffe253d" x="200.780207" y="425.998738" style="fill: #e68332; stroke: #ffffff; stroke-width: 0.75"/>
     <use xlink:href="#m483ffe253d" x="316.318981" y="429.644808" style="fill: #e68332; stroke: #ffffff; stroke-width: 0.75"/>
     <use xlink:href="#m483ffe253d" x="431.857756" y="424.956255" style="fill: #e68332; stroke: #ffffff; stroke-width: 0.75"/>
     <use xlink:href="#m483ffe253d" x="547.396531" y="431.044565" style="fill: #e68332; stroke: #ffffff; stroke-width: 0.75"/>
     <use xlink:href="#m483ffe253d" x="662.935306" y="389.691219" style="fill: #e68332; stroke: #ffffff; stroke-width: 0.75"/>
    </g>
   </g>
   <g id="line2d_17">
    <path d="M 85.241432 420.639121 
L 200.780207 426.96748 
L 316.318981 429.605338 
L 431.857756 432.17015 
L 547.396531 437.169034 
L 662.935306 421.755073 
" clip-path="url(#pa46a57c9a7)" style="fill: none; stroke: #e866f4; stroke-width: 2.5; stroke-linecap: round"/>
    <defs>
     <path id="m4f1455fc5a" d="M 0 3 
C 0.795609 3 1.55874 2.683901 2.12132 2.12132 
C 2.683901 1.55874 3 0.795609 3 0 
C 3 -0.795609 2.683901 -1.55874 2.12132 -2.12132 
C 1.55874 -2.683901 0.795609 -3 0 -3 
C -0.795609 -3 -1.55874 -2.683901 -2.12132 -2.12132 
C -2.683901 -1.55874 -3 -0.795609 -3 0 
C -3 0.795609 -2.683901 1.55874 -2.12132 2.12132 
C -1.55874 2.683901 -0.795609 3 0 3 
z
" style="stroke: #ffffff; stroke-width: 0.75"/>
    </defs>
    <g clip-path="url(#pa46a57c9a7)">
     <use xlink:href="#m4f1455fc5a" x="85.241432" y="420.639121" style="fill: #e866f4; stroke: #ffffff; stroke-width: 0.75"/>
     <use xlink:href="#m4f1455fc5a" x="200.780207" y="426.96748" style="fill: #e866f4; stroke: #ffffff; stroke-width: 0.75"/>
     <use xlink:href="#m4f1455fc5a" x="316.318981" y="429.605338" style="fill: #e866f4; stroke: #ffffff; stroke-width: 0.75"/>
     <use xlink:href="#m4f1455fc5a" x="431.857756" y="432.17015" style="fill: #e866f4; stroke: #ffffff; stroke-width: 0.75"/>
     <use xlink:href="#m4f1455fc5a" x="547.396531" y="437.169034" style="fill: #e866f4; stroke: #ffffff; stroke-width: 0.75"/>
     <use xlink:href="#m4f1455fc5a" x="662.935306" y="421.755073" style="fill: #e866f4; stroke: #ffffff; stroke-width: 0.75"/>
    </g>
   </g>
   <g id="line2d_18">
    <path d="M 85.241432 415.576147 
L 200.780207 423.915552 
L 316.318981 396.043711 
L 431.857756 308.406662 
L 547.396531 139.902628 
L 662.935306 85.373646 
" clip-path="url(#pa46a57c9a7)" style="fill: none; stroke: #f668c2; stroke-width: 2.5; stroke-linecap: round"/>
    <defs>
     <path id="m2f4853ab71" d="M 0 3 
C 0.795609 3 1.55874 2.683901 2.12132 2.12132 
C 2.683901 1.55874 3 0.795609 3 0 
C 3 -0.795609 2.683901 -1.55874 2.12132 -2.12132 
C 1.55874 -2.683901 0.795609 -3 0 -3 
C -0.795609 -3 -1.55874 -2.683901 -2.12132 -2.12132 
C -2.683901 -1.55874 -3 -0.795609 -3 0 
C -3 0.795609 -2.683901 1.55874 -2.12132 2.12132 
C -1.55874 2.683901 -0.795609 3 0 3 
z
" style="stroke: #ffffff; stroke-width: 0.75"/>
    </defs>
    <g clip-path="url(#pa46a57c9a7)">
     <use xlink:href="#m2f4853ab71" x="85.241432" y="415.576147" style="fill: #f668c2; stroke: #ffffff; stroke-width: 0.75"/>
     <use xlink:href="#m2f4853ab71" x="200.780207" y="423.915552" style="fill: #f668c2; stroke: #ffffff; stroke-width: 0.75"/>
     <use xlink:href="#m2f4853ab71" x="316.318981" y="396.043711" style="fill: #f668c2; stroke: #ffffff; stroke-width: 0.75"/>
     <use xlink:href="#m2f4853ab71" x="431.857756" y="308.406662" style="fill: #f668c2; stroke: #ffffff; stroke-width: 0.75"/>
     <use xlink:href="#m2f4853ab71" x="547.396531" y="139.902628" style="fill: #f668c2; stroke: #ffffff; stroke-width: 0.75"/>
     <use xlink:href="#m2f4853ab71" x="662.935306" y="85.373646" style="fill: #f668c2; stroke: #ffffff; stroke-width: 0.75"/>
    </g>
   </g>
   <g id="line2d_19">
    <path d="M 85.241432 420.255534 
L 200.780207 424.075744 
L 316.318981 405.343041 
L 431.857756 278.993002 
L 547.396531 174.472336 
L 662.935306 117.123335 
" clip-path="url(#pa46a57c9a7)" style="fill: none; stroke: #a48cf4; stroke-width: 2.5; stroke-linecap: round"/>
    <defs>
     <path id="m9195aa227f" d="M 0 3 
C 0.795609 3 1.55874 2.683901 2.12132 2.12132 
C 2.683901 1.55874 3 0.795609 3 0 
C 3 -0.795609 2.683901 -1.55874 2.12132 -2.12132 
C 1.55874 -2.683901 0.795609 -3 0 -3 
C -0.795609 -3 -1.55874 -2.683901 -2.12132 -2.12132 
C -2.683901 -1.55874 -3 -0.795609 -3 0 
C -3 0.795609 -2.683901 1.55874 -2.12132 2.12132 
C -1.55874 2.683901 -0.795609 3 0 3 
z
" style="stroke: #ffffff; stroke-width: 0.75"/>
    </defs>
    <g clip-path="url(#pa46a57c9a7)">
     <use xlink:href="#m9195aa227f" x="85.241432" y="420.255534" style="fill: #a48cf4; stroke: #ffffff; stroke-width: 0.75"/>
     <use xlink:href="#m9195aa227f" x="200.780207" y="424.075744" style="fill: #a48cf4; stroke: #ffffff; stroke-width: 0.75"/>
     <use xlink:href="#m9195aa227f" x="316.318981" y="405.343041" style="fill: #a48cf4; stroke: #ffffff; stroke-width: 0.75"/>
     <use xlink:href="#m9195aa227f" x="431.857756" y="278.993002" style="fill: #a48cf4; stroke: #ffffff; stroke-width: 0.75"/>
     <use xlink:href="#m9195aa227f" x="547.396531" y="174.472336" style="fill: #a48cf4; stroke: #ffffff; stroke-width: 0.75"/>
     <use xlink:href="#m9195aa227f" x="662.935306" y="117.123335" style="fill: #a48cf4; stroke: #ffffff; stroke-width: 0.75"/>
    </g>
   </g>
   <g id="line2d_20">
    <path d="M 85.241432 420.873937 
L 200.780207 422.563923 
L 316.318981 421.840553 
L 431.857756 342.685559 
L 547.396531 244.186494 
L 662.935306 246.131158 
" clip-path="url(#pa46a57c9a7)" style="fill: none; stroke: #97a431; stroke-width: 2.5; stroke-linecap: round"/>
    <defs>
     <path id="m386aaa3383" d="M 0 3 
C 0.795609 3 1.55874 2.683901 2.12132 2.12132 
C 2.683901 1.55874 3 0.795609 3 0 
C 3 -0.795609 2.683901 -1.55874 2.12132 -2.12132 
C 1.55874 -2.683901 0.795609 -3 0 -3 
C -0.795609 -3 -1.55874 -2.683901 -2.12132 -2.12132 
C -2.683901 -1.55874 -3 -0.795609 -3 0 
C -3 0.795609 -2.683901 1.55874 -2.12132 2.12132 
C -1.55874 2.683901 -0.795609 3 0 3 
z
" style="stroke: #ffffff; stroke-width: 0.75"/>
    </defs>
    <g clip-path="url(#pa46a57c9a7)">
     <use xlink:href="#m386aaa3383" x="85.241432" y="420.873937" style="fill: #97a431; stroke: #ffffff; stroke-width: 0.75"/>
     <use xlink:href="#m386aaa3383" x="200.780207" y="422.563923" style="fill: #97a431; stroke: #ffffff; stroke-width: 0.75"/>
     <use xlink:href="#m386aaa3383" x="316.318981" y="421.840553" style="fill: #97a431; stroke: #ffffff; stroke-width: 0.75"/>
     <use xlink:href="#m386aaa3383" x="431.857756" y="342.685559" style="fill: #97a431; stroke: #ffffff; stroke-width: 0.75"/>
     <use xlink:href="#m386aaa3383" x="547.396531" y="244.186494" style="fill: #97a431; stroke: #ffffff; stroke-width: 0.75"/>
     <use xlink:href="#m386aaa3383" x="662.935306" y="246.131158" style="fill: #97a431; stroke: #ffffff; stroke-width: 0.75"/>
    </g>
   </g>
   <g id="line2d_21">
    <path d="M 85.241432 419.825138 
L 200.780207 279.319167 
L 316.318981 73.091202 
L 431.857756 48.474716 
L 547.396531 48.474716 
L 662.935306 48.474716 
" clip-path="url(#pa46a57c9a7)" style="fill: none; stroke: #34af84; stroke-width: 2.5; stroke-linecap: round"/>
    <defs>
     <path id="m2084510735" d="M 0 3 
C 0.795609 3 1.55874 2.683901 2.12132 2.12132 
C 2.683901 1.55874 3 0.795609 3 0 
C 3 -0.795609 2.683901 -1.55874 2.12132 -2.12132 
C 1.55874 -2.683901 0.795609 -3 0 -3 
C -0.795609 -3 -1.55874 -2.683901 -2.12132 -2.12132 
C -2.683901 -1.55874 -3 -0.795609 -3 0 
C -3 0.795609 -2.683901 1.55874 -2.12132 2.12132 
C -1.55874 2.683901 -0.795609 3 0 3 
z
" style="stroke: #ffffff; stroke-width: 0.75"/>
    </defs>
    <g clip-path="url(#pa46a57c9a7)">
     <use xlink:href="#m2084510735" x="85.241432" y="419.825138" style="fill: #34af84; stroke: #ffffff; stroke-width: 0.75"/>
     <use xlink:href="#m2084510735" x="200.780207" y="279.319167" style="fill: #34af84; stroke: #ffffff; stroke-width: 0.75"/>
     <use xlink:href="#m2084510735" x="316.318981" y="73.091202" style="fill: #34af84; stroke: #ffffff; stroke-width: 0.75"/>
     <use xlink:href="#m2084510735" x="431.857756" y="48.474716" style="fill: #34af84; stroke: #ffffff; stroke-width: 0.75"/>
     <use xlink:href="#m2084510735" x="547.396531" y="48.474716" style="fill: #34af84; stroke: #ffffff; stroke-width: 0.75"/>
     <use xlink:href="#m2084510735" x="662.935306" y="48.474716" style="fill: #34af84; stroke: #ffffff; stroke-width: 0.75"/>
    </g>
   </g>
   <g id="line2d_22">
    <path d="M 85.241432 421.772158 
L 200.780207 421.584514 
L 316.318981 161.293532 
L 431.857756 145.408819 
L 547.396531 72.814261 
L 662.935306 58.956288 
" clip-path="url(#pa46a57c9a7)" style="fill: none; stroke: #3ba3ec; stroke-width: 2.5; stroke-linecap: round"/>
    <defs>
     <path id="m2be74f624c" d="M 0 3 
C 0.795609 3 1.55874 2.683901 2.12132 2.12132 
C 2.683901 1.55874 3 0.795609 3 0 
C 3 -0.795609 2.683901 -1.55874 2.12132 -2.12132 
C 1.55874 -2.683901 0.795609 -3 0 -3 
C -0.795609 -3 -1.55874 -2.683901 -2.12132 -2.12132 
C -2.683901 -1.55874 -3 -0.795609 -3 0 
C -3 0.795609 -2.683901 1.55874 -2.12132 2.12132 
C -1.55874 2.683901 -0.795609 3 0 3 
z
" style="stroke: #ffffff; stroke-width: 0.75"/>
    </defs>
    <g clip-path="url(#pa46a57c9a7)">
     <use xlink:href="#m2be74f624c" x="85.241432" y="421.772158" style="fill: #3ba3ec; stroke: #ffffff; stroke-width: 0.75"/>
     <use xlink:href="#m2be74f624c" x="200.780207" y="421.584514" style="fill: #3ba3ec; stroke: #ffffff; stroke-width: 0.75"/>
     <use xlink:href="#m2be74f624c" x="316.318981" y="161.293532" style="fill: #3ba3ec; stroke: #ffffff; stroke-width: 0.75"/>
     <use xlink:href="#m2be74f624c" x="431.857756" y="145.408819" style="fill: #3ba3ec; stroke: #ffffff; stroke-width: 0.75"/>
     <use xlink:href="#m2be74f624c" x="547.396531" y="72.814261" style="fill: #3ba3ec; stroke: #ffffff; stroke-width: 0.75"/>
     <use xlink:href="#m2be74f624c" x="662.935306" y="58.956288" style="fill: #3ba3ec; stroke: #ffffff; stroke-width: 0.75"/>
    </g>
   </g>
   <g id="line2d_23">
    <path d="M 85.241432 423.508298 
L 200.780207 429.743607 
L 316.318981 427.344705 
L 431.857756 430.963604 
L 547.396531 435.166573 
L 662.935306 424.111407 
" clip-path="url(#pa46a57c9a7)" style="fill: none; stroke: #f77189; stroke-width: 2.5; stroke-linecap: round"/>
    <defs>
     <path id="m7bbc646ff9" d="M 0 3 
C 0.795609 3 1.55874 2.683901 2.12132 2.12132 
C 2.683901 1.55874 3 0.795609 3 0 
C 3 -0.795609 2.683901 -1.55874 2.12132 -2.12132 
C 1.55874 -2.683901 0.795609 -3 0 -3 
C -0.795609 -3 -1.55874 -2.683901 -2.12132 -2.12132 
C -2.683901 -1.55874 -3 -0.795609 -3 0 
C -3 0.795609 -2.683901 1.55874 -2.12132 2.12132 
C -1.55874 2.683901 -0.795609 3 0 3 
z
" style="stroke: #ffffff; stroke-width: 0.75"/>
    </defs>
    <g clip-path="url(#pa46a57c9a7)">
     <use xlink:href="#m7bbc646ff9" x="85.241432" y="423.508298" style="fill: #f77189; stroke: #ffffff; stroke-width: 0.75"/>
     <use xlink:href="#m7bbc646ff9" x="200.780207" y="429.743607" style="fill: #f77189; stroke: #ffffff; stroke-width: 0.75"/>
     <use xlink:href="#m7bbc646ff9" x="316.318981" y="427.344705" style="fill: #f77189; stroke: #ffffff; stroke-width: 0.75"/>
     <use xlink:href="#m7bbc646ff9" x="431.857756" y="430.963604" style="fill: #f77189; stroke: #ffffff; stroke-width: 0.75"/>
     <use xlink:href="#m7bbc646ff9" x="547.396531" y="435.166573" style="fill: #f77189; stroke: #ffffff; stroke-width: 0.75"/>
     <use xlink:href="#m7bbc646ff9" x="662.935306" y="424.111407" style="fill: #f77189; stroke: #ffffff; stroke-width: 0.75"/>
    </g>
   </g>
   <g id="line2d_24"/>
   <g id="line2d_25"/>
   <g id="line2d_26"/>
   <g id="line2d_27"/>
   <g id="line2d_28"/>
   <g id="line2d_29"/>
   <g id="line2d_30"/>
   <g id="line2d_31"/>
   <g id="line2d_32"/>
   <g id="line2d_33"/>
   <g id="line2d_34"/>
   <g id="line2d_35"/>
   <g id="patch_3">
    <path d="M 56.356738 456.60375 
L 56.356738 29.04 
" style="fill: none; stroke: #cccccc; stroke-width: 1.25; stroke-linejoin: miter; stroke-linecap: square"/>
   </g>
   <g id="patch_4">
    <path d="M 691.82 456.60375 
L 691.82 29.04 
" style="fill: none; stroke: #cccccc; stroke-width: 1.25; stroke-linejoin: miter; stroke-linecap: square"/>
   </g>
   <g id="patch_5">
    <path d="M 56.356738 456.60375 
L 691.82 456.60375 
" style="fill: none; stroke: #cccccc; stroke-width: 1.25; stroke-linejoin: miter; stroke-linecap: square"/>
   </g>
   <g id="patch_6">
    <path d="M 56.356738 29.04 
L 691.82 29.04 
" style="fill: none; stroke: #cccccc; stroke-width: 1.25; stroke-linejoin: miter; stroke-linecap: square"/>
   </g>
   <g id="text_14">
    <!-- Average Performance: Solving Time vs Vector Size -->
    <g style="fill: #262626" transform="translate(215.868681 23.04) scale(0.14 -0.14)">
     <defs>
      <path id="ArialMT-50" d="M 494 0 
L 494 4581 
L 2222 4581 
Q 2678 4581 2919 4538 
Q 3256 4481 3484 4323 
Q 3713 4166 3852 3881 
Q 3991 3597 3991 3256 
Q 3991 2672 3619 2267 
Q 3247 1863 2275 1863 
L 1100 1863 
L 1100 0 
L 494 0 
z
M 1100 2403 
L 2284 2403 
Q 2872 2403 3119 2622 
Q 3366 2841 3366 3238 
Q 3366 3525 3220 3729 
Q 3075 3934 2838 4000 
Q 2684 4041 2272 4041 
L 1100 4041 
L 1100 2403 
z
" transform="scale(0.015625)"/>
      <path id="ArialMT-66" d="M 556 0 
L 556 2881 
L 59 2881 
L 59 3319 
L 556 3319 
L 556 3672 
Q 556 4006 616 4169 
Q 697 4388 901 4523 
Q 1106 4659 1475 4659 
Q 1713 4659 2000 4603 
L 1916 4113 
Q 1741 4144 1584 4144 
Q 1328 4144 1222 4034 
Q 1116 3925 1116 3625 
L 1116 3319 
L 1763 3319 
L 1763 2881 
L 1116 2881 
L 1116 0 
L 556 0 
z
" transform="scale(0.015625)"/>
      <path id="ArialMT-3a" d="M 578 2678 
L 578 3319 
L 1219 3319 
L 1219 2678 
L 578 2678 
z
M 578 0 
L 578 641 
L 1219 641 
L 1219 0 
L 578 0 
z
" transform="scale(0.015625)"/>
      <path id="ArialMT-6c" d="M 409 0 
L 409 4581 
L 972 4581 
L 972 0 
L 409 0 
z
" transform="scale(0.015625)"/>
     </defs>
     <use xlink:href="#ArialMT-41"/>
     <use xlink:href="#ArialMT-76" transform="translate(64.949219 0)"/>
     <use xlink:href="#ArialMT-65" transform="translate(114.949219 0)"/>
     <use xlink:href="#ArialMT-72" transform="translate(170.564453 0)"/>
     <use xlink:href="#ArialMT-61" transform="translate(203.865234 0)"/>
     <use xlink:href="#ArialMT-67" transform="translate(259.480469 0)"/>
     <use xlink:href="#ArialMT-65" transform="translate(315.095703 0)"/>
     <use xlink:href="#ArialMT-20" transform="translate(370.710938 0)"/>
     <use xlink:href="#ArialMT-50" transform="translate(398.494141 0)"/>
     <use xlink:href="#ArialMT-65" transform="translate(465.193359 0)"/>
     <use xlink:href="#ArialMT-72" transform="translate(520.808594 0)"/>
     <use xlink:href="#ArialMT-66" transform="translate(554.109375 0)"/>
     <use xlink:href="#ArialMT-6f" transform="translate(581.892578 0)"/>
     <use xlink:href="#ArialMT-72" transform="translate(637.507812 0)"/>
     <use xlink:href="#ArialMT-6d" transform="translate(670.808594 0)"/>
     <use xlink:href="#ArialMT-61" transform="translate(754.109375 0)"/>
     <use xlink:href="#ArialMT-6e" transform="translate(809.724609 0)"/>
     <use xlink:href="#ArialMT-63" transform="translate(865.339844 0)"/>
     <use xlink:href="#ArialMT-65" transform="translate(915.339844 0)"/>
     <use xlink:href="#ArialMT-3a" transform="translate(970.955078 0)"/>
     <use xlink:href="#ArialMT-20" transform="translate(998.738281 0)"/>
     <use xlink:href="#ArialMT-53" transform="translate(1026.521484 0)"/>
     <use xlink:href="#ArialMT-6f" transform="translate(1093.220703 0)"/>
     <use xlink:href="#ArialMT-6c" transform="translate(1148.835938 0)"/>
     <use xlink:href="#ArialMT-76" transform="translate(1171.052734 0)"/>
     <use xlink:href="#ArialMT-69" transform="translate(1221.052734 0)"/>
     <use xlink:href="#ArialMT-6e" transform="translate(1243.269531 0)"/>
     <use xlink:href="#ArialMT-67" transform="translate(1298.884766 0)"/>
     <use xlink:href="#ArialMT-20" transform="translate(1354.5 0)"/>
     <use xlink:href="#ArialMT-54" transform="translate(1380.533203 0)"/>
     <use xlink:href="#ArialMT-69" transform="translate(1437.867188 0)"/>
     <use xlink:href="#ArialMT-6d" transform="translate(1460.083984 0)"/>
     <use xlink:href="#ArialMT-65" transform="translate(1543.384766 0)"/>
     <use xlink:href="#ArialMT-20" transform="translate(1599 0)"/>
     <use xlink:href="#ArialMT-76" transform="translate(1626.783203 0)"/>
     <use xlink:href="#ArialMT-73" transform="translate(1676.783203 0)"/>
     <use xlink:href="#ArialMT-20" transform="translate(1726.783203 0)"/>
     <use xlink:href="#ArialMT-56" transform="translate(1754.566406 0)"/>
     <use xlink:href="#ArialMT-65" transform="translate(1815.765625 0)"/>
     <use xlink:href="#ArialMT-63" transform="translate(1871.380859 0)"/>
     <use xlink:href="#ArialMT-74" transform="translate(1921.380859 0)"/>
     <use xlink:href="#ArialMT-6f" transform="translate(1949.164062 0)"/>
     <use xlink:href="#ArialMT-72" transform="translate(2004.779297 0)"/>
     <use xlink:href="#ArialMT-20" transform="translate(2038.080078 0)"/>
     <use xlink:href="#ArialMT-53" transform="translate(2065.863281 0)"/>
     <use xlink:href="#ArialMT-69" transform="translate(2132.5625 0)"/>
     <use xlink:href="#ArialMT-7a" transform="translate(2154.779297 0)"/>
     <use xlink:href="#ArialMT-65" transform="translate(2204.779297 0)"/>
    </g>
   </g>
   <g id="legend_1">
    <g id="patch_7">
     <path d="M 731.293163 241.969062 
L 847.193632 241.969062 
Q 849.393632 241.969062 849.393632 239.769062 
L 849.393632 36.74 
Q 849.393632 34.54 847.193632 34.54 
L 731.293163 34.54 
Q 729.093163 34.54 729.093163 36.74 
L 729.093163 239.769062 
Q 729.093163 241.969062 731.293163 241.969062 
z
" style="fill: #ffffff; opacity: 0.8; stroke: #cccccc; stroke-linejoin: miter"/>
    </g>
    <g id="text_15">
     <!-- Strategy -->
     <g style="fill: #262626" transform="translate(766.89996 47.675625) scale(0.12 -0.12)">
      <defs>
       <path id="ArialMT-79" d="M 397 -1278 
L 334 -750 
Q 519 -800 656 -800 
Q 844 -800 956 -737 
Q 1069 -675 1141 -563 
Q 1194 -478 1313 -144 
Q 1328 -97 1363 -6 
L 103 3319 
L 709 3319 
L 1400 1397 
Q 1534 1031 1641 628 
Q 1738 1016 1872 1384 
L 2581 3319 
L 3144 3319 
L 1881 -56 
Q 1678 -603 1566 -809 
Q 1416 -1088 1222 -1217 
Q 1028 -1347 759 -1347 
Q 597 -1347 397 -1278 
z
" transform="scale(0.015625)"/>
      </defs>
      <use xlink:href="#ArialMT-53"/>
      <use xlink:href="#ArialMT-74" transform="translate(66.699219 0)"/>
      <use xlink:href="#ArialMT-72" transform="translate(94.482422 0)"/>
      <use xlink:href="#ArialMT-61" transform="translate(127.783203 0)"/>
      <use xlink:href="#ArialMT-74" transform="translate(183.398438 0)"/>
      <use xlink:href="#ArialMT-65" transform="translate(211.181641 0)"/>
      <use xlink:href="#ArialMT-67" transform="translate(266.796875 0)"/>
      <use xlink:href="#ArialMT-79" transform="translate(322.412109 0)"/>
     </g>
    </g>
    <g id="line2d_36">
     <path d="M 733.493163 59.724844 
L 744.493163 59.724844 
L 755.493163 59.724844 
" style="fill: none; stroke: #38aabf; stroke-width: 2.5; stroke-linecap: round"/>
     <g>
      <use xlink:href="#m1ca624b092" x="744.493163" y="59.724844" style="fill: #38aabf; stroke: #ffffff; stroke-width: 0.75"/>
     </g>
    </g>
    <g id="text_16">
     <!-- antifirstfail -->
     <g style="fill: #262626" transform="translate(764.293163 63.574844) scale(0.11 -0.11)">
      <use xlink:href="#ArialMT-61"/>
      <use xlink:href="#ArialMT-6e" transform="translate(55.615234 0)"/>
      <use xlink:href="#ArialMT-74" transform="translate(111.230469 0)"/>
      <use xlink:href="#ArialMT-69" transform="translate(139.013672 0)"/>
      <use xlink:href="#ArialMT-66" transform="translate(161.230469 0)"/>
      <use xlink:href="#ArialMT-69" transform="translate(189.013672 0)"/>
      <use xlink:href="#ArialMT-72" transform="translate(211.230469 0)"/>
      <use xlink:href="#ArialMT-73" transform="translate(244.53125 0)"/>
      <use xlink:href="#ArialMT-74" transform="translate(294.53125 0)"/>
      <use xlink:href="#ArialMT-66" transform="translate(322.314453 0)"/>
      <use xlink:href="#ArialMT-61" transform="translate(350.097656 0)"/>
      <use xlink:href="#ArialMT-69" transform="translate(405.712891 0)"/>
      <use xlink:href="#ArialMT-6c" transform="translate(427.929688 0)"/>
     </g>
    </g>
    <g id="line2d_37">
     <path d="M 733.493163 75.284687 
L 744.493163 75.284687 
L 755.493163 75.284687 
" style="fill: none; stroke: #50b131; stroke-width: 2.5; stroke-linecap: round"/>
     <g>
      <use xlink:href="#me5e538b672" x="744.493163" y="75.284687" style="fill: #50b131; stroke: #ffffff; stroke-width: 0.75"/>
     </g>
    </g>
    <g id="text_17">
     <!-- default -->
     <g style="fill: #262626" transform="translate(764.293163 79.134687) scale(0.11 -0.11)">
      <defs>
       <path id="ArialMT-75" d="M 2597 0 
L 2597 488 
Q 2209 -75 1544 -75 
Q 1250 -75 995 37 
Q 741 150 617 320 
Q 494 491 444 738 
Q 409 903 409 1263 
L 409 3319 
L 972 3319 
L 972 1478 
Q 972 1038 1006 884 
Q 1059 663 1231 536 
Q 1403 409 1656 409 
Q 1909 409 2131 539 
Q 2353 669 2445 892 
Q 2538 1116 2538 1541 
L 2538 3319 
L 3100 3319 
L 3100 0 
L 2597 0 
z
" transform="scale(0.015625)"/>
      </defs>
      <use xlink:href="#ArialMT-64"/>
      <use xlink:href="#ArialMT-65" transform="translate(55.615234 0)"/>
      <use xlink:href="#ArialMT-66" transform="translate(111.230469 0)"/>
      <use xlink:href="#ArialMT-61" transform="translate(139.013672 0)"/>
      <use xlink:href="#ArialMT-75" transform="translate(194.628906 0)"/>
      <use xlink:href="#ArialMT-6c" transform="translate(250.244141 0)"/>
      <use xlink:href="#ArialMT-74" transform="translate(272.460938 0)"/>
     </g>
    </g>
    <g id="line2d_38">
     <path d="M 733.493163 90.844531 
L 744.493163 90.844531 
L 755.493163 90.844531 
" style="fill: none; stroke: #bb9832; stroke-width: 2.5; stroke-linecap: round"/>
     <g>
      <use xlink:href="#ma88c12257b" x="744.493163" y="90.844531" style="fill: #bb9832; stroke: #ffffff; stroke-width: 0.75"/>
     </g>
    </g>
    <g id="text_18">
     <!-- domwdeg -->
     <g style="fill: #262626" transform="translate(764.293163 94.694531) scale(0.11 -0.11)">
      <defs>
       <path id="ArialMT-77" d="M 1034 0 
L 19 3319 
L 600 3319 
L 1128 1403 
L 1325 691 
Q 1338 744 1497 1375 
L 2025 3319 
L 2603 3319 
L 3100 1394 
L 3266 759 
L 3456 1400 
L 4025 3319 
L 4572 3319 
L 3534 0 
L 2950 0 
L 2422 1988 
L 2294 2553 
L 1622 0 
L 1034 0 
z
" transform="scale(0.015625)"/>
      </defs>
      <use xlink:href="#ArialMT-64"/>
      <use xlink:href="#ArialMT-6f" transform="translate(55.615234 0)"/>
      <use xlink:href="#ArialMT-6d" transform="translate(111.230469 0)"/>
      <use xlink:href="#ArialMT-77" transform="translate(194.53125 0)"/>
      <use xlink:href="#ArialMT-64" transform="translate(266.748047 0)"/>
      <use xlink:href="#ArialMT-65" transform="translate(322.363281 0)"/>
      <use xlink:href="#ArialMT-67" transform="translate(377.978516 0)"/>
     </g>
    </g>
    <g id="line2d_39">
     <path d="M 733.493163 106.533281 
L 744.493163 106.533281 
L 755.493163 106.533281 
" style="fill: none; stroke: #36ada4; stroke-width: 2.5; stroke-linecap: round"/>
     <g>
      <use xlink:href="#m8f81ff71f2" x="744.493163" y="106.533281" style="fill: #36ada4; stroke: #ffffff; stroke-width: 0.75"/>
     </g>
    </g>
    <g id="text_19">
     <!-- domwdeg_split -->
     <g style="fill: #262626" transform="translate(764.293163 110.383281) scale(0.11 -0.11)">
      <defs>
       <path id="ArialMT-5f" d="M -97 -1272 
L -97 -866 
L 3631 -866 
L 3631 -1272 
L -97 -1272 
z
" transform="scale(0.015625)"/>
       <path id="ArialMT-70" d="M 422 -1272 
L 422 3319 
L 934 3319 
L 934 2888 
Q 1116 3141 1344 3267 
Q 1572 3394 1897 3394 
Q 2322 3394 2647 3175 
Q 2972 2956 3137 2557 
Q 3303 2159 3303 1684 
Q 3303 1175 3120 767 
Q 2938 359 2589 142 
Q 2241 -75 1856 -75 
Q 1575 -75 1351 44 
Q 1128 163 984 344 
L 984 -1272 
L 422 -1272 
z
M 931 1641 
Q 931 1000 1190 694 
Q 1450 388 1819 388 
Q 2194 388 2461 705 
Q 2728 1022 2728 1688 
Q 2728 2322 2467 2637 
Q 2206 2953 1844 2953 
Q 1484 2953 1207 2617 
Q 931 2281 931 1641 
z
" transform="scale(0.015625)"/>
      </defs>
      <use xlink:href="#ArialMT-64"/>
      <use xlink:href="#ArialMT-6f" transform="translate(55.615234 0)"/>
      <use xlink:href="#ArialMT-6d" transform="translate(111.230469 0)"/>
      <use xlink:href="#ArialMT-77" transform="translate(194.53125 0)"/>
      <use xlink:href="#ArialMT-64" transform="translate(266.748047 0)"/>
      <use xlink:href="#ArialMT-65" transform="translate(322.363281 0)"/>
      <use xlink:href="#ArialMT-67" transform="translate(377.978516 0)"/>
      <use xlink:href="#ArialMT-5f" transform="translate(433.59375 0)"/>
      <use xlink:href="#ArialMT-73" transform="translate(489.208984 0)"/>
      <use xlink:href="#ArialMT-70" transform="translate(539.208984 0)"/>
      <use xlink:href="#ArialMT-6c" transform="translate(594.824219 0)"/>
      <use xlink:href="#ArialMT-69" transform="translate(617.041016 0)"/>
      <use xlink:href="#ArialMT-74" transform="translate(639.257812 0)"/>
     </g>
    </g>
    <g id="line2d_40">
     <path d="M 733.493163 122.222031 
L 744.493163 122.222031 
L 755.493163 122.222031 
" style="fill: none; stroke: #e68332; stroke-width: 2.5; stroke-linecap: round"/>
     <g>
      <use xlink:href="#m483ffe253d" x="744.493163" y="122.222031" style="fill: #e68332; stroke: #ffffff; stroke-width: 0.75"/>
     </g>
    </g>
    <g id="text_20">
     <!-- firstfail -->
     <g style="fill: #262626" transform="translate(764.293163 126.072031) scale(0.11 -0.11)">
      <use xlink:href="#ArialMT-66"/>
      <use xlink:href="#ArialMT-69" transform="translate(27.783203 0)"/>
      <use xlink:href="#ArialMT-72" transform="translate(50 0)"/>
      <use xlink:href="#ArialMT-73" transform="translate(83.300781 0)"/>
      <use xlink:href="#ArialMT-74" transform="translate(133.300781 0)"/>
      <use xlink:href="#ArialMT-66" transform="translate(161.083984 0)"/>
      <use xlink:href="#ArialMT-61" transform="translate(188.867188 0)"/>
      <use xlink:href="#ArialMT-69" transform="translate(244.482422 0)"/>
      <use xlink:href="#ArialMT-6c" transform="translate(266.699219 0)"/>
     </g>
    </g>
    <g id="line2d_41">
     <path d="M 733.493163 137.915937 
L 744.493163 137.915937 
L 755.493163 137.915937 
" style="fill: none; stroke: #e866f4; stroke-width: 2.5; stroke-linecap: round"/>
     <g>
      <use xlink:href="#m4f1455fc5a" x="744.493163" y="137.915937" style="fill: #e866f4; stroke: #ffffff; stroke-width: 0.75"/>
     </g>
    </g>
    <g id="text_21">
     <!-- firstfail_split -->
     <g style="fill: #262626" transform="translate(764.293163 141.765937) scale(0.11 -0.11)">
      <use xlink:href="#ArialMT-66"/>
      <use xlink:href="#ArialMT-69" transform="translate(27.783203 0)"/>
      <use xlink:href="#ArialMT-72" transform="translate(50 0)"/>
      <use xlink:href="#ArialMT-73" transform="translate(83.300781 0)"/>
      <use xlink:href="#ArialMT-74" transform="translate(133.300781 0)"/>
      <use xlink:href="#ArialMT-66" transform="translate(161.083984 0)"/>
      <use xlink:href="#ArialMT-61" transform="translate(188.867188 0)"/>
      <use xlink:href="#ArialMT-69" transform="translate(244.482422 0)"/>
      <use xlink:href="#ArialMT-6c" transform="translate(266.699219 0)"/>
      <use xlink:href="#ArialMT-5f" transform="translate(288.916016 0)"/>
      <use xlink:href="#ArialMT-73" transform="translate(344.53125 0)"/>
      <use xlink:href="#ArialMT-70" transform="translate(394.53125 0)"/>
      <use xlink:href="#ArialMT-6c" transform="translate(450.146484 0)"/>
      <use xlink:href="#ArialMT-69" transform="translate(472.363281 0)"/>
      <use xlink:href="#ArialMT-74" transform="translate(494.580078 0)"/>
     </g>
    </g>
    <g id="line2d_42">
     <path d="M 733.493163 153.475781 
L 744.493163 153.475781 
L 755.493163 153.475781 
" style="fill: none; stroke: #f668c2; stroke-width: 2.5; stroke-linecap: round"/>
     <g>
      <use xlink:href="#m2f4853ab71" x="744.493163" y="153.475781" style="fill: #f668c2; stroke: #ffffff; stroke-width: 0.75"/>
     </g>
    </g>
    <g id="text_22">
     <!-- geometric -->
     <g style="fill: #262626" transform="translate(764.293163 157.325781) scale(0.11 -0.11)">
      <use xlink:href="#ArialMT-67"/>
      <use xlink:href="#ArialMT-65" transform="translate(55.615234 0)"/>
      <use xlink:href="#ArialMT-6f" transform="translate(111.230469 0)"/>
      <use xlink:href="#ArialMT-6d" transform="translate(166.845703 0)"/>
      <use xlink:href="#ArialMT-65" transform="translate(250.146484 0)"/>
      <use xlink:href="#ArialMT-74" transform="translate(305.761719 0)"/>
      <use xlink:href="#ArialMT-72" transform="translate(333.544922 0)"/>
      <use xlink:href="#ArialMT-69" transform="translate(366.845703 0)"/>
      <use xlink:href="#ArialMT-63" transform="translate(389.0625 0)"/>
     </g>
    </g>
    <g id="line2d_43">
     <path d="M 733.493163 169.164531 
L 744.493163 169.164531 
L 755.493163 169.164531 
" style="fill: none; stroke: #a48cf4; stroke-width: 2.5; stroke-linecap: round"/>
     <g>
      <use xlink:href="#m9195aa227f" x="744.493163" y="169.164531" style="fill: #a48cf4; stroke: #ffffff; stroke-width: 0.75"/>
     </g>
    </g>
    <g id="text_23">
     <!-- linear -->
     <g style="fill: #262626" transform="translate(764.293163 173.014531) scale(0.11 -0.11)">
      <use xlink:href="#ArialMT-6c"/>
      <use xlink:href="#ArialMT-69" transform="translate(22.216797 0)"/>
      <use xlink:href="#ArialMT-6e" transform="translate(44.433594 0)"/>
      <use xlink:href="#ArialMT-65" transform="translate(100.048828 0)"/>
      <use xlink:href="#ArialMT-61" transform="translate(155.664062 0)"/>
      <use xlink:href="#ArialMT-72" transform="translate(211.279297 0)"/>
     </g>
    </g>
    <g id="line2d_44">
     <path d="M 733.493163 184.724375 
L 744.493163 184.724375 
L 755.493163 184.724375 
" style="fill: none; stroke: #97a431; stroke-width: 2.5; stroke-linecap: round"/>
     <g>
      <use xlink:href="#m386aaa3383" x="744.493163" y="184.724375" style="fill: #97a431; stroke: #ffffff; stroke-width: 0.75"/>
     </g>
    </g>
    <g id="text_24">
     <!-- maxregret -->
     <g style="fill: #262626" transform="translate(764.293163 188.574375) scale(0.11 -0.11)">
      <defs>
       <path id="ArialMT-78" d="M 47 0 
L 1259 1725 
L 138 3319 
L 841 3319 
L 1350 2541 
Q 1494 2319 1581 2169 
Q 1719 2375 1834 2534 
L 2394 3319 
L 3066 3319 
L 1919 1756 
L 3153 0 
L 2463 0 
L 1781 1031 
L 1600 1309 
L 728 0 
L 47 0 
z
" transform="scale(0.015625)"/>
      </defs>
      <use xlink:href="#ArialMT-6d"/>
      <use xlink:href="#ArialMT-61" transform="translate(83.300781 0)"/>
      <use xlink:href="#ArialMT-78" transform="translate(138.916016 0)"/>
      <use xlink:href="#ArialMT-72" transform="translate(188.916016 0)"/>
      <use xlink:href="#ArialMT-65" transform="translate(222.216797 0)"/>
      <use xlink:href="#ArialMT-67" transform="translate(277.832031 0)"/>
      <use xlink:href="#ArialMT-72" transform="translate(333.447266 0)"/>
      <use xlink:href="#ArialMT-65" transform="translate(366.748047 0)"/>
      <use xlink:href="#ArialMT-74" transform="translate(422.363281 0)"/>
     </g>
    </g>
    <g id="line2d_45">
     <path d="M 733.493163 200.413125 
L 744.493163 200.413125 
L 755.493163 200.413125 
" style="fill: none; stroke: #34af84; stroke-width: 2.5; stroke-linecap: round"/>
     <g>
      <use xlink:href="#m2084510735" x="744.493163" y="200.413125" style="fill: #34af84; stroke: #ffffff; stroke-width: 0.75"/>
     </g>
    </g>
    <g id="text_25">
     <!-- mostconstrained -->
     <g style="fill: #262626" transform="translate(764.293163 204.263125) scale(0.11 -0.11)">
      <use xlink:href="#ArialMT-6d"/>
      <use xlink:href="#ArialMT-6f" transform="translate(83.300781 0)"/>
      <use xlink:href="#ArialMT-73" transform="translate(138.916016 0)"/>
      <use xlink:href="#ArialMT-74" transform="translate(188.916016 0)"/>
      <use xlink:href="#ArialMT-63" transform="translate(216.699219 0)"/>
      <use xlink:href="#ArialMT-6f" transform="translate(266.699219 0)"/>
      <use xlink:href="#ArialMT-6e" transform="translate(322.314453 0)"/>
      <use xlink:href="#ArialMT-73" transform="translate(377.929688 0)"/>
      <use xlink:href="#ArialMT-74" transform="translate(427.929688 0)"/>
      <use xlink:href="#ArialMT-72" transform="translate(455.712891 0)"/>
      <use xlink:href="#ArialMT-61" transform="translate(489.013672 0)"/>
      <use xlink:href="#ArialMT-69" transform="translate(544.628906 0)"/>
      <use xlink:href="#ArialMT-6e" transform="translate(566.845703 0)"/>
      <use xlink:href="#ArialMT-65" transform="translate(622.460938 0)"/>
      <use xlink:href="#ArialMT-64" transform="translate(678.076172 0)"/>
     </g>
    </g>
    <g id="line2d_46">
     <path d="M 733.493163 215.972969 
L 744.493163 215.972969 
L 755.493163 215.972969 
" style="fill: none; stroke: #3ba3ec; stroke-width: 2.5; stroke-linecap: round"/>
     <g>
      <use xlink:href="#m2be74f624c" x="744.493163" y="215.972969" style="fill: #3ba3ec; stroke: #ffffff; stroke-width: 0.75"/>
     </g>
    </g>
    <g id="text_26">
     <!-- norestart -->
     <g style="fill: #262626" transform="translate(764.293163 219.822969) scale(0.11 -0.11)">
      <use xlink:href="#ArialMT-6e"/>
      <use xlink:href="#ArialMT-6f" transform="translate(55.615234 0)"/>
      <use xlink:href="#ArialMT-72" transform="translate(111.230469 0)"/>
      <use xlink:href="#ArialMT-65" transform="translate(144.53125 0)"/>
      <use xlink:href="#ArialMT-73" transform="translate(200.146484 0)"/>
      <use xlink:href="#ArialMT-74" transform="translate(250.146484 0)"/>
      <use xlink:href="#ArialMT-61" transform="translate(277.929688 0)"/>
      <use xlink:href="#ArialMT-72" transform="translate(333.544922 0)"/>
      <use xlink:href="#ArialMT-74" transform="translate(366.845703 0)"/>
     </g>
    </g>
    <g id="line2d_47">
     <path d="M 733.493163 231.532813 
L 744.493163 231.532813 
L 755.493163 231.532813 
" style="fill: none; stroke: #f77189; stroke-width: 2.5; stroke-linecap: round"/>
     <g>
      <use xlink:href="#m7bbc646ff9" x="744.493163" y="231.532813" style="fill: #f77189; stroke: #ffffff; stroke-width: 0.75"/>
     </g>
    </g>
    <g id="text_27">
     <!-- smallest -->
     <g style="fill: #262626" transform="translate(764.293163 235.382812) scale(0.11 -0.11)">
      <use xlink:href="#ArialMT-73"/>
      <use xlink:href="#ArialMT-6d" transform="translate(50 0)"/>
      <use xlink:href="#ArialMT-61" transform="translate(133.300781 0)"/>
      <use xlink:href="#ArialMT-6c" transform="translate(188.916016 0)"/>
      <use xlink:href="#ArialMT-6c" transform="translate(211.132812 0)"/>
      <use xlink:href="#ArialMT-65" transform="translate(233.349609 0)"/>
      <use xlink:href="#ArialMT-73" transform="translate(288.964844 0)"/>
      <use xlink:href="#ArialMT-74" transform="translate(338.964844 0)"/>
     </g>
    </g>
   </g>
  </g>
 </g>
 <defs>
  <clipPath id="pa46a57c9a7">
   <rect x="56.356738" y="29.04" width="635.463262" height="427.56375"/>
  </clipPath>
 </defs>
</svg>
