<?xml version="1.0" encoding="utf-8" standalone="no"?>
<!DOCTYPE svg PUBLIC "-//W3C//DTD SVG 1.1//EN"
  "http://www.w3.org/Graphics/SVG/1.1/DTD/svg11.dtd">
<svg xmlns:xlink="http://www.w3.org/1999/xlink" width="864pt" height="504pt" viewBox="0 0 864 504" xmlns="http://www.w3.org/2000/svg" version="1.1">
 <metadata>
  <rdf:RDF xmlns:dc="http://purl.org/dc/elements/1.1/" xmlns:cc="http://creativecommons.org/ns#" xmlns:rdf="http://www.w3.org/1999/02/22-rdf-syntax-ns#">
   <cc:Work>
    <dc:type rdf:resource="http://purl.org/dc/dcmitype/StillImage"/>
    <dc:date>2026-01-25T15:09:33.859132</dc:date>
    <dc:format>image/svg+xml</dc:format>
    <dc:creator>
     <cc:Agent>
      <dc:title>Matplotlib v3.10.8, https://matplotlib.org/</dc:title>
     </cc:Agent>
    </dc:creator>
   </cc:Work>
  </rdf:RDF>
 </metadata>
 <defs>
  <style type="text/css">*{stroke-linejoin: round; stroke-linecap: butt}</style>
 </defs>
 <g id="figure_1">
  <g id="patch_1">
   <path d="M 0 504 
L 864 504 
L 864 0 
L 0 0 
z
" style="fill: #ffffff"/>
  </g>
  <g id="axes_1">
   <g id="patch_2">
    <path d="M 49.55625 456.60375 
L 691.82 456.60375 
L 691.82 29.04 
L 49.55625 29.04 
z
" style="fill: #ffffff"/>
   </g>
   <g id="matplotlib.axis_1">
    <g id="xtick_1">
     <g id="text_1">
      <!-- 5 -->
      <g style="fill: #262626" transform="translate(100.019714 473.977344) scale(0.11 -0.11)">
       <defs>
        <path id="ArialMT-35" d="M 266 1200 
L 856 1250 
Q 922 819 1161 601 
Q 1400 384 1738 384 
Q 2144 384 2425 690 
Q 2706 997 2706 1503 
Q 2706 1984 2436 2262 
Q 2166 2541 1728 2541 
Q 1456 2541 1237 2417 
Q 1019 2294 894 2097 
L 366 2166 
L 809 4519 
L 3088 4519 
L 3088 3981 
L 1259 3981 
L 1013 2750 
Q 1425 3038 1878 3038 
Q 2478 3038 2890 2622 
Q 3303 2206 3303 1553 
Q 3303 931 2941 478 
Q 2500 -78 1738 -78 
Q 1113 -78 717 272 
Q 322 622 266 1200 
z
" transform="scale(0.015625)"/>
       </defs>
       <use xlink:href="#ArialMT-35"/>
      </g>
     </g>
    </g>
    <g id="xtick_2">
     <g id="text_2">
      <!-- 10 -->
      <g style="fill: #262626" transform="translate(204.005156 473.977344) scale(0.11 -0.11)">
       <defs>
        <path id="ArialMT-31" d="M 2384 0 
L 1822 0 
L 1822 3584 
Q 1619 3391 1289 3197 
Q 959 3003 697 2906 
L 697 3450 
Q 1169 3672 1522 3987 
Q 1875 4303 2022 4600 
L 2384 4600 
L 2384 0 
z
" transform="scale(0.015625)"/>
        <path id="ArialMT-30" d="M 266 2259 
Q 266 3072 433 3567 
Q 600 4063 929 4331 
Q 1259 4600 1759 4600 
Q 2128 4600 2406 4451 
Q 2684 4303 2865 4023 
Q 3047 3744 3150 3342 
Q 3253 2941 3253 2259 
Q 3253 1453 3087 958 
Q 2922 463 2592 192 
Q 2263 -78 1759 -78 
Q 1097 -78 719 397 
Q 266 969 266 2259 
z
M 844 2259 
Q 844 1131 1108 757 
Q 1372 384 1759 384 
Q 2147 384 2411 759 
Q 2675 1134 2675 2259 
Q 2675 3391 2411 3762 
Q 2147 4134 1753 4134 
Q 1366 4134 1134 3806 
Q 844 3388 844 2259 
z
" transform="scale(0.015625)"/>
       </defs>
       <use xlink:href="#ArialMT-31"/>
       <use xlink:href="#ArialMT-30" transform="translate(55.615234 0)"/>
      </g>
     </g>
    </g>
    <g id="xtick_3">
     <g id="text_3">
      <!-- 15 -->
      <g style="fill: #262626" transform="translate(311.049115 473.977344) scale(0.11 -0.11)">
       <use xlink:href="#ArialMT-31"/>
       <use xlink:href="#ArialMT-35" transform="translate(55.615234 0)"/>
      </g>
     </g>
    </g>
    <g id="xtick_4">
     <g id="text_4">
      <!-- 20 -->
      <g style="fill: #262626" transform="translate(418.093073 473.977344) scale(0.11 -0.11)">
       <defs>
        <path id="ArialMT-32" d="M 3222 541 
L 3222 0 
L 194 0 
Q 188 203 259 391 
Q 375 700 629 1000 
Q 884 1300 1366 1694 
Q 2113 2306 2375 2664 
Q 2638 3022 2638 3341 
Q 2638 3675 2398 3904 
Q 2159 4134 1775 4134 
Q 1369 4134 1125 3890 
Q 881 3647 878 3216 
L 300 3275 
Q 359 3922 746 4261 
Q 1134 4600 1788 4600 
Q 2447 4600 2831 4234 
Q 3216 3869 3216 3328 
Q 3216 3053 3103 2787 
Q 2991 2522 2730 2228 
Q 2469 1934 1863 1422 
Q 1356 997 1212 845 
Q 1069 694 975 541 
L 3222 541 
z
" transform="scale(0.015625)"/>
       </defs>
       <use xlink:href="#ArialMT-32"/>
       <use xlink:href="#ArialMT-30" transform="translate(55.615234 0)"/>
      </g>
     </g>
    </g>
    <g id="xtick_5">
     <g id="text_5">
      <!-- 25 -->
      <g style="fill: #262626" transform="translate(525.137031 473.977344) scale(0.11 -0.11)">
       <use xlink:href="#ArialMT-32"/>
       <use xlink:href="#ArialMT-35" transform="translate(55.615234 0)"/>
      </g>
     </g>
    </g>
    <g id="xtick_6">
     <g id="text_6">
      <!-- 30 -->
      <g style="fill: #262626" transform="translate(632.18099 473.977344) scale(0.11 -0.11)">
       <defs>
        <path id="ArialMT-33" d="M 269 1209 
L 831 1284 
Q 928 806 1161 595 
Q 1394 384 1728 384 
Q 2125 384 2398 659 
Q 2672 934 2672 1341 
Q 2672 1728 2419 1979 
Q 2166 2231 1775 2231 
Q 1616 2231 1378 2169 
L 1441 2663 
Q 1497 2656 1531 2656 
Q 1891 2656 2178 2843 
Q 2466 3031 2466 3422 
Q 2466 3731 2256 3934 
Q 2047 4138 1716 4138 
Q 1388 4138 1169 3931 
Q 950 3725 888 3313 
L 325 3413 
Q 428 3978 793 4289 
Q 1159 4600 1703 4600 
Q 2078 4600 2393 4439 
Q 2709 4278 2876 4000 
Q 3044 3722 3044 3409 
Q 3044 3113 2884 2869 
Q 2725 2625 2413 2481 
Q 2819 2388 3044 2092 
Q 3269 1797 3269 1353 
Q 3269 753 2831 336 
Q 2394 -81 1725 -81 
Q 1122 -81 723 278 
Q 325 638 269 1209 
z
" transform="scale(0.015625)"/>
       </defs>
       <use xlink:href="#ArialMT-33"/>
       <use xlink:href="#ArialMT-30" transform="translate(55.615234 0)"/>
      </g>
     </g>
    </g>
    <g id="text_7">
     <!-- Vector Size (N) -->
     <g style="fill: #262626" transform="translate(330.34375 488.899219) scale(0.12 -0.12)">
      <defs>
       <path id="ArialMT-56" d="M 1803 0 
L 28 4581 
L 684 4581 
L 1875 1253 
Q 2019 853 2116 503 
Q 2222 878 2363 1253 
L 3600 4581 
L 4219 4581 
L 2425 0 
L 1803 0 
z
" transform="scale(0.015625)"/>
       <path id="ArialMT-65" d="M 2694 1069 
L 3275 997 
Q 3138 488 2766 206 
Q 2394 -75 1816 -75 
Q 1088 -75 661 373 
Q 234 822 234 1631 
Q 234 2469 665 2931 
Q 1097 3394 1784 3394 
Q 2450 3394 2872 2941 
Q 3294 2488 3294 1666 
Q 3294 1616 3291 1516 
L 816 1516 
Q 847 969 1125 678 
Q 1403 388 1819 388 
Q 2128 388 2347 550 
Q 2566 713 2694 1069 
z
M 847 1978 
L 2700 1978 
Q 2663 2397 2488 2606 
Q 2219 2931 1791 2931 
Q 1403 2931 1139 2672 
Q 875 2413 847 1978 
z
" transform="scale(0.015625)"/>
       <path id="ArialMT-63" d="M 2588 1216 
L 3141 1144 
Q 3050 572 2676 248 
Q 2303 -75 1759 -75 
Q 1078 -75 664 370 
Q 250 816 250 1647 
Q 250 2184 428 2587 
Q 606 2991 970 3192 
Q 1334 3394 1763 3394 
Q 2303 3394 2647 3120 
Q 2991 2847 3088 2344 
L 2541 2259 
Q 2463 2594 2264 2762 
Q 2066 2931 1784 2931 
Q 1359 2931 1093 2626 
Q 828 2322 828 1663 
Q 828 994 1084 691 
Q 1341 388 1753 388 
Q 2084 388 2306 591 
Q 2528 794 2588 1216 
z
" transform="scale(0.015625)"/>
       <path id="ArialMT-74" d="M 1650 503 
L 1731 6 
Q 1494 -44 1306 -44 
Q 1000 -44 831 53 
Q 663 150 594 308 
Q 525 466 525 972 
L 525 2881 
L 113 2881 
L 113 3319 
L 525 3319 
L 525 4141 
L 1084 4478 
L 1084 3319 
L 1650 3319 
L 1650 2881 
L 1084 2881 
L 1084 941 
Q 1084 700 1114 631 
Q 1144 563 1211 522 
Q 1278 481 1403 481 
Q 1497 481 1650 503 
z
" transform="scale(0.015625)"/>
       <path id="ArialMT-6f" d="M 213 1659 
Q 213 2581 725 3025 
Q 1153 3394 1769 3394 
Q 2453 3394 2887 2945 
Q 3322 2497 3322 1706 
Q 3322 1066 3130 698 
Q 2938 331 2570 128 
Q 2203 -75 1769 -75 
Q 1072 -75 642 372 
Q 213 819 213 1659 
z
M 791 1659 
Q 791 1022 1069 705 
Q 1347 388 1769 388 
Q 2188 388 2466 706 
Q 2744 1025 2744 1678 
Q 2744 2294 2464 2611 
Q 2184 2928 1769 2928 
Q 1347 2928 1069 2612 
Q 791 2297 791 1659 
z
" transform="scale(0.015625)"/>
       <path id="ArialMT-72" d="M 416 0 
L 416 3319 
L 922 3319 
L 922 2816 
Q 1116 3169 1280 3281 
Q 1444 3394 1641 3394 
Q 1925 3394 2219 3213 
L 2025 2691 
Q 1819 2813 1613 2813 
Q 1428 2813 1281 2702 
Q 1134 2591 1072 2394 
Q 978 2094 978 1738 
L 978 0 
L 416 0 
z
" transform="scale(0.015625)"/>
       <path id="ArialMT-20" transform="scale(0.015625)"/>
       <path id="ArialMT-53" d="M 288 1472 
L 859 1522 
Q 900 1178 1048 958 
Q 1197 738 1509 602 
Q 1822 466 2213 466 
Q 2559 466 2825 569 
Q 3091 672 3220 851 
Q 3350 1031 3350 1244 
Q 3350 1459 3225 1620 
Q 3100 1781 2813 1891 
Q 2628 1963 1997 2114 
Q 1366 2266 1113 2400 
Q 784 2572 623 2826 
Q 463 3081 463 3397 
Q 463 3744 659 4045 
Q 856 4347 1234 4503 
Q 1613 4659 2075 4659 
Q 2584 4659 2973 4495 
Q 3363 4331 3572 4012 
Q 3781 3694 3797 3291 
L 3216 3247 
Q 3169 3681 2898 3903 
Q 2628 4125 2100 4125 
Q 1550 4125 1298 3923 
Q 1047 3722 1047 3438 
Q 1047 3191 1225 3031 
Q 1400 2872 2139 2705 
Q 2878 2538 3153 2413 
Q 3553 2228 3743 1945 
Q 3934 1663 3934 1294 
Q 3934 928 3725 604 
Q 3516 281 3123 101 
Q 2731 -78 2241 -78 
Q 1619 -78 1198 103 
Q 778 284 539 648 
Q 300 1013 288 1472 
z
" transform="scale(0.015625)"/>
       <path id="ArialMT-69" d="M 425 3934 
L 425 4581 
L 988 4581 
L 988 3934 
L 425 3934 
z
M 425 0 
L 425 3319 
L 988 3319 
L 988 0 
L 425 0 
z
" transform="scale(0.015625)"/>
       <path id="ArialMT-7a" d="M 125 0 
L 125 456 
L 2238 2881 
Q 1878 2863 1603 2863 
L 250 2863 
L 250 3319 
L 2963 3319 
L 2963 2947 
L 1166 841 
L 819 456 
Q 1197 484 1528 484 
L 3063 484 
L 3063 0 
L 125 0 
z
" transform="scale(0.015625)"/>
       <path id="ArialMT-28" d="M 1497 -1347 
Q 1031 -759 709 28 
Q 388 816 388 1659 
Q 388 2403 628 3084 
Q 909 3875 1497 4659 
L 1900 4659 
Q 1522 4009 1400 3731 
Q 1209 3300 1100 2831 
Q 966 2247 966 1656 
Q 966 153 1900 -1347 
L 1497 -1347 
z
" transform="scale(0.015625)"/>
       <path id="ArialMT-4e" d="M 488 0 
L 488 4581 
L 1109 4581 
L 3516 984 
L 3516 4581 
L 4097 4581 
L 4097 0 
L 3475 0 
L 1069 3600 
L 1069 0 
L 488 0 
z
" transform="scale(0.015625)"/>
       <path id="ArialMT-29" d="M 791 -1347 
L 388 -1347 
Q 1322 153 1322 1656 
Q 1322 2244 1188 2822 
Q 1081 3291 891 3722 
Q 769 4003 388 4659 
L 791 4659 
Q 1378 3875 1659 3084 
Q 1900 2403 1900 1659 
Q 1900 816 1576 28 
Q 1253 -759 791 -1347 
z
" transform="scale(0.015625)"/>
      </defs>
      <use xlink:href="#ArialMT-56"/>
      <use xlink:href="#ArialMT-65" transform="translate(61.199219 0)"/>
      <use xlink:href="#ArialMT-63" transform="translate(116.814453 0)"/>
      <use xlink:href="#ArialMT-74" transform="translate(166.814453 0)"/>
      <use xlink:href="#ArialMT-6f" transform="translate(194.597656 0)"/>
      <use xlink:href="#ArialMT-72" transform="translate(250.212891 0)"/>
      <use xlink:href="#ArialMT-20" transform="translate(283.513672 0)"/>
      <use xlink:href="#ArialMT-53" transform="translate(311.296875 0)"/>
      <use xlink:href="#ArialMT-69" transform="translate(377.996094 0)"/>
      <use xlink:href="#ArialMT-7a" transform="translate(400.212891 0)"/>
      <use xlink:href="#ArialMT-65" transform="translate(450.212891 0)"/>
      <use xlink:href="#ArialMT-20" transform="translate(505.828125 0)"/>
      <use xlink:href="#ArialMT-28" transform="translate(533.611328 0)"/>
      <use xlink:href="#ArialMT-4e" transform="translate(566.912109 0)"/>
      <use xlink:href="#ArialMT-29" transform="translate(639.128906 0)"/>
     </g>
    </g>
   </g>
   <g id="matplotlib.axis_2">
    <g id="ytick_1">
     <g id="line2d_1">
      <path d="M 49.55625 456.60375 
L 691.82 456.60375 
" clip-path="url(#p1ce2db4095)" style="fill: none; stroke: #cccccc; stroke-linecap: round"/>
     </g>
     <g id="text_8">
      <!-- 0 -->
      <g style="fill: #262626" transform="translate(33.939219 460.540547) scale(0.11 -0.11)">
       <use xlink:href="#ArialMT-30"/>
      </g>
     </g>
    </g>
    <g id="ytick_2">
     <g id="line2d_2">
      <path d="M 49.55625 378.864886 
L 691.82 378.864886 
" clip-path="url(#p1ce2db4095)" style="fill: none; stroke: #cccccc; stroke-linecap: round"/>
     </g>
     <g id="text_9">
      <!-- 2 -->
      <g style="fill: #262626" transform="translate(33.939219 382.801683) scale(0.11 -0.11)">
       <use xlink:href="#ArialMT-32"/>
      </g>
     </g>
    </g>
    <g id="ytick_3">
     <g id="line2d_3">
      <path d="M 49.55625 301.126023 
L 691.82 301.126023 
" clip-path="url(#p1ce2db4095)" style="fill: none; stroke: #cccccc; stroke-linecap: round"/>
     </g>
     <g id="text_10">
      <!-- 4 -->
      <g style="fill: #262626" transform="translate(33.939219 305.06282) scale(0.11 -0.11)">
       <defs>
        <path id="ArialMT-34" d="M 2069 0 
L 2069 1097 
L 81 1097 
L 81 1613 
L 2172 4581 
L 2631 4581 
L 2631 1613 
L 3250 1613 
L 3250 1097 
L 2631 1097 
L 2631 0 
L 2069 0 
z
M 2069 1613 
L 2069 3678 
L 634 1613 
L 2069 1613 
z
" transform="scale(0.015625)"/>
       </defs>
       <use xlink:href="#ArialMT-34"/>
      </g>
     </g>
    </g>
    <g id="ytick_4">
     <g id="line2d_4">
      <path d="M 49.55625 223.387159 
L 691.82 223.387159 
" clip-path="url(#p1ce2db4095)" style="fill: none; stroke: #cccccc; stroke-linecap: round"/>
     </g>
     <g id="text_11">
      <!-- 6 -->
      <g style="fill: #262626" transform="translate(33.939219 227.323956) scale(0.11 -0.11)">
       <defs>
        <path id="ArialMT-36" d="M 3184 3459 
L 2625 3416 
Q 2550 3747 2413 3897 
Q 2184 4138 1850 4138 
Q 1581 4138 1378 3988 
Q 1113 3794 959 3422 
Q 806 3050 800 2363 
Q 1003 2672 1297 2822 
Q 1591 2972 1913 2972 
Q 2475 2972 2870 2558 
Q 3266 2144 3266 1488 
Q 3266 1056 3080 686 
Q 2894 316 2569 119 
Q 2244 -78 1831 -78 
Q 1128 -78 684 439 
Q 241 956 241 2144 
Q 241 3472 731 4075 
Q 1159 4600 1884 4600 
Q 2425 4600 2770 4297 
Q 3116 3994 3184 3459 
z
M 888 1484 
Q 888 1194 1011 928 
Q 1134 663 1356 523 
Q 1578 384 1822 384 
Q 2178 384 2434 671 
Q 2691 959 2691 1453 
Q 2691 1928 2437 2201 
Q 2184 2475 1800 2475 
Q 1419 2475 1153 2201 
Q 888 1928 888 1484 
z
" transform="scale(0.015625)"/>
       </defs>
       <use xlink:href="#ArialMT-36"/>
      </g>
     </g>
    </g>
    <g id="ytick_5">
     <g id="line2d_5">
      <path d="M 49.55625 145.648295 
L 691.82 145.648295 
" clip-path="url(#p1ce2db4095)" style="fill: none; stroke: #cccccc; stroke-linecap: round"/>
     </g>
     <g id="text_12">
      <!-- 8 -->
      <g style="fill: #262626" transform="translate(33.939219 149.585092) scale(0.11 -0.11)">
       <defs>
        <path id="ArialMT-38" d="M 1131 2484 
Q 781 2613 612 2850 
Q 444 3088 444 3419 
Q 444 3919 803 4259 
Q 1163 4600 1759 4600 
Q 2359 4600 2725 4251 
Q 3091 3903 3091 3403 
Q 3091 3084 2923 2848 
Q 2756 2613 2416 2484 
Q 2838 2347 3058 2040 
Q 3278 1734 3278 1309 
Q 3278 722 2862 322 
Q 2447 -78 1769 -78 
Q 1091 -78 675 323 
Q 259 725 259 1325 
Q 259 1772 486 2073 
Q 713 2375 1131 2484 
z
M 1019 3438 
Q 1019 3113 1228 2906 
Q 1438 2700 1772 2700 
Q 2097 2700 2305 2904 
Q 2513 3109 2513 3406 
Q 2513 3716 2298 3927 
Q 2084 4138 1766 4138 
Q 1444 4138 1231 3931 
Q 1019 3725 1019 3438 
z
M 838 1322 
Q 838 1081 952 856 
Q 1066 631 1291 507 
Q 1516 384 1775 384 
Q 2178 384 2440 643 
Q 2703 903 2703 1303 
Q 2703 1709 2433 1975 
Q 2163 2241 1756 2241 
Q 1359 2241 1098 1978 
Q 838 1716 838 1322 
z
" transform="scale(0.015625)"/>
       </defs>
       <use xlink:href="#ArialMT-38"/>
      </g>
     </g>
    </g>
    <g id="ytick_6">
     <g id="line2d_6">
      <path d="M 49.55625 67.909432 
L 691.82 67.909432 
" clip-path="url(#p1ce2db4095)" style="fill: none; stroke: #cccccc; stroke-linecap: round"/>
     </g>
     <g id="text_13">
      <!-- 10 -->
      <g style="fill: #262626" transform="translate(27.822187 71.846229) scale(0.11 -0.11)">
       <use xlink:href="#ArialMT-31"/>
       <use xlink:href="#ArialMT-30" transform="translate(55.615234 0)"/>
      </g>
     </g>
    </g>
    <g id="text_14">
     <!-- Completed Instances -->
     <g style="fill: #262626" transform="translate(21.437187 299.1825) rotate(-90) scale(0.12 -0.12)">
      <defs>
       <path id="ArialMT-43" d="M 3763 1606 
L 4369 1453 
Q 4178 706 3683 314 
Q 3188 -78 2472 -78 
Q 1731 -78 1267 223 
Q 803 525 561 1097 
Q 319 1669 319 2325 
Q 319 3041 592 3573 
Q 866 4106 1370 4382 
Q 1875 4659 2481 4659 
Q 3169 4659 3637 4309 
Q 4106 3959 4291 3325 
L 3694 3184 
Q 3534 3684 3231 3912 
Q 2928 4141 2469 4141 
Q 1941 4141 1586 3887 
Q 1231 3634 1087 3207 
Q 944 2781 944 2328 
Q 944 1744 1114 1308 
Q 1284 872 1643 656 
Q 2003 441 2422 441 
Q 2931 441 3284 734 
Q 3638 1028 3763 1606 
z
" transform="scale(0.015625)"/>
       <path id="ArialMT-6d" d="M 422 0 
L 422 3319 
L 925 3319 
L 925 2853 
Q 1081 3097 1340 3245 
Q 1600 3394 1931 3394 
Q 2300 3394 2536 3241 
Q 2772 3088 2869 2813 
Q 3263 3394 3894 3394 
Q 4388 3394 4653 3120 
Q 4919 2847 4919 2278 
L 4919 0 
L 4359 0 
L 4359 2091 
Q 4359 2428 4304 2576 
Q 4250 2725 4106 2815 
Q 3963 2906 3769 2906 
Q 3419 2906 3187 2673 
Q 2956 2441 2956 1928 
L 2956 0 
L 2394 0 
L 2394 2156 
Q 2394 2531 2256 2718 
Q 2119 2906 1806 2906 
Q 1569 2906 1367 2781 
Q 1166 2656 1075 2415 
Q 984 2175 984 1722 
L 984 0 
L 422 0 
z
" transform="scale(0.015625)"/>
       <path id="ArialMT-70" d="M 422 -1272 
L 422 3319 
L 934 3319 
L 934 2888 
Q 1116 3141 1344 3267 
Q 1572 3394 1897 3394 
Q 2322 3394 2647 3175 
Q 2972 2956 3137 2557 
Q 3303 2159 3303 1684 
Q 3303 1175 3120 767 
Q 2938 359 2589 142 
Q 2241 -75 1856 -75 
Q 1575 -75 1351 44 
Q 1128 163 984 344 
L 984 -1272 
L 422 -1272 
z
M 931 1641 
Q 931 1000 1190 694 
Q 1450 388 1819 388 
Q 2194 388 2461 705 
Q 2728 1022 2728 1688 
Q 2728 2322 2467 2637 
Q 2206 2953 1844 2953 
Q 1484 2953 1207 2617 
Q 931 2281 931 1641 
z
" transform="scale(0.015625)"/>
       <path id="ArialMT-6c" d="M 409 0 
L 409 4581 
L 972 4581 
L 972 0 
L 409 0 
z
" transform="scale(0.015625)"/>
       <path id="ArialMT-64" d="M 2575 0 
L 2575 419 
Q 2259 -75 1647 -75 
Q 1250 -75 917 144 
Q 584 363 401 755 
Q 219 1147 219 1656 
Q 219 2153 384 2558 
Q 550 2963 881 3178 
Q 1213 3394 1622 3394 
Q 1922 3394 2156 3267 
Q 2391 3141 2538 2938 
L 2538 4581 
L 3097 4581 
L 3097 0 
L 2575 0 
z
M 797 1656 
Q 797 1019 1065 703 
Q 1334 388 1700 388 
Q 2069 388 2326 689 
Q 2584 991 2584 1609 
Q 2584 2291 2321 2609 
Q 2059 2928 1675 2928 
Q 1300 2928 1048 2622 
Q 797 2316 797 1656 
z
" transform="scale(0.015625)"/>
       <path id="ArialMT-49" d="M 597 0 
L 597 4581 
L 1203 4581 
L 1203 0 
L 597 0 
z
" transform="scale(0.015625)"/>
       <path id="ArialMT-6e" d="M 422 0 
L 422 3319 
L 928 3319 
L 928 2847 
Q 1294 3394 1984 3394 
Q 2284 3394 2536 3286 
Q 2788 3178 2913 3003 
Q 3038 2828 3088 2588 
Q 3119 2431 3119 2041 
L 3119 0 
L 2556 0 
L 2556 2019 
Q 2556 2363 2490 2533 
Q 2425 2703 2258 2804 
Q 2091 2906 1866 2906 
Q 1506 2906 1245 2678 
Q 984 2450 984 1813 
L 984 0 
L 422 0 
z
" transform="scale(0.015625)"/>
       <path id="ArialMT-73" d="M 197 991 
L 753 1078 
Q 800 744 1014 566 
Q 1228 388 1613 388 
Q 2000 388 2187 545 
Q 2375 703 2375 916 
Q 2375 1106 2209 1216 
Q 2094 1291 1634 1406 
Q 1016 1563 777 1677 
Q 538 1791 414 1992 
Q 291 2194 291 2438 
Q 291 2659 392 2848 
Q 494 3038 669 3163 
Q 800 3259 1026 3326 
Q 1253 3394 1513 3394 
Q 1903 3394 2198 3281 
Q 2494 3169 2634 2976 
Q 2775 2784 2828 2463 
L 2278 2388 
Q 2241 2644 2061 2787 
Q 1881 2931 1553 2931 
Q 1166 2931 1000 2803 
Q 834 2675 834 2503 
Q 834 2394 903 2306 
Q 972 2216 1119 2156 
Q 1203 2125 1616 2013 
Q 2213 1853 2448 1751 
Q 2684 1650 2818 1456 
Q 2953 1263 2953 975 
Q 2953 694 2789 445 
Q 2625 197 2315 61 
Q 2006 -75 1616 -75 
Q 969 -75 630 194 
Q 291 463 197 991 
z
" transform="scale(0.015625)"/>
       <path id="ArialMT-61" d="M 2588 409 
Q 2275 144 1986 34 
Q 1697 -75 1366 -75 
Q 819 -75 525 192 
Q 231 459 231 875 
Q 231 1119 342 1320 
Q 453 1522 633 1644 
Q 813 1766 1038 1828 
Q 1203 1872 1538 1913 
Q 2219 1994 2541 2106 
Q 2544 2222 2544 2253 
Q 2544 2597 2384 2738 
Q 2169 2928 1744 2928 
Q 1347 2928 1158 2789 
Q 969 2650 878 2297 
L 328 2372 
Q 403 2725 575 2942 
Q 747 3159 1072 3276 
Q 1397 3394 1825 3394 
Q 2250 3394 2515 3294 
Q 2781 3194 2906 3042 
Q 3031 2891 3081 2659 
Q 3109 2516 3109 2141 
L 3109 1391 
Q 3109 606 3145 398 
Q 3181 191 3288 0 
L 2700 0 
Q 2613 175 2588 409 
z
M 2541 1666 
Q 2234 1541 1622 1453 
Q 1275 1403 1131 1340 
Q 988 1278 909 1158 
Q 831 1038 831 891 
Q 831 666 1001 516 
Q 1172 366 1500 366 
Q 1825 366 2078 508 
Q 2331 650 2450 897 
Q 2541 1088 2541 1459 
L 2541 1666 
z
" transform="scale(0.015625)"/>
      </defs>
      <use xlink:href="#ArialMT-43"/>
      <use xlink:href="#ArialMT-6f" transform="translate(72.216797 0)"/>
      <use xlink:href="#ArialMT-6d" transform="translate(127.832031 0)"/>
      <use xlink:href="#ArialMT-70" transform="translate(211.132812 0)"/>
      <use xlink:href="#ArialMT-6c" transform="translate(266.748047 0)"/>
      <use xlink:href="#ArialMT-65" transform="translate(288.964844 0)"/>
      <use xlink:href="#ArialMT-74" transform="translate(344.580078 0)"/>
      <use xlink:href="#ArialMT-65" transform="translate(372.363281 0)"/>
      <use xlink:href="#ArialMT-64" transform="translate(427.978516 0)"/>
      <use xlink:href="#ArialMT-20" transform="translate(483.59375 0)"/>
      <use xlink:href="#ArialMT-49" transform="translate(511.376953 0)"/>
      <use xlink:href="#ArialMT-6e" transform="translate(539.160156 0)"/>
      <use xlink:href="#ArialMT-73" transform="translate(594.775391 0)"/>
      <use xlink:href="#ArialMT-74" transform="translate(644.775391 0)"/>
      <use xlink:href="#ArialMT-61" transform="translate(672.558594 0)"/>
      <use xlink:href="#ArialMT-6e" transform="translate(728.173828 0)"/>
      <use xlink:href="#ArialMT-63" transform="translate(783.789062 0)"/>
      <use xlink:href="#ArialMT-65" transform="translate(833.789062 0)"/>
      <use xlink:href="#ArialMT-73" transform="translate(889.404297 0)"/>
     </g>
    </g>
   </g>
   <g id="patch_3">
    <path d="M 60.260646 456.60375 
L 67.39691 456.60375 
L 67.39691 67.909432 
L 60.260646 67.909432 
z
" clip-path="url(#p1ce2db4095)" style="fill: #489eae; stroke: #ffffff; stroke-linejoin: miter"/>
   </g>
   <g id="patch_4">
    <path d="M 167.304604 456.60375 
L 174.440868 456.60375 
L 174.440868 67.909432 
L 167.304604 67.909432 
z
" clip-path="url(#p1ce2db4095)" style="fill: #489eae; stroke: #ffffff; stroke-linejoin: miter"/>
   </g>
   <g id="patch_5">
    <path d="M 274.348562 456.60375 
L 281.484826 456.60375 
L 281.484826 106.778864 
L 274.348562 106.778864 
z
" clip-path="url(#p1ce2db4095)" style="fill: #489eae; stroke: #ffffff; stroke-linejoin: miter"/>
   </g>
   <g id="patch_6">
    <path d="M 67.39691 456.60375 
L 74.533174 456.60375 
L 74.533174 67.909432 
L 67.39691 67.909432 
z
" clip-path="url(#p1ce2db4095)" style="fill: #58a141; stroke: #ffffff; stroke-linejoin: miter"/>
   </g>
   <g id="patch_7">
    <path d="M 174.440868 456.60375 
L 181.577132 456.60375 
L 181.577132 67.909432 
L 174.440868 67.909432 
z
" clip-path="url(#p1ce2db4095)" style="fill: #58a141; stroke: #ffffff; stroke-linejoin: miter"/>
   </g>
   <g id="patch_8">
    <path d="M 281.484826 456.60375 
L 288.62109 456.60375 
L 288.62109 67.909432 
L 281.484826 67.909432 
z
" clip-path="url(#p1ce2db4095)" style="fill: #58a141; stroke: #ffffff; stroke-linejoin: miter"/>
   </g>
   <g id="patch_9">
    <path d="M 388.528785 456.60375 
L 395.665049 456.60375 
L 395.665049 106.778864 
L 388.528785 106.778864 
z
" clip-path="url(#p1ce2db4095)" style="fill: #58a141; stroke: #ffffff; stroke-linejoin: miter"/>
   </g>
   <g id="patch_10">
    <path d="M 495.572743 456.60375 
L 502.709007 456.60375 
L 502.709007 106.778864 
L 495.572743 106.778864 
z
" clip-path="url(#p1ce2db4095)" style="fill: #58a141; stroke: #ffffff; stroke-linejoin: miter"/>
   </g>
   <g id="patch_11">
    <path d="M 602.616701 456.60375 
L 609.752965 456.60375 
L 609.752965 262.256591 
L 602.616701 262.256591 
z
" clip-path="url(#p1ce2db4095)" style="fill: #58a141; stroke: #ffffff; stroke-linejoin: miter"/>
   </g>
   <g id="patch_12">
    <path d="M 74.533174 456.60375 
L 81.669437 456.60375 
L 81.669437 67.909432 
L 74.533174 67.909432 
z
" clip-path="url(#p1ce2db4095)" style="fill: #aa8f43; stroke: #ffffff; stroke-linejoin: miter"/>
   </g>
   <g id="patch_13">
    <path d="M 181.577132 456.60375 
L 188.713396 456.60375 
L 188.713396 67.909432 
L 181.577132 67.909432 
z
" clip-path="url(#p1ce2db4095)" style="fill: #aa8f43; stroke: #ffffff; stroke-linejoin: miter"/>
   </g>
   <g id="patch_14">
    <path d="M 288.62109 456.60375 
L 295.757354 456.60375 
L 295.757354 67.909432 
L 288.62109 67.909432 
z
" clip-path="url(#p1ce2db4095)" style="fill: #aa8f43; stroke: #ffffff; stroke-linejoin: miter"/>
   </g>
   <g id="patch_15">
    <path d="M 395.665049 456.60375 
L 402.801312 456.60375 
L 402.801312 67.909432 
L 395.665049 67.909432 
z
" clip-path="url(#p1ce2db4095)" style="fill: #aa8f43; stroke: #ffffff; stroke-linejoin: miter"/>
   </g>
   <g id="patch_16">
    <path d="M 502.709007 456.60375 
L 509.845271 456.60375 
L 509.845271 67.909432 
L 502.709007 67.909432 
z
" clip-path="url(#p1ce2db4095)" style="fill: #aa8f43; stroke: #ffffff; stroke-linejoin: miter"/>
   </g>
   <g id="patch_17">
    <path d="M 609.752965 456.60375 
L 616.889229 456.60375 
L 616.889229 67.909432 
L 609.752965 67.909432 
z
" clip-path="url(#p1ce2db4095)" style="fill: #aa8f43; stroke: #ffffff; stroke-linejoin: miter"/>
   </g>
   <g id="patch_18">
    <path d="M 81.669437 456.60375 
L 88.805701 456.60375 
L 88.805701 67.909432 
L 81.669437 67.909432 
z
" clip-path="url(#p1ce2db4095)" style="fill: #459e97; stroke: #ffffff; stroke-linejoin: miter"/>
   </g>
   <g id="patch_19">
    <path d="M 188.713396 456.60375 
L 195.84966 456.60375 
L 195.84966 67.909432 
L 188.713396 67.909432 
z
" clip-path="url(#p1ce2db4095)" style="fill: #459e97; stroke: #ffffff; stroke-linejoin: miter"/>
   </g>
   <g id="patch_20">
    <path d="M 295.757354 456.60375 
L 302.893618 456.60375 
L 302.893618 67.909432 
L 295.757354 67.909432 
z
" clip-path="url(#p1ce2db4095)" style="fill: #459e97; stroke: #ffffff; stroke-linejoin: miter"/>
   </g>
   <g id="patch_21">
    <path d="M 402.801312 456.60375 
L 409.937576 456.60375 
L 409.937576 67.909432 
L 402.801312 67.909432 
z
" clip-path="url(#p1ce2db4095)" style="fill: #459e97; stroke: #ffffff; stroke-linejoin: miter"/>
   </g>
   <g id="patch_22">
    <path d="M 509.845271 456.60375 
L 516.981535 456.60375 
L 516.981535 67.909432 
L 509.845271 67.909432 
z
" clip-path="url(#p1ce2db4095)" style="fill: #459e97; stroke: #ffffff; stroke-linejoin: miter"/>
   </g>
   <g id="patch_23">
    <path d="M 616.889229 456.60375 
L 624.025493 456.60375 
L 624.025493 67.909432 
L 616.889229 67.909432 
z
" clip-path="url(#p1ce2db4095)" style="fill: #459e97; stroke: #ffffff; stroke-linejoin: miter"/>
   </g>
   <g id="patch_24">
    <path d="M 88.805701 456.60375 
L 95.941965 456.60375 
L 95.941965 67.909432 
L 88.805701 67.909432 
z
" clip-path="url(#p1ce2db4095)" style="fill: #d08549; stroke: #ffffff; stroke-linejoin: miter"/>
   </g>
   <g id="patch_25">
    <path d="M 195.84966 456.60375 
L 202.985924 456.60375 
L 202.985924 67.909432 
L 195.84966 67.909432 
z
" clip-path="url(#p1ce2db4095)" style="fill: #d08549; stroke: #ffffff; stroke-linejoin: miter"/>
   </g>
   <g id="patch_26">
    <path d="M 302.893618 456.60375 
L 310.029882 456.60375 
L 310.029882 67.909432 
L 302.893618 67.909432 
z
" clip-path="url(#p1ce2db4095)" style="fill: #d08549; stroke: #ffffff; stroke-linejoin: miter"/>
   </g>
   <g id="patch_27">
    <path d="M 409.937576 456.60375 
L 417.07384 456.60375 
L 417.07384 67.909432 
L 409.937576 67.909432 
z
" clip-path="url(#p1ce2db4095)" style="fill: #d08549; stroke: #ffffff; stroke-linejoin: miter"/>
   </g>
   <g id="patch_28">
    <path d="M 516.981535 456.60375 
L 524.117799 456.60375 
L 524.117799 67.909432 
L 516.981535 67.909432 
z
" clip-path="url(#p1ce2db4095)" style="fill: #d08549; stroke: #ffffff; stroke-linejoin: miter"/>
   </g>
   <g id="patch_29">
    <path d="M 624.025493 456.60375 
L 631.161757 456.60375 
L 631.161757 67.909432 
L 624.025493 67.909432 
z
" clip-path="url(#p1ce2db4095)" style="fill: #d08549; stroke: #ffffff; stroke-linejoin: miter"/>
   </g>
   <g id="patch_30">
    <path d="M 95.941965 456.60375 
L 103.078229 456.60375 
L 103.078229 67.909432 
L 95.941965 67.909432 
z
" clip-path="url(#p1ce2db4095)" style="fill: #d978e2; stroke: #ffffff; stroke-linejoin: miter"/>
   </g>
   <g id="patch_31">
    <path d="M 202.985924 456.60375 
L 210.122187 456.60375 
L 210.122187 67.909432 
L 202.985924 67.909432 
z
" clip-path="url(#p1ce2db4095)" style="fill: #d978e2; stroke: #ffffff; stroke-linejoin: miter"/>
   </g>
   <g id="patch_32">
    <path d="M 310.029882 456.60375 
L 317.166146 456.60375 
L 317.166146 67.909432 
L 310.029882 67.909432 
z
" clip-path="url(#p1ce2db4095)" style="fill: #d978e2; stroke: #ffffff; stroke-linejoin: miter"/>
   </g>
   <g id="patch_33">
    <path d="M 417.07384 456.60375 
L 424.210104 456.60375 
L 424.210104 67.909432 
L 417.07384 67.909432 
z
" clip-path="url(#p1ce2db4095)" style="fill: #d978e2; stroke: #ffffff; stroke-linejoin: miter"/>
   </g>
   <g id="patch_34">
    <path d="M 524.117799 456.60375 
L 531.254062 456.60375 
L 531.254062 67.909432 
L 524.117799 67.909432 
z
" clip-path="url(#p1ce2db4095)" style="fill: #d978e2; stroke: #ffffff; stroke-linejoin: miter"/>
   </g>
   <g id="patch_35">
    <path d="M 631.161757 456.60375 
L 638.298021 456.60375 
L 638.298021 67.909432 
L 631.161757 67.909432 
z
" clip-path="url(#p1ce2db4095)" style="fill: #d978e2; stroke: #ffffff; stroke-linejoin: miter"/>
   </g>
   <g id="patch_36">
    <path d="M 103.078229 456.60375 
L 110.214493 456.60375 
L 110.214493 67.909432 
L 103.078229 67.909432 
z
" clip-path="url(#p1ce2db4095)" style="fill: #e479bd; stroke: #ffffff; stroke-linejoin: miter"/>
   </g>
   <g id="patch_37">
    <path d="M 210.122187 456.60375 
L 217.258451 456.60375 
L 217.258451 67.909432 
L 210.122187 67.909432 
z
" clip-path="url(#p1ce2db4095)" style="fill: #e479bd; stroke: #ffffff; stroke-linejoin: miter"/>
   </g>
   <g id="patch_38">
    <path d="M 317.166146 456.60375 
L 324.30241 456.60375 
L 324.30241 67.909432 
L 317.166146 67.909432 
z
" clip-path="url(#p1ce2db4095)" style="fill: #e479bd; stroke: #ffffff; stroke-linejoin: miter"/>
   </g>
   <g id="patch_39">
    <path d="M 424.210104 456.60375 
L 431.346368 456.60375 
L 431.346368 67.909432 
L 424.210104 67.909432 
z
" clip-path="url(#p1ce2db4095)" style="fill: #e479bd; stroke: #ffffff; stroke-linejoin: miter"/>
   </g>
   <g id="patch_40">
    <path d="M 531.254062 456.60375 
L 538.390326 456.60375 
L 538.390326 106.778864 
L 531.254062 106.778864 
z
" clip-path="url(#p1ce2db4095)" style="fill: #e479bd; stroke: #ffffff; stroke-linejoin: miter"/>
   </g>
   <g id="patch_41">
    <path d="M 638.298021 456.60375 
L 645.434285 456.60375 
L 645.434285 145.648295 
L 638.298021 145.648295 
z
" clip-path="url(#p1ce2db4095)" style="fill: #e479bd; stroke: #ffffff; stroke-linejoin: miter"/>
   </g>
   <g id="patch_42">
    <path d="M 110.214493 456.60375 
L 117.350757 456.60375 
L 117.350757 67.909432 
L 110.214493 67.909432 
z
" clip-path="url(#p1ce2db4095)" style="fill: #ab99e7; stroke: #ffffff; stroke-linejoin: miter"/>
   </g>
   <g id="patch_43">
    <path d="M 217.258451 456.60375 
L 224.394715 456.60375 
L 224.394715 67.909432 
L 217.258451 67.909432 
z
" clip-path="url(#p1ce2db4095)" style="fill: #ab99e7; stroke: #ffffff; stroke-linejoin: miter"/>
   </g>
   <g id="patch_44">
    <path d="M 324.30241 456.60375 
L 331.438674 456.60375 
L 331.438674 67.909432 
L 324.30241 67.909432 
z
" clip-path="url(#p1ce2db4095)" style="fill: #ab99e7; stroke: #ffffff; stroke-linejoin: miter"/>
   </g>
   <g id="patch_45">
    <path d="M 431.346368 456.60375 
L 438.482632 456.60375 
L 438.482632 67.909432 
L 431.346368 67.909432 
z
" clip-path="url(#p1ce2db4095)" style="fill: #ab99e7; stroke: #ffffff; stroke-linejoin: miter"/>
   </g>
   <g id="patch_46">
    <path d="M 538.390326 456.60375 
L 545.52659 456.60375 
L 545.52659 67.909432 
L 538.390326 67.909432 
z
" clip-path="url(#p1ce2db4095)" style="fill: #ab99e7; stroke: #ffffff; stroke-linejoin: miter"/>
   </g>
   <g id="patch_47">
    <path d="M 645.434285 456.60375 
L 652.570549 456.60375 
L 652.570549 106.778864 
L 645.434285 106.778864 
z
" clip-path="url(#p1ce2db4095)" style="fill: #ab99e7; stroke: #ffffff; stroke-linejoin: miter"/>
   </g>
   <g id="patch_48">
    <path d="M 117.350757 456.60375 
L 124.487021 456.60375 
L 124.487021 67.909432 
L 117.350757 67.909432 
z
" clip-path="url(#p1ce2db4095)" style="fill: #8c9540; stroke: #ffffff; stroke-linejoin: miter"/>
   </g>
   <g id="patch_49">
    <path d="M 224.394715 456.60375 
L 231.530979 456.60375 
L 231.530979 67.909432 
L 224.394715 67.909432 
z
" clip-path="url(#p1ce2db4095)" style="fill: #8c9540; stroke: #ffffff; stroke-linejoin: miter"/>
   </g>
   <g id="patch_50">
    <path d="M 331.438674 456.60375 
L 338.574937 456.60375 
L 338.574937 67.909432 
L 331.438674 67.909432 
z
" clip-path="url(#p1ce2db4095)" style="fill: #8c9540; stroke: #ffffff; stroke-linejoin: miter"/>
   </g>
   <g id="patch_51">
    <path d="M 438.482632 456.60375 
L 445.618896 456.60375 
L 445.618896 67.909432 
L 438.482632 67.909432 
z
" clip-path="url(#p1ce2db4095)" style="fill: #8c9540; stroke: #ffffff; stroke-linejoin: miter"/>
   </g>
   <g id="patch_52">
    <path d="M 545.52659 456.60375 
L 552.662854 456.60375 
L 552.662854 67.909432 
L 545.52659 67.909432 
z
" clip-path="url(#p1ce2db4095)" style="fill: #8c9540; stroke: #ffffff; stroke-linejoin: miter"/>
   </g>
   <g id="patch_53">
    <path d="M 652.570549 456.60375 
L 659.706812 456.60375 
L 659.706812 67.909432 
L 652.570549 67.909432 
z
" clip-path="url(#p1ce2db4095)" style="fill: #8c9540; stroke: #ffffff; stroke-linejoin: miter"/>
   </g>
   <g id="patch_54">
    <path d="M 124.487021 456.60375 
L 131.623285 456.60375 
L 131.623285 67.909432 
L 124.487021 67.909432 
z
" clip-path="url(#p1ce2db4095)" style="fill: #43a07f; stroke: #ffffff; stroke-linejoin: miter"/>
   </g>
   <g id="patch_55">
    <path d="M 231.530979 456.60375 
L 238.667243 456.60375 
L 238.667243 67.909432 
L 231.530979 67.909432 
z
" clip-path="url(#p1ce2db4095)" style="fill: #43a07f; stroke: #ffffff; stroke-linejoin: miter"/>
   </g>
   <g id="patch_56">
    <path d="M 338.574937 456.60375 
L 345.711201 456.60375 
L 345.711201 184.517727 
L 338.574937 184.517727 
z
" clip-path="url(#p1ce2db4095)" style="fill: #43a07f; stroke: #ffffff; stroke-linejoin: miter"/>
   </g>
   <g id="patch_57">
    <path d="M 131.623285 456.60375 
L 138.759549 456.60375 
L 138.759549 67.909432 
L 131.623285 67.909432 
z
" clip-path="url(#p1ce2db4095)" style="fill: #529fd6; stroke: #ffffff; stroke-linejoin: miter"/>
   </g>
   <g id="patch_58">
    <path d="M 238.667243 456.60375 
L 245.803507 456.60375 
L 245.803507 67.909432 
L 238.667243 67.909432 
z
" clip-path="url(#p1ce2db4095)" style="fill: #529fd6; stroke: #ffffff; stroke-linejoin: miter"/>
   </g>
   <g id="patch_59">
    <path d="M 345.711201 456.60375 
L 352.847465 456.60375 
L 352.847465 67.909432 
L 345.711201 67.909432 
z
" clip-path="url(#p1ce2db4095)" style="fill: #529fd6; stroke: #ffffff; stroke-linejoin: miter"/>
   </g>
   <g id="patch_60">
    <path d="M 452.75516 456.60375 
L 459.891424 456.60375 
L 459.891424 106.778864 
L 452.75516 106.778864 
z
" clip-path="url(#p1ce2db4095)" style="fill: #529fd6; stroke: #ffffff; stroke-linejoin: miter"/>
   </g>
   <g id="patch_61">
    <path d="M 559.799118 456.60375 
L 566.935382 456.60375 
L 566.935382 262.256591 
L 559.799118 262.256591 
z
" clip-path="url(#p1ce2db4095)" style="fill: #529fd6; stroke: #ffffff; stroke-linejoin: miter"/>
   </g>
   <g id="patch_62">
    <path d="M 666.843076 456.60375 
L 673.97934 456.60375 
L 673.97934 378.864886 
L 666.843076 378.864886 
z
" clip-path="url(#p1ce2db4095)" style="fill: #529fd6; stroke: #ffffff; stroke-linejoin: miter"/>
   </g>
   <g id="patch_63">
    <path d="M 138.759549 456.60375 
L 145.895812 456.60375 
L 145.895812 67.909432 
L 138.759549 67.909432 
z
" clip-path="url(#p1ce2db4095)" style="fill: #e68193; stroke: #ffffff; stroke-linejoin: miter"/>
   </g>
   <g id="patch_64">
    <path d="M 245.803507 456.60375 
L 252.939771 456.60375 
L 252.939771 67.909432 
L 245.803507 67.909432 
z
" clip-path="url(#p1ce2db4095)" style="fill: #e68193; stroke: #ffffff; stroke-linejoin: miter"/>
   </g>
   <g id="patch_65">
    <path d="M 352.847465 456.60375 
L 359.983729 456.60375 
L 359.983729 67.909432 
L 352.847465 67.909432 
z
" clip-path="url(#p1ce2db4095)" style="fill: #e68193; stroke: #ffffff; stroke-linejoin: miter"/>
   </g>
   <g id="patch_66">
    <path d="M 459.891424 456.60375 
L 467.027687 456.60375 
L 467.027687 67.909432 
L 459.891424 67.909432 
z
" clip-path="url(#p1ce2db4095)" style="fill: #e68193; stroke: #ffffff; stroke-linejoin: miter"/>
   </g>
   <g id="patch_67">
    <path d="M 566.935382 456.60375 
L 574.071646 456.60375 
L 574.071646 67.909432 
L 566.935382 67.909432 
z
" clip-path="url(#p1ce2db4095)" style="fill: #e68193; stroke: #ffffff; stroke-linejoin: miter"/>
   </g>
   <g id="patch_68">
    <path d="M 673.97934 456.60375 
L 681.115604 456.60375 
L 681.115604 67.909432 
L 673.97934 67.909432 
z
" clip-path="url(#p1ce2db4095)" style="fill: #e68193; stroke: #ffffff; stroke-linejoin: miter"/>
   </g>
   <g id="patch_69">
    <path d="M 103.078229 456.60375 
L 103.078229 456.60375 
L 103.078229 456.60375 
L 103.078229 456.60375 
z
" clip-path="url(#p1ce2db4095)" style="fill: #489eae; stroke: #ffffff; stroke-linejoin: miter"/>
   </g>
   <g id="patch_70">
    <path d="M 103.078229 456.60375 
L 103.078229 456.60375 
L 103.078229 456.60375 
L 103.078229 456.60375 
z
" clip-path="url(#p1ce2db4095)" style="fill: #58a141; stroke: #ffffff; stroke-linejoin: miter"/>
   </g>
   <g id="patch_71">
    <path d="M 103.078229 456.60375 
L 103.078229 456.60375 
L 103.078229 456.60375 
L 103.078229 456.60375 
z
" clip-path="url(#p1ce2db4095)" style="fill: #aa8f43; stroke: #ffffff; stroke-linejoin: miter"/>
   </g>
   <g id="patch_72">
    <path d="M 103.078229 456.60375 
L 103.078229 456.60375 
L 103.078229 456.60375 
L 103.078229 456.60375 
z
" clip-path="url(#p1ce2db4095)" style="fill: #459e97; stroke: #ffffff; stroke-linejoin: miter"/>
   </g>
   <g id="patch_73">
    <path d="M 103.078229 456.60375 
L 103.078229 456.60375 
L 103.078229 456.60375 
L 103.078229 456.60375 
z
" clip-path="url(#p1ce2db4095)" style="fill: #d08549; stroke: #ffffff; stroke-linejoin: miter"/>
   </g>
   <g id="patch_74">
    <path d="M 103.078229 456.60375 
L 103.078229 456.60375 
L 103.078229 456.60375 
L 103.078229 456.60375 
z
" clip-path="url(#p1ce2db4095)" style="fill: #d978e2; stroke: #ffffff; stroke-linejoin: miter"/>
   </g>
   <g id="patch_75">
    <path d="M 103.078229 456.60375 
L 103.078229 456.60375 
L 103.078229 456.60375 
L 103.078229 456.60375 
z
" clip-path="url(#p1ce2db4095)" style="fill: #e479bd; stroke: #ffffff; stroke-linejoin: miter"/>
   </g>
   <g id="patch_76">
    <path d="M 103.078229 456.60375 
L 103.078229 456.60375 
L 103.078229 456.60375 
L 103.078229 456.60375 
z
" clip-path="url(#p1ce2db4095)" style="fill: #ab99e7; stroke: #ffffff; stroke-linejoin: miter"/>
   </g>
   <g id="patch_77">
    <path d="M 103.078229 456.60375 
L 103.078229 456.60375 
L 103.078229 456.60375 
L 103.078229 456.60375 
z
" clip-path="url(#p1ce2db4095)" style="fill: #8c9540; stroke: #ffffff; stroke-linejoin: miter"/>
   </g>
   <g id="patch_78">
    <path d="M 103.078229 456.60375 
L 103.078229 456.60375 
L 103.078229 456.60375 
L 103.078229 456.60375 
z
" clip-path="url(#p1ce2db4095)" style="fill: #43a07f; stroke: #ffffff; stroke-linejoin: miter"/>
   </g>
   <g id="patch_79">
    <path d="M 103.078229 456.60375 
L 103.078229 456.60375 
L 103.078229 456.60375 
L 103.078229 456.60375 
z
" clip-path="url(#p1ce2db4095)" style="fill: #529fd6; stroke: #ffffff; stroke-linejoin: miter"/>
   </g>
   <g id="patch_80">
    <path d="M 103.078229 456.60375 
L 103.078229 456.60375 
L 103.078229 456.60375 
L 103.078229 456.60375 
z
" clip-path="url(#p1ce2db4095)" style="fill: #e68193; stroke: #ffffff; stroke-linejoin: miter"/>
   </g>
   <g id="line2d_7">
    <path clip-path="url(#p1ce2db4095)" style="fill: none; stroke: #424242; stroke-width: 2.25; stroke-linecap: round"/>
   </g>
   <g id="line2d_8">
    <path clip-path="url(#p1ce2db4095)" style="fill: none; stroke: #424242; stroke-width: 2.25; stroke-linecap: round"/>
   </g>
   <g id="line2d_9">
    <path clip-path="url(#p1ce2db4095)" style="fill: none; stroke: #424242; stroke-width: 2.25; stroke-linecap: round"/>
   </g>
   <g id="line2d_10">
    <path clip-path="url(#p1ce2db4095)" style="fill: none; stroke: #424242; stroke-width: 2.25; stroke-linecap: round"/>
   </g>
   <g id="line2d_11">
    <path clip-path="url(#p1ce2db4095)" style="fill: none; stroke: #424242; stroke-width: 2.25; stroke-linecap: round"/>
   </g>
   <g id="line2d_12">
    <path clip-path="url(#p1ce2db4095)" style="fill: none; stroke: #424242; stroke-width: 2.25; stroke-linecap: round"/>
   </g>
   <g id="line2d_13">
    <path clip-path="url(#p1ce2db4095)" style="fill: none; stroke: #424242; stroke-width: 2.25; stroke-linecap: round"/>
   </g>
   <g id="line2d_14">
    <path clip-path="url(#p1ce2db4095)" style="fill: none; stroke: #424242; stroke-width: 2.25; stroke-linecap: round"/>
   </g>
   <g id="line2d_15">
    <path clip-path="url(#p1ce2db4095)" style="fill: none; stroke: #424242; stroke-width: 2.25; stroke-linecap: round"/>
   </g>
   <g id="line2d_16">
    <path clip-path="url(#p1ce2db4095)" style="fill: none; stroke: #424242; stroke-width: 2.25; stroke-linecap: round"/>
   </g>
   <g id="line2d_17">
    <path clip-path="url(#p1ce2db4095)" style="fill: none; stroke: #424242; stroke-width: 2.25; stroke-linecap: round"/>
   </g>
   <g id="line2d_18">
    <path clip-path="url(#p1ce2db4095)" style="fill: none; stroke: #424242; stroke-width: 2.25; stroke-linecap: round"/>
   </g>
   <g id="line2d_19">
    <path clip-path="url(#p1ce2db4095)" style="fill: none; stroke: #424242; stroke-width: 2.25; stroke-linecap: round"/>
   </g>
   <g id="line2d_20">
    <path clip-path="url(#p1ce2db4095)" style="fill: none; stroke: #424242; stroke-width: 2.25; stroke-linecap: round"/>
   </g>
   <g id="line2d_21">
    <path clip-path="url(#p1ce2db4095)" style="fill: none; stroke: #424242; stroke-width: 2.25; stroke-linecap: round"/>
   </g>
   <g id="line2d_22">
    <path clip-path="url(#p1ce2db4095)" style="fill: none; stroke: #424242; stroke-width: 2.25; stroke-linecap: round"/>
   </g>
   <g id="line2d_23">
    <path clip-path="url(#p1ce2db4095)" style="fill: none; stroke: #424242; stroke-width: 2.25; stroke-linecap: round"/>
   </g>
   <g id="line2d_24">
    <path clip-path="url(#p1ce2db4095)" style="fill: none; stroke: #424242; stroke-width: 2.25; stroke-linecap: round"/>
   </g>
   <g id="line2d_25">
    <path clip-path="url(#p1ce2db4095)" style="fill: none; stroke: #424242; stroke-width: 2.25; stroke-linecap: round"/>
   </g>
   <g id="line2d_26">
    <path clip-path="url(#p1ce2db4095)" style="fill: none; stroke: #424242; stroke-width: 2.25; stroke-linecap: round"/>
   </g>
   <g id="line2d_27">
    <path clip-path="url(#p1ce2db4095)" style="fill: none; stroke: #424242; stroke-width: 2.25; stroke-linecap: round"/>
   </g>
   <g id="line2d_28">
    <path clip-path="url(#p1ce2db4095)" style="fill: none; stroke: #424242; stroke-width: 2.25; stroke-linecap: round"/>
   </g>
   <g id="line2d_29">
    <path clip-path="url(#p1ce2db4095)" style="fill: none; stroke: #424242; stroke-width: 2.25; stroke-linecap: round"/>
   </g>
   <g id="line2d_30">
    <path clip-path="url(#p1ce2db4095)" style="fill: none; stroke: #424242; stroke-width: 2.25; stroke-linecap: round"/>
   </g>
   <g id="line2d_31">
    <path clip-path="url(#p1ce2db4095)" style="fill: none; stroke: #424242; stroke-width: 2.25; stroke-linecap: round"/>
   </g>
   <g id="line2d_32">
    <path clip-path="url(#p1ce2db4095)" style="fill: none; stroke: #424242; stroke-width: 2.25; stroke-linecap: round"/>
   </g>
   <g id="line2d_33">
    <path clip-path="url(#p1ce2db4095)" style="fill: none; stroke: #424242; stroke-width: 2.25; stroke-linecap: round"/>
   </g>
   <g id="line2d_34">
    <path clip-path="url(#p1ce2db4095)" style="fill: none; stroke: #424242; stroke-width: 2.25; stroke-linecap: round"/>
   </g>
   <g id="line2d_35">
    <path clip-path="url(#p1ce2db4095)" style="fill: none; stroke: #424242; stroke-width: 2.25; stroke-linecap: round"/>
   </g>
   <g id="line2d_36">
    <path clip-path="url(#p1ce2db4095)" style="fill: none; stroke: #424242; stroke-width: 2.25; stroke-linecap: round"/>
   </g>
   <g id="line2d_37">
    <path clip-path="url(#p1ce2db4095)" style="fill: none; stroke: #424242; stroke-width: 2.25; stroke-linecap: round"/>
   </g>
   <g id="line2d_38">
    <path clip-path="url(#p1ce2db4095)" style="fill: none; stroke: #424242; stroke-width: 2.25; stroke-linecap: round"/>
   </g>
   <g id="line2d_39">
    <path clip-path="url(#p1ce2db4095)" style="fill: none; stroke: #424242; stroke-width: 2.25; stroke-linecap: round"/>
   </g>
   <g id="line2d_40">
    <path clip-path="url(#p1ce2db4095)" style="fill: none; stroke: #424242; stroke-width: 2.25; stroke-linecap: round"/>
   </g>
   <g id="line2d_41">
    <path clip-path="url(#p1ce2db4095)" style="fill: none; stroke: #424242; stroke-width: 2.25; stroke-linecap: round"/>
   </g>
   <g id="line2d_42">
    <path clip-path="url(#p1ce2db4095)" style="fill: none; stroke: #424242; stroke-width: 2.25; stroke-linecap: round"/>
   </g>
   <g id="line2d_43">
    <path clip-path="url(#p1ce2db4095)" style="fill: none; stroke: #424242; stroke-width: 2.25; stroke-linecap: round"/>
   </g>
   <g id="line2d_44">
    <path clip-path="url(#p1ce2db4095)" style="fill: none; stroke: #424242; stroke-width: 2.25; stroke-linecap: round"/>
   </g>
   <g id="line2d_45">
    <path clip-path="url(#p1ce2db4095)" style="fill: none; stroke: #424242; stroke-width: 2.25; stroke-linecap: round"/>
   </g>
   <g id="line2d_46">
    <path clip-path="url(#p1ce2db4095)" style="fill: none; stroke: #424242; stroke-width: 2.25; stroke-linecap: round"/>
   </g>
   <g id="line2d_47">
    <path clip-path="url(#p1ce2db4095)" style="fill: none; stroke: #424242; stroke-width: 2.25; stroke-linecap: round"/>
   </g>
   <g id="line2d_48">
    <path clip-path="url(#p1ce2db4095)" style="fill: none; stroke: #424242; stroke-width: 2.25; stroke-linecap: round"/>
   </g>
   <g id="line2d_49">
    <path clip-path="url(#p1ce2db4095)" style="fill: none; stroke: #424242; stroke-width: 2.25; stroke-linecap: round"/>
   </g>
   <g id="line2d_50">
    <path clip-path="url(#p1ce2db4095)" style="fill: none; stroke: #424242; stroke-width: 2.25; stroke-linecap: round"/>
   </g>
   <g id="line2d_51">
    <path clip-path="url(#p1ce2db4095)" style="fill: none; stroke: #424242; stroke-width: 2.25; stroke-linecap: round"/>
   </g>
   <g id="line2d_52">
    <path clip-path="url(#p1ce2db4095)" style="fill: none; stroke: #424242; stroke-width: 2.25; stroke-linecap: round"/>
   </g>
   <g id="line2d_53">
    <path clip-path="url(#p1ce2db4095)" style="fill: none; stroke: #424242; stroke-width: 2.25; stroke-linecap: round"/>
   </g>
   <g id="line2d_54">
    <path clip-path="url(#p1ce2db4095)" style="fill: none; stroke: #424242; stroke-width: 2.25; stroke-linecap: round"/>
   </g>
   <g id="line2d_55">
    <path clip-path="url(#p1ce2db4095)" style="fill: none; stroke: #424242; stroke-width: 2.25; stroke-linecap: round"/>
   </g>
   <g id="line2d_56">
    <path clip-path="url(#p1ce2db4095)" style="fill: none; stroke: #424242; stroke-width: 2.25; stroke-linecap: round"/>
   </g>
   <g id="line2d_57">
    <path clip-path="url(#p1ce2db4095)" style="fill: none; stroke: #424242; stroke-width: 2.25; stroke-linecap: round"/>
   </g>
   <g id="line2d_58">
    <path clip-path="url(#p1ce2db4095)" style="fill: none; stroke: #424242; stroke-width: 2.25; stroke-linecap: round"/>
   </g>
   <g id="line2d_59">
    <path clip-path="url(#p1ce2db4095)" style="fill: none; stroke: #424242; stroke-width: 2.25; stroke-linecap: round"/>
   </g>
   <g id="line2d_60">
    <path clip-path="url(#p1ce2db4095)" style="fill: none; stroke: #424242; stroke-width: 2.25; stroke-linecap: round"/>
   </g>
   <g id="line2d_61">
    <path clip-path="url(#p1ce2db4095)" style="fill: none; stroke: #424242; stroke-width: 2.25; stroke-linecap: round"/>
   </g>
   <g id="line2d_62">
    <path clip-path="url(#p1ce2db4095)" style="fill: none; stroke: #424242; stroke-width: 2.25; stroke-linecap: round"/>
   </g>
   <g id="line2d_63">
    <path clip-path="url(#p1ce2db4095)" style="fill: none; stroke: #424242; stroke-width: 2.25; stroke-linecap: round"/>
   </g>
   <g id="line2d_64">
    <path clip-path="url(#p1ce2db4095)" style="fill: none; stroke: #424242; stroke-width: 2.25; stroke-linecap: round"/>
   </g>
   <g id="line2d_65">
    <path clip-path="url(#p1ce2db4095)" style="fill: none; stroke: #424242; stroke-width: 2.25; stroke-linecap: round"/>
   </g>
   <g id="line2d_66">
    <path clip-path="url(#p1ce2db4095)" style="fill: none; stroke: #424242; stroke-width: 2.25; stroke-linecap: round"/>
   </g>
   <g id="line2d_67">
    <path clip-path="url(#p1ce2db4095)" style="fill: none; stroke: #424242; stroke-width: 2.25; stroke-linecap: round"/>
   </g>
   <g id="line2d_68">
    <path clip-path="url(#p1ce2db4095)" style="fill: none; stroke: #424242; stroke-width: 2.25; stroke-linecap: round"/>
   </g>
   <g id="line2d_69">
    <path clip-path="url(#p1ce2db4095)" style="fill: none; stroke: #424242; stroke-width: 2.25; stroke-linecap: round"/>
   </g>
   <g id="line2d_70">
    <path clip-path="url(#p1ce2db4095)" style="fill: none; stroke: #424242; stroke-width: 2.25; stroke-linecap: round"/>
   </g>
   <g id="line2d_71">
    <path clip-path="url(#p1ce2db4095)" style="fill: none; stroke: #424242; stroke-width: 2.25; stroke-linecap: round"/>
   </g>
   <g id="line2d_72">
    <path clip-path="url(#p1ce2db4095)" style="fill: none; stroke: #424242; stroke-width: 2.25; stroke-linecap: round"/>
   </g>
   <g id="patch_81">
    <path d="M 49.55625 456.60375 
L 49.55625 29.04 
" style="fill: none; stroke: #cccccc; stroke-width: 1.25; stroke-linejoin: miter; stroke-linecap: square"/>
   </g>
   <g id="patch_82">
    <path d="M 691.82 456.60375 
L 691.82 29.04 
" style="fill: none; stroke: #cccccc; stroke-width: 1.25; stroke-linejoin: miter; stroke-linecap: square"/>
   </g>
   <g id="patch_83">
    <path d="M 49.55625 456.60375 
L 691.82 456.60375 
" style="fill: none; stroke: #cccccc; stroke-width: 1.25; stroke-linejoin: miter; stroke-linecap: square"/>
   </g>
   <g id="patch_84">
    <path d="M 49.55625 29.04 
L 691.82 29.04 
" style="fill: none; stroke: #cccccc; stroke-width: 1.25; stroke-linejoin: miter; stroke-linecap: square"/>
   </g>
   <g id="text_15">
    <!-- Reliability: Number of Solved Instances (out of 10) -->
    <g style="fill: #262626" transform="translate(215.067187 23.04) scale(0.14 -0.14)">
     <defs>
      <path id="ArialMT-52" d="M 503 0 
L 503 4581 
L 2534 4581 
Q 3147 4581 3465 4457 
Q 3784 4334 3975 4021 
Q 4166 3709 4166 3331 
Q 4166 2844 3850 2509 
Q 3534 2175 2875 2084 
Q 3116 1969 3241 1856 
Q 3506 1613 3744 1247 
L 4541 0 
L 3778 0 
L 3172 953 
Q 2906 1366 2734 1584 
Q 2563 1803 2427 1890 
Q 2291 1978 2150 2013 
Q 2047 2034 1813 2034 
L 1109 2034 
L 1109 0 
L 503 0 
z
M 1109 2559 
L 2413 2559 
Q 2828 2559 3062 2645 
Q 3297 2731 3419 2920 
Q 3541 3109 3541 3331 
Q 3541 3656 3305 3865 
Q 3069 4075 2559 4075 
L 1109 4075 
L 1109 2559 
z
" transform="scale(0.015625)"/>
      <path id="ArialMT-62" d="M 941 0 
L 419 0 
L 419 4581 
L 981 4581 
L 981 2947 
Q 1338 3394 1891 3394 
Q 2197 3394 2470 3270 
Q 2744 3147 2920 2923 
Q 3097 2700 3197 2384 
Q 3297 2069 3297 1709 
Q 3297 856 2875 390 
Q 2453 -75 1863 -75 
Q 1275 -75 941 416 
L 941 0 
z
M 934 1684 
Q 934 1088 1097 822 
Q 1363 388 1816 388 
Q 2184 388 2453 708 
Q 2722 1028 2722 1663 
Q 2722 2313 2464 2622 
Q 2206 2931 1841 2931 
Q 1472 2931 1203 2611 
Q 934 2291 934 1684 
z
" transform="scale(0.015625)"/>
      <path id="ArialMT-79" d="M 397 -1278 
L 334 -750 
Q 519 -800 656 -800 
Q 844 -800 956 -737 
Q 1069 -675 1141 -563 
Q 1194 -478 1313 -144 
Q 1328 -97 1363 -6 
L 103 3319 
L 709 3319 
L 1400 1397 
Q 1534 1031 1641 628 
Q 1738 1016 1872 1384 
L 2581 3319 
L 3144 3319 
L 1881 -56 
Q 1678 -603 1566 -809 
Q 1416 -1088 1222 -1217 
Q 1028 -1347 759 -1347 
Q 597 -1347 397 -1278 
z
" transform="scale(0.015625)"/>
      <path id="ArialMT-3a" d="M 578 2678 
L 578 3319 
L 1219 3319 
L 1219 2678 
L 578 2678 
z
M 578 0 
L 578 641 
L 1219 641 
L 1219 0 
L 578 0 
z
" transform="scale(0.015625)"/>
      <path id="ArialMT-75" d="M 2597 0 
L 2597 488 
Q 2209 -75 1544 -75 
Q 1250 -75 995 37 
Q 741 150 617 320 
Q 494 491 444 738 
Q 409 903 409 1263 
L 409 3319 
L 972 3319 
L 972 1478 
Q 972 1038 1006 884 
Q 1059 663 1231 536 
Q 1403 409 1656 409 
Q 1909 409 2131 539 
Q 2353 669 2445 892 
Q 2538 1116 2538 1541 
L 2538 3319 
L 3100 3319 
L 3100 0 
L 2597 0 
z
" transform="scale(0.015625)"/>
      <path id="ArialMT-66" d="M 556 0 
L 556 2881 
L 59 2881 
L 59 3319 
L 556 3319 
L 556 3672 
Q 556 4006 616 4169 
Q 697 4388 901 4523 
Q 1106 4659 1475 4659 
Q 1713 4659 2000 4603 
L 1916 4113 
Q 1741 4144 1584 4144 
Q 1328 4144 1222 4034 
Q 1116 3925 1116 3625 
L 1116 3319 
L 1763 3319 
L 1763 2881 
L 1116 2881 
L 1116 0 
L 556 0 
z
" transform="scale(0.015625)"/>
      <path id="ArialMT-76" d="M 1344 0 
L 81 3319 
L 675 3319 
L 1388 1331 
Q 1503 1009 1600 663 
Q 1675 925 1809 1294 
L 2547 3319 
L 3125 3319 
L 1869 0 
L 1344 0 
z
" transform="scale(0.015625)"/>
     </defs>
     <use xlink:href="#ArialMT-52"/>
     <use xlink:href="#ArialMT-65" transform="translate(72.216797 0)"/>
     <use xlink:href="#ArialMT-6c" transform="translate(127.832031 0)"/>
     <use xlink:href="#ArialMT-69" transform="translate(150.048828 0)"/>
     <use xlink:href="#ArialMT-61" transform="translate(172.265625 0)"/>
     <use xlink:href="#ArialMT-62" transform="translate(227.880859 0)"/>
     <use xlink:href="#ArialMT-69" transform="translate(283.496094 0)"/>
     <use xlink:href="#ArialMT-6c" transform="translate(305.712891 0)"/>
     <use xlink:href="#ArialMT-69" transform="translate(327.929688 0)"/>
     <use xlink:href="#ArialMT-74" transform="translate(350.146484 0)"/>
     <use xlink:href="#ArialMT-79" transform="translate(377.929688 0)"/>
     <use xlink:href="#ArialMT-3a" transform="translate(427.929688 0)"/>
     <use xlink:href="#ArialMT-20" transform="translate(455.712891 0)"/>
     <use xlink:href="#ArialMT-4e" transform="translate(483.496094 0)"/>
     <use xlink:href="#ArialMT-75" transform="translate(555.712891 0)"/>
     <use xlink:href="#ArialMT-6d" transform="translate(611.328125 0)"/>
     <use xlink:href="#ArialMT-62" transform="translate(694.628906 0)"/>
     <use xlink:href="#ArialMT-65" transform="translate(750.244141 0)"/>
     <use xlink:href="#ArialMT-72" transform="translate(805.859375 0)"/>
     <use xlink:href="#ArialMT-20" transform="translate(839.160156 0)"/>
     <use xlink:href="#ArialMT-6f" transform="translate(866.943359 0)"/>
     <use xlink:href="#ArialMT-66" transform="translate(922.558594 0)"/>
     <use xlink:href="#ArialMT-20" transform="translate(950.341797 0)"/>
     <use xlink:href="#ArialMT-53" transform="translate(978.125 0)"/>
     <use xlink:href="#ArialMT-6f" transform="translate(1044.824219 0)"/>
     <use xlink:href="#ArialMT-6c" transform="translate(1100.439453 0)"/>
     <use xlink:href="#ArialMT-76" transform="translate(1122.65625 0)"/>
     <use xlink:href="#ArialMT-65" transform="translate(1172.65625 0)"/>
     <use xlink:href="#ArialMT-64" transform="translate(1228.271484 0)"/>
     <use xlink:href="#ArialMT-20" transform="translate(1283.886719 0)"/>
     <use xlink:href="#ArialMT-49" transform="translate(1311.669922 0)"/>
     <use xlink:href="#ArialMT-6e" transform="translate(1339.453125 0)"/>
     <use xlink:href="#ArialMT-73" transform="translate(1395.068359 0)"/>
     <use xlink:href="#ArialMT-74" transform="translate(1445.068359 0)"/>
     <use xlink:href="#ArialMT-61" transform="translate(1472.851562 0)"/>
     <use xlink:href="#ArialMT-6e" transform="translate(1528.466797 0)"/>
     <use xlink:href="#ArialMT-63" transform="translate(1584.082031 0)"/>
     <use xlink:href="#ArialMT-65" transform="translate(1634.082031 0)"/>
     <use xlink:href="#ArialMT-73" transform="translate(1689.697266 0)"/>
     <use xlink:href="#ArialMT-20" transform="translate(1739.697266 0)"/>
     <use xlink:href="#ArialMT-28" transform="translate(1767.480469 0)"/>
     <use xlink:href="#ArialMT-6f" transform="translate(1800.78125 0)"/>
     <use xlink:href="#ArialMT-75" transform="translate(1856.396484 0)"/>
     <use xlink:href="#ArialMT-74" transform="translate(1912.011719 0)"/>
     <use xlink:href="#ArialMT-20" transform="translate(1939.794922 0)"/>
     <use xlink:href="#ArialMT-6f" transform="translate(1967.578125 0)"/>
     <use xlink:href="#ArialMT-66" transform="translate(2023.193359 0)"/>
     <use xlink:href="#ArialMT-20" transform="translate(2050.976562 0)"/>
     <use xlink:href="#ArialMT-31" transform="translate(2078.759766 0)"/>
     <use xlink:href="#ArialMT-30" transform="translate(2134.375 0)"/>
     <use xlink:href="#ArialMT-29" transform="translate(2189.990234 0)"/>
    </g>
   </g>
   <g id="legend_1">
    <g id="patch_85">
     <path d="M 731.633187 241.969062 
L 847.533656 241.969062 
Q 849.733656 241.969062 849.733656 239.769062 
L 849.733656 36.74 
Q 849.733656 34.54 847.533656 34.54 
L 731.633187 34.54 
Q 729.433187 34.54 729.433187 36.74 
L 729.433187 239.769062 
Q 729.433187 241.969062 731.633187 241.969062 
z
" style="fill: #ffffff; opacity: 0.8; stroke: #cccccc; stroke-linejoin: miter"/>
    </g>
    <g id="text_16">
     <!-- Strategy -->
     <g style="fill: #262626" transform="translate(767.239984 47.675625) scale(0.12 -0.12)">
      <defs>
       <path id="ArialMT-67" d="M 319 -275 
L 866 -356 
Q 900 -609 1056 -725 
Q 1266 -881 1628 -881 
Q 2019 -881 2231 -725 
Q 2444 -569 2519 -288 
Q 2563 -116 2559 434 
Q 2191 0 1641 0 
Q 956 0 581 494 
Q 206 988 206 1678 
Q 206 2153 378 2554 
Q 550 2956 876 3175 
Q 1203 3394 1644 3394 
Q 2231 3394 2613 2919 
L 2613 3319 
L 3131 3319 
L 3131 450 
Q 3131 -325 2973 -648 
Q 2816 -972 2473 -1159 
Q 2131 -1347 1631 -1347 
Q 1038 -1347 672 -1080 
Q 306 -813 319 -275 
z
M 784 1719 
Q 784 1066 1043 766 
Q 1303 466 1694 466 
Q 2081 466 2343 764 
Q 2606 1063 2606 1700 
Q 2606 2309 2336 2618 
Q 2066 2928 1684 2928 
Q 1309 2928 1046 2623 
Q 784 2319 784 1719 
z
" transform="scale(0.015625)"/>
      </defs>
      <use xlink:href="#ArialMT-53"/>
      <use xlink:href="#ArialMT-74" transform="translate(66.699219 0)"/>
      <use xlink:href="#ArialMT-72" transform="translate(94.482422 0)"/>
      <use xlink:href="#ArialMT-61" transform="translate(127.783203 0)"/>
      <use xlink:href="#ArialMT-74" transform="translate(183.398438 0)"/>
      <use xlink:href="#ArialMT-65" transform="translate(211.181641 0)"/>
      <use xlink:href="#ArialMT-67" transform="translate(266.796875 0)"/>
      <use xlink:href="#ArialMT-79" transform="translate(322.412109 0)"/>
     </g>
    </g>
    <g id="patch_86">
     <path d="M 733.833187 63.574844 
L 755.833187 63.574844 
L 755.833187 55.874844 
L 733.833187 55.874844 
z
" style="fill: #489eae; stroke: #ffffff; stroke-linejoin: miter"/>
    </g>
    <g id="text_17">
     <!-- antifirstfail -->
     <g style="fill: #262626" transform="translate(764.633187 63.574844) scale(0.11 -0.11)">
      <use xlink:href="#ArialMT-61"/>
      <use xlink:href="#ArialMT-6e" transform="translate(55.615234 0)"/>
      <use xlink:href="#ArialMT-74" transform="translate(111.230469 0)"/>
      <use xlink:href="#ArialMT-69" transform="translate(139.013672 0)"/>
      <use xlink:href="#ArialMT-66" transform="translate(161.230469 0)"/>
      <use xlink:href="#ArialMT-69" transform="translate(189.013672 0)"/>
      <use xlink:href="#ArialMT-72" transform="translate(211.230469 0)"/>
      <use xlink:href="#ArialMT-73" transform="translate(244.53125 0)"/>
      <use xlink:href="#ArialMT-74" transform="translate(294.53125 0)"/>
      <use xlink:href="#ArialMT-66" transform="translate(322.314453 0)"/>
      <use xlink:href="#ArialMT-61" transform="translate(350.097656 0)"/>
      <use xlink:href="#ArialMT-69" transform="translate(405.712891 0)"/>
      <use xlink:href="#ArialMT-6c" transform="translate(427.929688 0)"/>
     </g>
    </g>
    <g id="patch_87">
     <path d="M 733.833187 79.134687 
L 755.833187 79.134687 
L 755.833187 71.434687 
L 733.833187 71.434687 
z
" style="fill: #58a141; stroke: #ffffff; stroke-linejoin: miter"/>
    </g>
    <g id="text_18">
     <!-- default -->
     <g style="fill: #262626" transform="translate(764.633187 79.134687) scale(0.11 -0.11)">
      <use xlink:href="#ArialMT-64"/>
      <use xlink:href="#ArialMT-65" transform="translate(55.615234 0)"/>
      <use xlink:href="#ArialMT-66" transform="translate(111.230469 0)"/>
      <use xlink:href="#ArialMT-61" transform="translate(139.013672 0)"/>
      <use xlink:href="#ArialMT-75" transform="translate(194.628906 0)"/>
      <use xlink:href="#ArialMT-6c" transform="translate(250.244141 0)"/>
      <use xlink:href="#ArialMT-74" transform="translate(272.460938 0)"/>
     </g>
    </g>
    <g id="patch_88">
     <path d="M 733.833187 94.694531 
L 755.833187 94.694531 
L 755.833187 86.994531 
L 733.833187 86.994531 
z
" style="fill: #aa8f43; stroke: #ffffff; stroke-linejoin: miter"/>
    </g>
    <g id="text_19">
     <!-- domwdeg -->
     <g style="fill: #262626" transform="translate(764.633187 94.694531) scale(0.11 -0.11)">
      <defs>
       <path id="ArialMT-77" d="M 1034 0 
L 19 3319 
L 600 3319 
L 1128 1403 
L 1325 691 
Q 1338 744 1497 1375 
L 2025 3319 
L 2603 3319 
L 3100 1394 
L 3266 759 
L 3456 1400 
L 4025 3319 
L 4572 3319 
L 3534 0 
L 2950 0 
L 2422 1988 
L 2294 2553 
L 1622 0 
L 1034 0 
z
" transform="scale(0.015625)"/>
      </defs>
      <use xlink:href="#ArialMT-64"/>
      <use xlink:href="#ArialMT-6f" transform="translate(55.615234 0)"/>
      <use xlink:href="#ArialMT-6d" transform="translate(111.230469 0)"/>
      <use xlink:href="#ArialMT-77" transform="translate(194.53125 0)"/>
      <use xlink:href="#ArialMT-64" transform="translate(266.748047 0)"/>
      <use xlink:href="#ArialMT-65" transform="translate(322.363281 0)"/>
      <use xlink:href="#ArialMT-67" transform="translate(377.978516 0)"/>
     </g>
    </g>
    <g id="patch_89">
     <path d="M 733.833187 110.383281 
L 755.833187 110.383281 
L 755.833187 102.683281 
L 733.833187 102.683281 
z
" style="fill: #459e97; stroke: #ffffff; stroke-linejoin: miter"/>
    </g>
    <g id="text_20">
     <!-- domwdeg_split -->
     <g style="fill: #262626" transform="translate(764.633187 110.383281) scale(0.11 -0.11)">
      <defs>
       <path id="ArialMT-5f" d="M -97 -1272 
L -97 -866 
L 3631 -866 
L 3631 -1272 
L -97 -1272 
z
" transform="scale(0.015625)"/>
      </defs>
      <use xlink:href="#ArialMT-64"/>
      <use xlink:href="#ArialMT-6f" transform="translate(55.615234 0)"/>
      <use xlink:href="#ArialMT-6d" transform="translate(111.230469 0)"/>
      <use xlink:href="#ArialMT-77" transform="translate(194.53125 0)"/>
      <use xlink:href="#ArialMT-64" transform="translate(266.748047 0)"/>
      <use xlink:href="#ArialMT-65" transform="translate(322.363281 0)"/>
      <use xlink:href="#ArialMT-67" transform="translate(377.978516 0)"/>
      <use xlink:href="#ArialMT-5f" transform="translate(433.59375 0)"/>
      <use xlink:href="#ArialMT-73" transform="translate(489.208984 0)"/>
      <use xlink:href="#ArialMT-70" transform="translate(539.208984 0)"/>
      <use xlink:href="#ArialMT-6c" transform="translate(594.824219 0)"/>
      <use xlink:href="#ArialMT-69" transform="translate(617.041016 0)"/>
      <use xlink:href="#ArialMT-74" transform="translate(639.257812 0)"/>
     </g>
    </g>
    <g id="patch_90">
     <path d="M 733.833187 126.072031 
L 755.833187 126.072031 
L 755.833187 118.372031 
L 733.833187 118.372031 
z
" style="fill: #d08549; stroke: #ffffff; stroke-linejoin: miter"/>
    </g>
    <g id="text_21">
     <!-- firstfail -->
     <g style="fill: #262626" transform="translate(764.633187 126.072031) scale(0.11 -0.11)">
      <use xlink:href="#ArialMT-66"/>
      <use xlink:href="#ArialMT-69" transform="translate(27.783203 0)"/>
      <use xlink:href="#ArialMT-72" transform="translate(50 0)"/>
      <use xlink:href="#ArialMT-73" transform="translate(83.300781 0)"/>
      <use xlink:href="#ArialMT-74" transform="translate(133.300781 0)"/>
      <use xlink:href="#ArialMT-66" transform="translate(161.083984 0)"/>
      <use xlink:href="#ArialMT-61" transform="translate(188.867188 0)"/>
      <use xlink:href="#ArialMT-69" transform="translate(244.482422 0)"/>
      <use xlink:href="#ArialMT-6c" transform="translate(266.699219 0)"/>
     </g>
    </g>
    <g id="patch_91">
     <path d="M 733.833187 141.765937 
L 755.833187 141.765937 
L 755.833187 134.065937 
L 733.833187 134.065937 
z
" style="fill: #d978e2; stroke: #ffffff; stroke-linejoin: miter"/>
    </g>
    <g id="text_22">
     <!-- firstfail_split -->
     <g style="fill: #262626" transform="translate(764.633187 141.765937) scale(0.11 -0.11)">
      <use xlink:href="#ArialMT-66"/>
      <use xlink:href="#ArialMT-69" transform="translate(27.783203 0)"/>
      <use xlink:href="#ArialMT-72" transform="translate(50 0)"/>
      <use xlink:href="#ArialMT-73" transform="translate(83.300781 0)"/>
      <use xlink:href="#ArialMT-74" transform="translate(133.300781 0)"/>
      <use xlink:href="#ArialMT-66" transform="translate(161.083984 0)"/>
      <use xlink:href="#ArialMT-61" transform="translate(188.867188 0)"/>
      <use xlink:href="#ArialMT-69" transform="translate(244.482422 0)"/>
      <use xlink:href="#ArialMT-6c" transform="translate(266.699219 0)"/>
      <use xlink:href="#ArialMT-5f" transform="translate(288.916016 0)"/>
      <use xlink:href="#ArialMT-73" transform="translate(344.53125 0)"/>
      <use xlink:href="#ArialMT-70" transform="translate(394.53125 0)"/>
      <use xlink:href="#ArialMT-6c" transform="translate(450.146484 0)"/>
      <use xlink:href="#ArialMT-69" transform="translate(472.363281 0)"/>
      <use xlink:href="#ArialMT-74" transform="translate(494.580078 0)"/>
     </g>
    </g>
    <g id="patch_92">
     <path d="M 733.833187 157.325781 
L 755.833187 157.325781 
L 755.833187 149.625781 
L 733.833187 149.625781 
z
" style="fill: #e479bd; stroke: #ffffff; stroke-linejoin: miter"/>
    </g>
    <g id="text_23">
     <!-- geometric -->
     <g style="fill: #262626" transform="translate(764.633187 157.325781) scale(0.11 -0.11)">
      <use xlink:href="#ArialMT-67"/>
      <use xlink:href="#ArialMT-65" transform="translate(55.615234 0)"/>
      <use xlink:href="#ArialMT-6f" transform="translate(111.230469 0)"/>
      <use xlink:href="#ArialMT-6d" transform="translate(166.845703 0)"/>
      <use xlink:href="#ArialMT-65" transform="translate(250.146484 0)"/>
      <use xlink:href="#ArialMT-74" transform="translate(305.761719 0)"/>
      <use xlink:href="#ArialMT-72" transform="translate(333.544922 0)"/>
      <use xlink:href="#ArialMT-69" transform="translate(366.845703 0)"/>
      <use xlink:href="#ArialMT-63" transform="translate(389.0625 0)"/>
     </g>
    </g>
    <g id="patch_93">
     <path d="M 733.833187 173.014531 
L 755.833187 173.014531 
L 755.833187 165.314531 
L 733.833187 165.314531 
z
" style="fill: #ab99e7; stroke: #ffffff; stroke-linejoin: miter"/>
    </g>
    <g id="text_24">
     <!-- linear -->
     <g style="fill: #262626" transform="translate(764.633187 173.014531) scale(0.11 -0.11)">
      <use xlink:href="#ArialMT-6c"/>
      <use xlink:href="#ArialMT-69" transform="translate(22.216797 0)"/>
      <use xlink:href="#ArialMT-6e" transform="translate(44.433594 0)"/>
      <use xlink:href="#ArialMT-65" transform="translate(100.048828 0)"/>
      <use xlink:href="#ArialMT-61" transform="translate(155.664062 0)"/>
      <use xlink:href="#ArialMT-72" transform="translate(211.279297 0)"/>
     </g>
    </g>
    <g id="patch_94">
     <path d="M 733.833187 188.574375 
L 755.833187 188.574375 
L 755.833187 180.874375 
L 733.833187 180.874375 
z
" style="fill: #8c9540; stroke: #ffffff; stroke-linejoin: miter"/>
    </g>
    <g id="text_25">
     <!-- maxregret -->
     <g style="fill: #262626" transform="translate(764.633187 188.574375) scale(0.11 -0.11)">
      <defs>
       <path id="ArialMT-78" d="M 47 0 
L 1259 1725 
L 138 3319 
L 841 3319 
L 1350 2541 
Q 1494 2319 1581 2169 
Q 1719 2375 1834 2534 
L 2394 3319 
L 3066 3319 
L 1919 1756 
L 3153 0 
L 2463 0 
L 1781 1031 
L 1600 1309 
L 728 0 
L 47 0 
z
" transform="scale(0.015625)"/>
      </defs>
      <use xlink:href="#ArialMT-6d"/>
      <use xlink:href="#ArialMT-61" transform="translate(83.300781 0)"/>
      <use xlink:href="#ArialMT-78" transform="translate(138.916016 0)"/>
      <use xlink:href="#ArialMT-72" transform="translate(188.916016 0)"/>
      <use xlink:href="#ArialMT-65" transform="translate(222.216797 0)"/>
      <use xlink:href="#ArialMT-67" transform="translate(277.832031 0)"/>
      <use xlink:href="#ArialMT-72" transform="translate(333.447266 0)"/>
      <use xlink:href="#ArialMT-65" transform="translate(366.748047 0)"/>
      <use xlink:href="#ArialMT-74" transform="translate(422.363281 0)"/>
     </g>
    </g>
    <g id="patch_95">
     <path d="M 733.833187 204.263125 
L 755.833187 204.263125 
L 755.833187 196.563125 
L 733.833187 196.563125 
z
" style="fill: #43a07f; stroke: #ffffff; stroke-linejoin: miter"/>
    </g>
    <g id="text_26">
     <!-- mostconstrained -->
     <g style="fill: #262626" transform="translate(764.633187 204.263125) scale(0.11 -0.11)">
      <use xlink:href="#ArialMT-6d"/>
      <use xlink:href="#ArialMT-6f" transform="translate(83.300781 0)"/>
      <use xlink:href="#ArialMT-73" transform="translate(138.916016 0)"/>
      <use xlink:href="#ArialMT-74" transform="translate(188.916016 0)"/>
      <use xlink:href="#ArialMT-63" transform="translate(216.699219 0)"/>
      <use xlink:href="#ArialMT-6f" transform="translate(266.699219 0)"/>
      <use xlink:href="#ArialMT-6e" transform="translate(322.314453 0)"/>
      <use xlink:href="#ArialMT-73" transform="translate(377.929688 0)"/>
      <use xlink:href="#ArialMT-74" transform="translate(427.929688 0)"/>
      <use xlink:href="#ArialMT-72" transform="translate(455.712891 0)"/>
      <use xlink:href="#ArialMT-61" transform="translate(489.013672 0)"/>
      <use xlink:href="#ArialMT-69" transform="translate(544.628906 0)"/>
      <use xlink:href="#ArialMT-6e" transform="translate(566.845703 0)"/>
      <use xlink:href="#ArialMT-65" transform="translate(622.460938 0)"/>
      <use xlink:href="#ArialMT-64" transform="translate(678.076172 0)"/>
     </g>
    </g>
    <g id="patch_96">
     <path d="M 733.833187 219.822969 
L 755.833187 219.822969 
L 755.833187 212.122969 
L 733.833187 212.122969 
z
" style="fill: #529fd6; stroke: #ffffff; stroke-linejoin: miter"/>
    </g>
    <g id="text_27">
     <!-- norestart -->
     <g style="fill: #262626" transform="translate(764.633187 219.822969) scale(0.11 -0.11)">
      <use xlink:href="#ArialMT-6e"/>
      <use xlink:href="#ArialMT-6f" transform="translate(55.615234 0)"/>
      <use xlink:href="#ArialMT-72" transform="translate(111.230469 0)"/>
      <use xlink:href="#ArialMT-65" transform="translate(144.53125 0)"/>
      <use xlink:href="#ArialMT-73" transform="translate(200.146484 0)"/>
      <use xlink:href="#ArialMT-74" transform="translate(250.146484 0)"/>
      <use xlink:href="#ArialMT-61" transform="translate(277.929688 0)"/>
      <use xlink:href="#ArialMT-72" transform="translate(333.544922 0)"/>
      <use xlink:href="#ArialMT-74" transform="translate(366.845703 0)"/>
     </g>
    </g>
    <g id="patch_97">
     <path d="M 733.833187 235.382812 
L 755.833187 235.382812 
L 755.833187 227.682813 
L 733.833187 227.682813 
z
" style="fill: #e68193; stroke: #ffffff; stroke-linejoin: miter"/>
    </g>
    <g id="text_28">
     <!-- smallest -->
     <g style="fill: #262626" transform="translate(764.633187 235.382812) scale(0.11 -0.11)">
      <use xlink:href="#ArialMT-73"/>
      <use xlink:href="#ArialMT-6d" transform="translate(50 0)"/>
      <use xlink:href="#ArialMT-61" transform="translate(133.300781 0)"/>
      <use xlink:href="#ArialMT-6c" transform="translate(188.916016 0)"/>
      <use xlink:href="#ArialMT-6c" transform="translate(211.132812 0)"/>
      <use xlink:href="#ArialMT-65" transform="translate(233.349609 0)"/>
      <use xlink:href="#ArialMT-73" transform="translate(288.964844 0)"/>
      <use xlink:href="#ArialMT-74" transform="translate(338.964844 0)"/>
     </g>
    </g>
   </g>
  </g>
 </g>
 <defs>
  <clipPath id="p1ce2db4095">
   <rect x="49.55625" y="29.04" width="642.26375" height="427.56375"/>
  </clipPath>
 </defs>
</svg>
