<?xml version="1.0" encoding="utf-8" standalone="no"?>
<!DOCTYPE svg PUBLIC "-//W3C//DTD SVG 1.1//EN"
  "http://www.w3.org/Graphics/SVG/1.1/DTD/svg11.dtd">
<svg xmlns:xlink="http://www.w3.org/1999/xlink" width="1008pt" height="504pt" viewBox="0 0 1008 504" xmlns="http://www.w3.org/2000/svg" version="1.1">
 <metadata>
  <rdf:RDF xmlns:dc="http://purl.org/dc/elements/1.1/" xmlns:cc="http://creativecommons.org/ns#" xmlns:rdf="http://www.w3.org/1999/02/22-rdf-syntax-ns#">
   <cc:Work>
    <dc:type rdf:resource="http://purl.org/dc/dcmitype/StillImage"/>
    <dc:date>2026-01-25T15:09:33.949145</dc:date>
    <dc:format>image/svg+xml</dc:format>
    <dc:creator>
     <cc:Agent>
      <dc:title>Matplotlib v3.10.8, https://matplotlib.org/</dc:title>
     </cc:Agent>
    </dc:creator>
   </cc:Work>
  </rdf:RDF>
 </metadata>
 <defs>
  <style type="text/css">*{stroke-linejoin: round; stroke-linecap: butt}</style>
 </defs>
 <g id="figure_1">
  <g id="patch_1">
   <path d="M 0 504 
L 1008 504 
L 1008 0 
L 0 0 
z
" style="fill: #ffffff"/>
  </g>
  <g id="axes_1">
   <g id="patch_2">
    <path d="M 56.322988 402.535023 
L 995.04 402.535023 
L 995.04 29.04 
L 56.322988 29.04 
z
" style="fill: #ffffff"/>
   </g>
   <g id="matplotlib.axis_1">
    <g id="xtick_1">
     <g id="text_1">
      <!-- smallest -->
      <g style="fill: #262626" transform="translate(65.365045 446.127734) rotate(-45) scale(0.11 -0.11)">
       <defs>
        <path id="ArialMT-73" d="M 197 991 
L 753 1078 
Q 800 744 1014 566 
Q 1228 388 1613 388 
Q 2000 388 2187 545 
Q 2375 703 2375 916 
Q 2375 1106 2209 1216 
Q 2094 1291 1634 1406 
Q 1016 1563 777 1677 
Q 538 1791 414 1992 
Q 291 2194 291 2438 
Q 291 2659 392 2848 
Q 494 3038 669 3163 
Q 800 3259 1026 3326 
Q 1253 3394 1513 3394 
Q 1903 3394 2198 3281 
Q 2494 3169 2634 2976 
Q 2775 2784 2828 2463 
L 2278 2388 
Q 2241 2644 2061 2787 
Q 1881 2931 1553 2931 
Q 1166 2931 1000 2803 
Q 834 2675 834 2503 
Q 834 2394 903 2306 
Q 972 2216 1119 2156 
Q 1203 2125 1616 2013 
Q 2213 1853 2448 1751 
Q 2684 1650 2818 1456 
Q 2953 1263 2953 975 
Q 2953 694 2789 445 
Q 2625 197 2315 61 
Q 2006 -75 1616 -75 
Q 969 -75 630 194 
Q 291 463 197 991 
z
" transform="scale(0.015625)"/>
        <path id="ArialMT-6d" d="M 422 0 
L 422 3319 
L 925 3319 
L 925 2853 
Q 1081 3097 1340 3245 
Q 1600 3394 1931 3394 
Q 2300 3394 2536 3241 
Q 2772 3088 2869 2813 
Q 3263 3394 3894 3394 
Q 4388 3394 4653 3120 
Q 4919 2847 4919 2278 
L 4919 0 
L 4359 0 
L 4359 2091 
Q 4359 2428 4304 2576 
Q 4250 2725 4106 2815 
Q 3963 2906 3769 2906 
Q 3419 2906 3187 2673 
Q 2956 2441 2956 1928 
L 2956 0 
L 2394 0 
L 2394 2156 
Q 2394 2531 2256 2718 
Q 2119 2906 1806 2906 
Q 1569 2906 1367 2781 
Q 1166 2656 1075 2415 
Q 984 2175 984 1722 
L 984 0 
L 422 0 
z
" transform="scale(0.015625)"/>
        <path id="ArialMT-61" d="M 2588 409 
Q 2275 144 1986 34 
Q 1697 -75 1366 -75 
Q 819 -75 525 192 
Q 231 459 231 875 
Q 231 1119 342 1320 
Q 453 1522 633 1644 
Q 813 1766 1038 1828 
Q 1203 1872 1538 1913 
Q 2219 1994 2541 2106 
Q 2544 2222 2544 2253 
Q 2544 2597 2384 2738 
Q 2169 2928 1744 2928 
Q 1347 2928 1158 2789 
Q 969 2650 878 2297 
L 328 2372 
Q 403 2725 575 2942 
Q 747 3159 1072 3276 
Q 1397 3394 1825 3394 
Q 2250 3394 2515 3294 
Q 2781 3194 2906 3042 
Q 3031 2891 3081 2659 
Q 3109 2516 3109 2141 
L 3109 1391 
Q 3109 606 3145 398 
Q 3181 191 3288 0 
L 2700 0 
Q 2613 175 2588 409 
z
M 2541 1666 
Q 2234 1541 1622 1453 
Q 1275 1403 1131 1340 
Q 988 1278 909 1158 
Q 831 1038 831 891 
Q 831 666 1001 516 
Q 1172 366 1500 366 
Q 1825 366 2078 508 
Q 2331 650 2450 897 
Q 2541 1088 2541 1459 
L 2541 1666 
z
" transform="scale(0.015625)"/>
        <path id="ArialMT-6c" d="M 409 0 
L 409 4581 
L 972 4581 
L 972 0 
L 409 0 
z
" transform="scale(0.015625)"/>
        <path id="ArialMT-65" d="M 2694 1069 
L 3275 997 
Q 3138 488 2766 206 
Q 2394 -75 1816 -75 
Q 1088 -75 661 373 
Q 234 822 234 1631 
Q 234 2469 665 2931 
Q 1097 3394 1784 3394 
Q 2450 3394 2872 2941 
Q 3294 2488 3294 1666 
Q 3294 1616 3291 1516 
L 816 1516 
Q 847 969 1125 678 
Q 1403 388 1819 388 
Q 2128 388 2347 550 
Q 2566 713 2694 1069 
z
M 847 1978 
L 2700 1978 
Q 2663 2397 2488 2606 
Q 2219 2931 1791 2931 
Q 1403 2931 1139 2672 
Q 875 2413 847 1978 
z
" transform="scale(0.015625)"/>
        <path id="ArialMT-74" d="M 1650 503 
L 1731 6 
Q 1494 -44 1306 -44 
Q 1000 -44 831 53 
Q 663 150 594 308 
Q 525 466 525 972 
L 525 2881 
L 113 2881 
L 113 3319 
L 525 3319 
L 525 4141 
L 1084 4478 
L 1084 3319 
L 1650 3319 
L 1650 2881 
L 1084 2881 
L 1084 941 
Q 1084 700 1114 631 
Q 1144 563 1211 522 
Q 1278 481 1403 481 
Q 1497 481 1650 503 
z
" transform="scale(0.015625)"/>
       </defs>
       <use xlink:href="#ArialMT-73"/>
       <use xlink:href="#ArialMT-6d" transform="translate(50 0)"/>
       <use xlink:href="#ArialMT-61" transform="translate(133.300781 0)"/>
       <use xlink:href="#ArialMT-6c" transform="translate(188.916016 0)"/>
       <use xlink:href="#ArialMT-6c" transform="translate(211.132812 0)"/>
       <use xlink:href="#ArialMT-65" transform="translate(233.349609 0)"/>
       <use xlink:href="#ArialMT-73" transform="translate(288.964844 0)"/>
       <use xlink:href="#ArialMT-74" transform="translate(338.964844 0)"/>
      </g>
     </g>
    </g>
    <g id="xtick_2">
     <g id="text_2">
      <!-- firstfail -->
      <g style="fill: #262626" transform="translate(149.64507 440.074127) rotate(-45) scale(0.11 -0.11)">
       <defs>
        <path id="ArialMT-66" d="M 556 0 
L 556 2881 
L 59 2881 
L 59 3319 
L 556 3319 
L 556 3672 
Q 556 4006 616 4169 
Q 697 4388 901 4523 
Q 1106 4659 1475 4659 
Q 1713 4659 2000 4603 
L 1916 4113 
Q 1741 4144 1584 4144 
Q 1328 4144 1222 4034 
Q 1116 3925 1116 3625 
L 1116 3319 
L 1763 3319 
L 1763 2881 
L 1116 2881 
L 1116 0 
L 556 0 
z
" transform="scale(0.015625)"/>
        <path id="ArialMT-69" d="M 425 3934 
L 425 4581 
L 988 4581 
L 988 3934 
L 425 3934 
z
M 425 0 
L 425 3319 
L 988 3319 
L 988 0 
L 425 0 
z
" transform="scale(0.015625)"/>
        <path id="ArialMT-72" d="M 416 0 
L 416 3319 
L 922 3319 
L 922 2816 
Q 1116 3169 1280 3281 
Q 1444 3394 1641 3394 
Q 1925 3394 2219 3213 
L 2025 2691 
Q 1819 2813 1613 2813 
Q 1428 2813 1281 2702 
Q 1134 2591 1072 2394 
Q 978 2094 978 1738 
L 978 0 
L 416 0 
z
" transform="scale(0.015625)"/>
       </defs>
       <use xlink:href="#ArialMT-66"/>
       <use xlink:href="#ArialMT-69" transform="translate(27.783203 0)"/>
       <use xlink:href="#ArialMT-72" transform="translate(50 0)"/>
       <use xlink:href="#ArialMT-73" transform="translate(83.300781 0)"/>
       <use xlink:href="#ArialMT-74" transform="translate(133.300781 0)"/>
       <use xlink:href="#ArialMT-66" transform="translate(161.083984 0)"/>
       <use xlink:href="#ArialMT-61" transform="translate(188.867188 0)"/>
       <use xlink:href="#ArialMT-69" transform="translate(244.482422 0)"/>
       <use xlink:href="#ArialMT-6c" transform="translate(266.699219 0)"/>
      </g>
     </g>
    </g>
    <g id="xtick_3">
     <g id="text_3">
      <!-- domwdeg -->
      <g style="fill: #262626" transform="translate(216.528721 451.325743) rotate(-45) scale(0.11 -0.11)">
       <defs>
        <path id="ArialMT-64" d="M 2575 0 
L 2575 419 
Q 2259 -75 1647 -75 
Q 1250 -75 917 144 
Q 584 363 401 755 
Q 219 1147 219 1656 
Q 219 2153 384 2558 
Q 550 2963 881 3178 
Q 1213 3394 1622 3394 
Q 1922 3394 2156 3267 
Q 2391 3141 2538 2938 
L 2538 4581 
L 3097 4581 
L 3097 0 
L 2575 0 
z
M 797 1656 
Q 797 1019 1065 703 
Q 1334 388 1700 388 
Q 2069 388 2326 689 
Q 2584 991 2584 1609 
Q 2584 2291 2321 2609 
Q 2059 2928 1675 2928 
Q 1300 2928 1048 2622 
Q 797 2316 797 1656 
z
" transform="scale(0.015625)"/>
        <path id="ArialMT-6f" d="M 213 1659 
Q 213 2581 725 3025 
Q 1153 3394 1769 3394 
Q 2453 3394 2887 2945 
Q 3322 2497 3322 1706 
Q 3322 1066 3130 698 
Q 2938 331 2570 128 
Q 2203 -75 1769 -75 
Q 1072 -75 642 372 
Q 213 819 213 1659 
z
M 791 1659 
Q 791 1022 1069 705 
Q 1347 388 1769 388 
Q 2188 388 2466 706 
Q 2744 1025 2744 1678 
Q 2744 2294 2464 2611 
Q 2184 2928 1769 2928 
Q 1347 2928 1069 2612 
Q 791 2297 791 1659 
z
" transform="scale(0.015625)"/>
        <path id="ArialMT-77" d="M 1034 0 
L 19 3319 
L 600 3319 
L 1128 1403 
L 1325 691 
Q 1338 744 1497 1375 
L 2025 3319 
L 2603 3319 
L 3100 1394 
L 3266 759 
L 3456 1400 
L 4025 3319 
L 4572 3319 
L 3534 0 
L 2950 0 
L 2422 1988 
L 2294 2553 
L 1622 0 
L 1034 0 
z
" transform="scale(0.015625)"/>
        <path id="ArialMT-67" d="M 319 -275 
L 866 -356 
Q 900 -609 1056 -725 
Q 1266 -881 1628 -881 
Q 2019 -881 2231 -725 
Q 2444 -569 2519 -288 
Q 2563 -116 2559 434 
Q 2191 0 1641 0 
Q 956 0 581 494 
Q 206 988 206 1678 
Q 206 2153 378 2554 
Q 550 2956 876 3175 
Q 1203 3394 1644 3394 
Q 2231 3394 2613 2919 
L 2613 3319 
L 3131 3319 
L 3131 450 
Q 3131 -325 2973 -648 
Q 2816 -972 2473 -1159 
Q 2131 -1347 1631 -1347 
Q 1038 -1347 672 -1080 
Q 306 -813 319 -275 
z
M 784 1719 
Q 784 1066 1043 766 
Q 1303 466 1694 466 
Q 2081 466 2343 764 
Q 2606 1063 2606 1700 
Q 2606 2309 2336 2618 
Q 2066 2928 1684 2928 
Q 1309 2928 1046 2623 
Q 784 2319 784 1719 
z
" transform="scale(0.015625)"/>
       </defs>
       <use xlink:href="#ArialMT-64"/>
       <use xlink:href="#ArialMT-6f" transform="translate(55.615234 0)"/>
       <use xlink:href="#ArialMT-6d" transform="translate(111.230469 0)"/>
       <use xlink:href="#ArialMT-77" transform="translate(194.53125 0)"/>
       <use xlink:href="#ArialMT-64" transform="translate(266.748047 0)"/>
       <use xlink:href="#ArialMT-65" transform="translate(322.363281 0)"/>
       <use xlink:href="#ArialMT-67" transform="translate(377.978516 0)"/>
      </g>
     </g>
    </g>
    <g id="xtick_4">
     <g id="text_4">
      <!-- maxregret -->
      <g style="fill: #262626" transform="translate(293.468094 452.521637) rotate(-45) scale(0.11 -0.11)">
       <defs>
        <path id="ArialMT-78" d="M 47 0 
L 1259 1725 
L 138 3319 
L 841 3319 
L 1350 2541 
Q 1494 2319 1581 2169 
Q 1719 2375 1834 2534 
L 2394 3319 
L 3066 3319 
L 1919 1756 
L 3153 0 
L 2463 0 
L 1781 1031 
L 1600 1309 
L 728 0 
L 47 0 
z
" transform="scale(0.015625)"/>
       </defs>
       <use xlink:href="#ArialMT-6d"/>
       <use xlink:href="#ArialMT-61" transform="translate(83.300781 0)"/>
       <use xlink:href="#ArialMT-78" transform="translate(138.916016 0)"/>
       <use xlink:href="#ArialMT-72" transform="translate(188.916016 0)"/>
       <use xlink:href="#ArialMT-65" transform="translate(222.216797 0)"/>
       <use xlink:href="#ArialMT-67" transform="translate(277.832031 0)"/>
       <use xlink:href="#ArialMT-72" transform="translate(333.447266 0)"/>
       <use xlink:href="#ArialMT-65" transform="translate(366.748047 0)"/>
       <use xlink:href="#ArialMT-74" transform="translate(422.363281 0)"/>
      </g>
     </g>
    </g>
    <g id="xtick_5">
     <g id="text_5">
      <!-- default -->
      <g style="fill: #262626" transform="translate(383.444417 440.954033) rotate(-45) scale(0.11 -0.11)">
       <defs>
        <path id="ArialMT-75" d="M 2597 0 
L 2597 488 
Q 2209 -75 1544 -75 
Q 1250 -75 995 37 
Q 741 150 617 320 
Q 494 491 444 738 
Q 409 903 409 1263 
L 409 3319 
L 972 3319 
L 972 1478 
Q 972 1038 1006 884 
Q 1059 663 1231 536 
Q 1403 409 1656 409 
Q 1909 409 2131 539 
Q 2353 669 2445 892 
Q 2538 1116 2538 1541 
L 2538 3319 
L 3100 3319 
L 3100 0 
L 2597 0 
z
" transform="scale(0.015625)"/>
       </defs>
       <use xlink:href="#ArialMT-64"/>
       <use xlink:href="#ArialMT-65" transform="translate(55.615234 0)"/>
       <use xlink:href="#ArialMT-66" transform="translate(111.230469 0)"/>
       <use xlink:href="#ArialMT-61" transform="translate(139.013672 0)"/>
       <use xlink:href="#ArialMT-75" transform="translate(194.628906 0)"/>
       <use xlink:href="#ArialMT-6c" transform="translate(250.244141 0)"/>
       <use xlink:href="#ArialMT-74" transform="translate(272.460938 0)"/>
      </g>
     </g>
    </g>
    <g id="xtick_6">
     <g id="text_6">
      <!-- mostconstrained -->
      <g style="fill: #262626" transform="translate(427.958524 474.666343) rotate(-45) scale(0.11 -0.11)">
       <defs>
        <path id="ArialMT-63" d="M 2588 1216 
L 3141 1144 
Q 3050 572 2676 248 
Q 2303 -75 1759 -75 
Q 1078 -75 664 370 
Q 250 816 250 1647 
Q 250 2184 428 2587 
Q 606 2991 970 3192 
Q 1334 3394 1763 3394 
Q 2303 3394 2647 3120 
Q 2991 2847 3088 2344 
L 2541 2259 
Q 2463 2594 2264 2762 
Q 2066 2931 1784 2931 
Q 1359 2931 1093 2626 
Q 828 2322 828 1663 
Q 828 994 1084 691 
Q 1341 388 1753 388 
Q 2084 388 2306 591 
Q 2528 794 2588 1216 
z
" transform="scale(0.015625)"/>
        <path id="ArialMT-6e" d="M 422 0 
L 422 3319 
L 928 3319 
L 928 2847 
Q 1294 3394 1984 3394 
Q 2284 3394 2536 3286 
Q 2788 3178 2913 3003 
Q 3038 2828 3088 2588 
Q 3119 2431 3119 2041 
L 3119 0 
L 2556 0 
L 2556 2019 
Q 2556 2363 2490 2533 
Q 2425 2703 2258 2804 
Q 2091 2906 1866 2906 
Q 1506 2906 1245 2678 
Q 984 2450 984 1813 
L 984 0 
L 422 0 
z
" transform="scale(0.015625)"/>
       </defs>
       <use xlink:href="#ArialMT-6d"/>
       <use xlink:href="#ArialMT-6f" transform="translate(83.300781 0)"/>
       <use xlink:href="#ArialMT-73" transform="translate(138.916016 0)"/>
       <use xlink:href="#ArialMT-74" transform="translate(188.916016 0)"/>
       <use xlink:href="#ArialMT-63" transform="translate(216.699219 0)"/>
       <use xlink:href="#ArialMT-6f" transform="translate(266.699219 0)"/>
       <use xlink:href="#ArialMT-6e" transform="translate(322.314453 0)"/>
       <use xlink:href="#ArialMT-73" transform="translate(377.929688 0)"/>
       <use xlink:href="#ArialMT-74" transform="translate(427.929688 0)"/>
       <use xlink:href="#ArialMT-72" transform="translate(455.712891 0)"/>
       <use xlink:href="#ArialMT-61" transform="translate(489.013672 0)"/>
       <use xlink:href="#ArialMT-69" transform="translate(544.628906 0)"/>
       <use xlink:href="#ArialMT-6e" transform="translate(566.845703 0)"/>
       <use xlink:href="#ArialMT-65" transform="translate(622.460938 0)"/>
       <use xlink:href="#ArialMT-64" transform="translate(678.076172 0)"/>
      </g>
     </g>
    </g>
    <g id="xtick_7">
     <g id="text_7">
      <!-- domwdeg_split -->
      <g style="fill: #262626" transform="translate(511.277216 469.482919) rotate(-45) scale(0.11 -0.11)">
       <defs>
        <path id="ArialMT-5f" d="M -97 -1272 
L -97 -866 
L 3631 -866 
L 3631 -1272 
L -97 -1272 
z
" transform="scale(0.015625)"/>
        <path id="ArialMT-70" d="M 422 -1272 
L 422 3319 
L 934 3319 
L 934 2888 
Q 1116 3141 1344 3267 
Q 1572 3394 1897 3394 
Q 2322 3394 2647 3175 
Q 2972 2956 3137 2557 
Q 3303 2159 3303 1684 
Q 3303 1175 3120 767 
Q 2938 359 2589 142 
Q 2241 -75 1856 -75 
Q 1575 -75 1351 44 
Q 1128 163 984 344 
L 984 -1272 
L 422 -1272 
z
M 931 1641 
Q 931 1000 1190 694 
Q 1450 388 1819 388 
Q 2194 388 2461 705 
Q 2728 1022 2728 1688 
Q 2728 2322 2467 2637 
Q 2206 2953 1844 2953 
Q 1484 2953 1207 2617 
Q 931 2281 931 1641 
z
" transform="scale(0.015625)"/>
       </defs>
       <use xlink:href="#ArialMT-64"/>
       <use xlink:href="#ArialMT-6f" transform="translate(55.615234 0)"/>
       <use xlink:href="#ArialMT-6d" transform="translate(111.230469 0)"/>
       <use xlink:href="#ArialMT-77" transform="translate(194.53125 0)"/>
       <use xlink:href="#ArialMT-64" transform="translate(266.748047 0)"/>
       <use xlink:href="#ArialMT-65" transform="translate(322.363281 0)"/>
       <use xlink:href="#ArialMT-67" transform="translate(377.978516 0)"/>
       <use xlink:href="#ArialMT-5f" transform="translate(433.59375 0)"/>
       <use xlink:href="#ArialMT-73" transform="translate(489.208984 0)"/>
       <use xlink:href="#ArialMT-70" transform="translate(539.208984 0)"/>
       <use xlink:href="#ArialMT-6c" transform="translate(594.824219 0)"/>
       <use xlink:href="#ArialMT-69" transform="translate(617.041016 0)"/>
       <use xlink:href="#ArialMT-74" transform="translate(639.257812 0)"/>
      </g>
     </g>
    </g>
    <g id="xtick_8">
     <g id="text_8">
      <!-- antifirstfail -->
      <g style="fill: #262626" transform="translate(606.4637 452.614003) rotate(-45) scale(0.11 -0.11)">
       <use xlink:href="#ArialMT-61"/>
       <use xlink:href="#ArialMT-6e" transform="translate(55.615234 0)"/>
       <use xlink:href="#ArialMT-74" transform="translate(111.230469 0)"/>
       <use xlink:href="#ArialMT-69" transform="translate(139.013672 0)"/>
       <use xlink:href="#ArialMT-66" transform="translate(161.230469 0)"/>
       <use xlink:href="#ArialMT-69" transform="translate(189.013672 0)"/>
       <use xlink:href="#ArialMT-72" transform="translate(211.230469 0)"/>
       <use xlink:href="#ArialMT-73" transform="translate(244.53125 0)"/>
       <use xlink:href="#ArialMT-74" transform="translate(294.53125 0)"/>
       <use xlink:href="#ArialMT-66" transform="translate(322.314453 0)"/>
       <use xlink:href="#ArialMT-61" transform="translate(350.097656 0)"/>
       <use xlink:href="#ArialMT-69" transform="translate(405.712891 0)"/>
       <use xlink:href="#ArialMT-6c" transform="translate(427.929688 0)"/>
      </g>
     </g>
    </g>
    <g id="xtick_9">
     <g id="text_9">
      <!-- norestart -->
      <g style="fill: #262626" transform="translate(689.009435 448.294685) rotate(-45) scale(0.11 -0.11)">
       <use xlink:href="#ArialMT-6e"/>
       <use xlink:href="#ArialMT-6f" transform="translate(55.615234 0)"/>
       <use xlink:href="#ArialMT-72" transform="translate(111.230469 0)"/>
       <use xlink:href="#ArialMT-65" transform="translate(144.53125 0)"/>
       <use xlink:href="#ArialMT-73" transform="translate(200.146484 0)"/>
       <use xlink:href="#ArialMT-74" transform="translate(250.146484 0)"/>
       <use xlink:href="#ArialMT-61" transform="translate(277.929688 0)"/>
       <use xlink:href="#ArialMT-72" transform="translate(333.544922 0)"/>
       <use xlink:href="#ArialMT-74" transform="translate(366.845703 0)"/>
      </g>
     </g>
    </g>
    <g id="xtick_10">
     <g id="text_10">
      <!-- linear -->
      <g style="fill: #262626" transform="translate(778.905545 436.624993) rotate(-45) scale(0.11 -0.11)">
       <use xlink:href="#ArialMT-6c"/>
       <use xlink:href="#ArialMT-69" transform="translate(22.216797 0)"/>
       <use xlink:href="#ArialMT-6e" transform="translate(44.433594 0)"/>
       <use xlink:href="#ArialMT-65" transform="translate(100.048828 0)"/>
       <use xlink:href="#ArialMT-61" transform="translate(155.664062 0)"/>
       <use xlink:href="#ArialMT-72" transform="translate(211.279297 0)"/>
      </g>
     </g>
    </g>
    <g id="xtick_11">
     <g id="text_11">
      <!-- firstfail_split -->
      <g style="fill: #262626" transform="translate(835.525652 458.3261) rotate(-45) scale(0.11 -0.11)">
       <use xlink:href="#ArialMT-66"/>
       <use xlink:href="#ArialMT-69" transform="translate(27.783203 0)"/>
       <use xlink:href="#ArialMT-72" transform="translate(50 0)"/>
       <use xlink:href="#ArialMT-73" transform="translate(83.300781 0)"/>
       <use xlink:href="#ArialMT-74" transform="translate(133.300781 0)"/>
       <use xlink:href="#ArialMT-66" transform="translate(161.083984 0)"/>
       <use xlink:href="#ArialMT-61" transform="translate(188.867188 0)"/>
       <use xlink:href="#ArialMT-69" transform="translate(244.482422 0)"/>
       <use xlink:href="#ArialMT-6c" transform="translate(266.699219 0)"/>
       <use xlink:href="#ArialMT-5f" transform="translate(288.916016 0)"/>
       <use xlink:href="#ArialMT-73" transform="translate(344.53125 0)"/>
       <use xlink:href="#ArialMT-70" transform="translate(394.53125 0)"/>
       <use xlink:href="#ArialMT-6c" transform="translate(450.146484 0)"/>
       <use xlink:href="#ArialMT-69" transform="translate(472.363281 0)"/>
       <use xlink:href="#ArialMT-74" transform="translate(494.580078 0)"/>
      </g>
     </g>
    </g>
    <g id="xtick_12">
     <g id="text_12">
      <!-- geometric -->
      <g style="fill: #262626" transform="translate(920.141111 451.751111) rotate(-45) scale(0.11 -0.11)">
       <use xlink:href="#ArialMT-67"/>
       <use xlink:href="#ArialMT-65" transform="translate(55.615234 0)"/>
       <use xlink:href="#ArialMT-6f" transform="translate(111.230469 0)"/>
       <use xlink:href="#ArialMT-6d" transform="translate(166.845703 0)"/>
       <use xlink:href="#ArialMT-65" transform="translate(250.146484 0)"/>
       <use xlink:href="#ArialMT-74" transform="translate(305.761719 0)"/>
       <use xlink:href="#ArialMT-72" transform="translate(333.544922 0)"/>
       <use xlink:href="#ArialMT-69" transform="translate(366.845703 0)"/>
       <use xlink:href="#ArialMT-63" transform="translate(389.0625 0)"/>
      </g>
     </g>
    </g>
    <g id="text_13">
     <!-- Strategy -->
     <g style="fill: #262626" transform="translate(503.338056 488.94788) scale(0.12 -0.12)">
      <defs>
       <path id="ArialMT-53" d="M 288 1472 
L 859 1522 
Q 900 1178 1048 958 
Q 1197 738 1509 602 
Q 1822 466 2213 466 
Q 2559 466 2825 569 
Q 3091 672 3220 851 
Q 3350 1031 3350 1244 
Q 3350 1459 3225 1620 
Q 3100 1781 2813 1891 
Q 2628 1963 1997 2114 
Q 1366 2266 1113 2400 
Q 784 2572 623 2826 
Q 463 3081 463 3397 
Q 463 3744 659 4045 
Q 856 4347 1234 4503 
Q 1613 4659 2075 4659 
Q 2584 4659 2973 4495 
Q 3363 4331 3572 4012 
Q 3781 3694 3797 3291 
L 3216 3247 
Q 3169 3681 2898 3903 
Q 2628 4125 2100 4125 
Q 1550 4125 1298 3923 
Q 1047 3722 1047 3438 
Q 1047 3191 1225 3031 
Q 1400 2872 2139 2705 
Q 2878 2538 3153 2413 
Q 3553 2228 3743 1945 
Q 3934 1663 3934 1294 
Q 3934 928 3725 604 
Q 3516 281 3123 101 
Q 2731 -78 2241 -78 
Q 1619 -78 1198 103 
Q 778 284 539 648 
Q 300 1013 288 1472 
z
" transform="scale(0.015625)"/>
       <path id="ArialMT-79" d="M 397 -1278 
L 334 -750 
Q 519 -800 656 -800 
Q 844 -800 956 -737 
Q 1069 -675 1141 -563 
Q 1194 -478 1313 -144 
Q 1328 -97 1363 -6 
L 103 3319 
L 709 3319 
L 1400 1397 
Q 1534 1031 1641 628 
Q 1738 1016 1872 1384 
L 2581 3319 
L 3144 3319 
L 1881 -56 
Q 1678 -603 1566 -809 
Q 1416 -1088 1222 -1217 
Q 1028 -1347 759 -1347 
Q 597 -1347 397 -1278 
z
" transform="scale(0.015625)"/>
      </defs>
      <use xlink:href="#ArialMT-53"/>
      <use xlink:href="#ArialMT-74" transform="translate(66.699219 0)"/>
      <use xlink:href="#ArialMT-72" transform="translate(94.482422 0)"/>
      <use xlink:href="#ArialMT-61" transform="translate(127.783203 0)"/>
      <use xlink:href="#ArialMT-74" transform="translate(183.398438 0)"/>
      <use xlink:href="#ArialMT-65" transform="translate(211.181641 0)"/>
      <use xlink:href="#ArialMT-67" transform="translate(266.796875 0)"/>
      <use xlink:href="#ArialMT-79" transform="translate(322.412109 0)"/>
     </g>
    </g>
   </g>
   <g id="matplotlib.axis_2">
    <g id="ytick_1">
     <g id="line2d_1">
      <path d="M 56.322988 360.767342 
L 995.04 360.767342 
" clip-path="url(#p2f7d7dc9a1)" style="fill: none; stroke: #cccccc; stroke-linecap: round"/>
     </g>
     <g id="text_14">
      <!-- $2^{-2}$ -->
      <g style="fill: #262626" transform="translate(28.012988 364.704139) scale(0.11 -0.11)">
       <defs>
        <path id="DejaVuSans-32" d="M 1228 531 
L 3431 531 
L 3431 0 
L 469 0 
L 469 531 
Q 828 903 1448 1529 
Q 2069 2156 2228 2338 
Q 2531 2678 2651 2914 
Q 2772 3150 2772 3378 
Q 2772 3750 2511 3984 
Q 2250 4219 1831 4219 
Q 1534 4219 1204 4116 
Q 875 4013 500 3803 
L 500 4441 
Q 881 4594 1212 4672 
Q 1544 4750 1819 4750 
Q 2544 4750 2975 4387 
Q 3406 4025 3406 3419 
Q 3406 3131 3298 2873 
Q 3191 2616 2906 2266 
Q 2828 2175 2409 1742 
Q 1991 1309 1228 531 
z
" transform="scale(0.015625)"/>
        <path id="DejaVuSans-2212" d="M 678 2272 
L 4684 2272 
L 4684 1741 
L 678 1741 
L 678 2272 
z
" transform="scale(0.015625)"/>
       </defs>
       <use xlink:href="#DejaVuSans-32" transform="translate(0 0.765625)"/>
       <use xlink:href="#DejaVuSans-2212" transform="translate(64.580078 39.046875) scale(0.7)"/>
       <use xlink:href="#DejaVuSans-32" transform="translate(123.232422 39.046875) scale(0.7)"/>
      </g>
     </g>
    </g>
    <g id="ytick_2">
     <g id="line2d_2">
      <path d="M 56.322988 298.468303 
L 995.04 298.468303 
" clip-path="url(#p2f7d7dc9a1)" style="fill: none; stroke: #cccccc; stroke-linecap: round"/>
     </g>
     <g id="text_15">
      <!-- $2^{0}$ -->
      <g style="fill: #262626" transform="translate(34.502988 302.405099) scale(0.11 -0.11)">
       <defs>
        <path id="DejaVuSans-30" d="M 2034 4250 
Q 1547 4250 1301 3770 
Q 1056 3291 1056 2328 
Q 1056 1369 1301 889 
Q 1547 409 2034 409 
Q 2525 409 2770 889 
Q 3016 1369 3016 2328 
Q 3016 3291 2770 3770 
Q 2525 4250 2034 4250 
z
M 2034 4750 
Q 2819 4750 3233 4129 
Q 3647 3509 3647 2328 
Q 3647 1150 3233 529 
Q 2819 -91 2034 -91 
Q 1250 -91 836 529 
Q 422 1150 422 2328 
Q 422 3509 836 4129 
Q 1250 4750 2034 4750 
z
" transform="scale(0.015625)"/>
       </defs>
       <use xlink:href="#DejaVuSans-32" transform="translate(0 0.765625)"/>
       <use xlink:href="#DejaVuSans-30" transform="translate(64.580078 39.046875) scale(0.7)"/>
      </g>
     </g>
    </g>
    <g id="ytick_3">
     <g id="line2d_3">
      <path d="M 56.322988 236.169263 
L 995.04 236.169263 
" clip-path="url(#p2f7d7dc9a1)" style="fill: none; stroke: #cccccc; stroke-linecap: round"/>
     </g>
     <g id="text_16">
      <!-- $2^{2}$ -->
      <g style="fill: #262626" transform="translate(34.502988 240.10606) scale(0.11 -0.11)">
       <use xlink:href="#DejaVuSans-32" transform="translate(0 0.765625)"/>
       <use xlink:href="#DejaVuSans-32" transform="translate(64.580078 39.046875) scale(0.7)"/>
      </g>
     </g>
    </g>
    <g id="ytick_4">
     <g id="line2d_4">
      <path d="M 56.322988 173.870224 
L 995.04 173.870224 
" clip-path="url(#p2f7d7dc9a1)" style="fill: none; stroke: #cccccc; stroke-linecap: round"/>
     </g>
     <g id="text_17">
      <!-- $2^{4}$ -->
      <g style="fill: #262626" transform="translate(34.502988 177.807021) scale(0.11 -0.11)">
       <defs>
        <path id="DejaVuSans-34" d="M 2419 4116 
L 825 1625 
L 2419 1625 
L 2419 4116 
z
M 2253 4666 
L 3047 4666 
L 3047 1625 
L 3713 1625 
L 3713 1100 
L 3047 1100 
L 3047 0 
L 2419 0 
L 2419 1100 
L 313 1100 
L 313 1709 
L 2253 4666 
z
" transform="scale(0.015625)"/>
       </defs>
       <use xlink:href="#DejaVuSans-32" transform="translate(0 0.684375)"/>
       <use xlink:href="#DejaVuSans-34" transform="translate(64.580078 38.965625) scale(0.7)"/>
      </g>
     </g>
    </g>
    <g id="ytick_5">
     <g id="line2d_5">
      <path d="M 56.322988 111.571185 
L 995.04 111.571185 
" clip-path="url(#p2f7d7dc9a1)" style="fill: none; stroke: #cccccc; stroke-linecap: round"/>
     </g>
     <g id="text_18">
      <!-- $2^{6}$ -->
      <g style="fill: #262626" transform="translate(34.502988 115.507981) scale(0.11 -0.11)">
       <defs>
        <path id="DejaVuSans-36" d="M 2113 2584 
Q 1688 2584 1439 2293 
Q 1191 2003 1191 1497 
Q 1191 994 1439 701 
Q 1688 409 2113 409 
Q 2538 409 2786 701 
Q 3034 994 3034 1497 
Q 3034 2003 2786 2293 
Q 2538 2584 2113 2584 
z
M 3366 4563 
L 3366 3988 
Q 3128 4100 2886 4159 
Q 2644 4219 2406 4219 
Q 1781 4219 1451 3797 
Q 1122 3375 1075 2522 
Q 1259 2794 1537 2939 
Q 1816 3084 2150 3084 
Q 2853 3084 3261 2657 
Q 3669 2231 3669 1497 
Q 3669 778 3244 343 
Q 2819 -91 2113 -91 
Q 1303 -91 875 529 
Q 447 1150 447 2328 
Q 447 3434 972 4092 
Q 1497 4750 2381 4750 
Q 2619 4750 2861 4703 
Q 3103 4656 3366 4563 
z
" transform="scale(0.015625)"/>
       </defs>
       <use xlink:href="#DejaVuSans-32" transform="translate(0 0.765625)"/>
       <use xlink:href="#DejaVuSans-36" transform="translate(64.580078 39.046875) scale(0.7)"/>
      </g>
     </g>
    </g>
    <g id="ytick_6">
     <g id="line2d_6">
      <path d="M 56.322988 49.272145 
L 995.04 49.272145 
" clip-path="url(#p2f7d7dc9a1)" style="fill: none; stroke: #cccccc; stroke-linecap: round"/>
     </g>
     <g id="text_19">
      <!-- $2^{8}$ -->
      <g style="fill: #262626" transform="translate(34.502988 53.208942) scale(0.11 -0.11)">
       <defs>
        <path id="DejaVuSans-38" d="M 2034 2216 
Q 1584 2216 1326 1975 
Q 1069 1734 1069 1313 
Q 1069 891 1326 650 
Q 1584 409 2034 409 
Q 2484 409 2743 651 
Q 3003 894 3003 1313 
Q 3003 1734 2745 1975 
Q 2488 2216 2034 2216 
z
M 1403 2484 
Q 997 2584 770 2862 
Q 544 3141 544 3541 
Q 544 4100 942 4425 
Q 1341 4750 2034 4750 
Q 2731 4750 3128 4425 
Q 3525 4100 3525 3541 
Q 3525 3141 3298 2862 
Q 3072 2584 2669 2484 
Q 3125 2378 3379 2068 
Q 3634 1759 3634 1313 
Q 3634 634 3220 271 
Q 2806 -91 2034 -91 
Q 1263 -91 848 271 
Q 434 634 434 1313 
Q 434 1759 690 2068 
Q 947 2378 1403 2484 
z
M 1172 3481 
Q 1172 3119 1398 2916 
Q 1625 2713 2034 2713 
Q 2441 2713 2670 2916 
Q 2900 3119 2900 3481 
Q 2900 3844 2670 4047 
Q 2441 4250 2034 4250 
Q 1625 4250 1398 4047 
Q 1172 3844 1172 3481 
z
" transform="scale(0.015625)"/>
       </defs>
       <use xlink:href="#DejaVuSans-32" transform="translate(0 0.765625)"/>
       <use xlink:href="#DejaVuSans-38" transform="translate(64.580078 39.046875) scale(0.7)"/>
      </g>
     </g>
    </g>
    <g id="text_20">
     <!-- Time (seconds) -->
     <g style="fill: #262626" transform="translate(21.487363 256.903449) rotate(-90) scale(0.12 -0.12)">
      <defs>
       <path id="ArialMT-54" d="M 1659 0 
L 1659 4041 
L 150 4041 
L 150 4581 
L 3781 4581 
L 3781 4041 
L 2266 4041 
L 2266 0 
L 1659 0 
z
" transform="scale(0.015625)"/>
       <path id="ArialMT-20" transform="scale(0.015625)"/>
       <path id="ArialMT-28" d="M 1497 -1347 
Q 1031 -759 709 28 
Q 388 816 388 1659 
Q 388 2403 628 3084 
Q 909 3875 1497 4659 
L 1900 4659 
Q 1522 4009 1400 3731 
Q 1209 3300 1100 2831 
Q 966 2247 966 1656 
Q 966 153 1900 -1347 
L 1497 -1347 
z
" transform="scale(0.015625)"/>
       <path id="ArialMT-29" d="M 791 -1347 
L 388 -1347 
Q 1322 153 1322 1656 
Q 1322 2244 1188 2822 
Q 1081 3291 891 3722 
Q 769 4003 388 4659 
L 791 4659 
Q 1378 3875 1659 3084 
Q 1900 2403 1900 1659 
Q 1900 816 1576 28 
Q 1253 -759 791 -1347 
z
" transform="scale(0.015625)"/>
      </defs>
      <use xlink:href="#ArialMT-54"/>
      <use xlink:href="#ArialMT-69" transform="translate(57.333984 0)"/>
      <use xlink:href="#ArialMT-6d" transform="translate(79.550781 0)"/>
      <use xlink:href="#ArialMT-65" transform="translate(162.851562 0)"/>
      <use xlink:href="#ArialMT-20" transform="translate(218.466797 0)"/>
      <use xlink:href="#ArialMT-28" transform="translate(246.25 0)"/>
      <use xlink:href="#ArialMT-73" transform="translate(279.550781 0)"/>
      <use xlink:href="#ArialMT-65" transform="translate(329.550781 0)"/>
      <use xlink:href="#ArialMT-63" transform="translate(385.166016 0)"/>
      <use xlink:href="#ArialMT-6f" transform="translate(435.166016 0)"/>
      <use xlink:href="#ArialMT-6e" transform="translate(490.78125 0)"/>
      <use xlink:href="#ArialMT-64" transform="translate(546.396484 0)"/>
      <use xlink:href="#ArialMT-73" transform="translate(602.011719 0)"/>
      <use xlink:href="#ArialMT-29" transform="translate(652.011719 0)"/>
     </g>
    </g>
   </g>
   <g id="patch_3">
    <path d="M 64.14563 363.119754 
L 126.726764 363.119754 
L 126.726764 349.673633 
L 64.14563 349.673633 
L 64.14563 363.119754 
z
" clip-path="url(#p2f7d7dc9a1)" style="fill: #e68193; stroke: #404040; stroke-linejoin: miter"/>
   </g>
   <g id="line2d_7">
    <path d="M 95.436197 363.119754 
L 95.436197 375.780429 
" clip-path="url(#p2f7d7dc9a1)" style="fill: none; stroke: #404040"/>
   </g>
   <g id="line2d_8">
    <path d="M 95.436197 349.673633 
L 95.436197 337.453134 
" clip-path="url(#p2f7d7dc9a1)" style="fill: none; stroke: #404040"/>
   </g>
   <g id="line2d_9">
    <path d="M 79.790913 375.780429 
L 111.08148 375.780429 
" clip-path="url(#p2f7d7dc9a1)" style="fill: none; stroke: #404040; stroke-linecap: round"/>
   </g>
   <g id="line2d_10">
    <path d="M 79.790913 337.453134 
L 111.08148 337.453134 
" clip-path="url(#p2f7d7dc9a1)" style="fill: none; stroke: #404040; stroke-linecap: round"/>
   </g>
   <g id="line2d_11"/>
   <g id="patch_4">
    <path d="M 142.372047 358.746272 
L 204.953181 358.746272 
L 204.953181 346.685634 
L 142.372047 346.685634 
L 142.372047 358.746272 
z
" clip-path="url(#p2f7d7dc9a1)" style="fill: #d08549; stroke: #404040; stroke-linejoin: miter"/>
   </g>
   <g id="line2d_12">
    <path d="M 173.662614 358.746272 
L 173.662614 372.629758 
" clip-path="url(#p2f7d7dc9a1)" style="fill: none; stroke: #404040"/>
   </g>
   <g id="line2d_13">
    <path d="M 173.662614 346.685634 
L 173.662614 333.757415 
" clip-path="url(#p2f7d7dc9a1)" style="fill: none; stroke: #404040"/>
   </g>
   <g id="line2d_14">
    <path d="M 158.017331 372.629758 
L 189.307898 372.629758 
" clip-path="url(#p2f7d7dc9a1)" style="fill: none; stroke: #404040; stroke-linecap: round"/>
   </g>
   <g id="line2d_15">
    <path d="M 158.017331 333.757415 
L 189.307898 333.757415 
" clip-path="url(#p2f7d7dc9a1)" style="fill: none; stroke: #404040; stroke-linecap: round"/>
   </g>
   <g id="line2d_16">
    <defs>
     <path id="m96cef69af5" d="M 0 3 
C 0.795609 3 1.55874 2.683901 2.12132 2.12132 
C 2.683901 1.55874 3 0.795609 3 0 
C 3 -0.795609 2.683901 -1.55874 2.12132 -2.12132 
C 1.55874 -2.683901 0.795609 -3 0 -3 
C -0.795609 -3 -1.55874 -2.683901 -2.12132 -2.12132 
C -2.683901 -1.55874 -3 -0.795609 -3 0 
C -3 0.795609 -2.683901 1.55874 -2.12132 2.12132 
C -1.55874 2.683901 -0.795609 3 0 3 
z
" style="stroke: #404040"/>
    </defs>
    <g clip-path="url(#p2f7d7dc9a1)">
     <use xlink:href="#m96cef69af5" x="173.662614" y="331.63997" style="fill-opacity: 0; stroke: #404040"/>
     <use xlink:href="#m96cef69af5" x="173.662614" y="292.383319" style="fill-opacity: 0; stroke: #404040"/>
     <use xlink:href="#m96cef69af5" x="173.662614" y="278.802454" style="fill-opacity: 0; stroke: #404040"/>
    </g>
   </g>
   <g id="patch_5">
    <path d="M 220.598465 346.718496 
L 283.179599 346.718496 
L 283.179599 205.136456 
L 220.598465 205.136456 
L 220.598465 346.718496 
z
" clip-path="url(#p2f7d7dc9a1)" style="fill: #aa8f43; stroke: #404040; stroke-linejoin: miter"/>
   </g>
   <g id="line2d_17">
    <path d="M 251.889032 346.718496 
L 251.889032 360.587943 
" clip-path="url(#p2f7d7dc9a1)" style="fill: none; stroke: #404040"/>
   </g>
   <g id="line2d_18">
    <path d="M 251.889032 205.136456 
L 251.889032 169.368 
" clip-path="url(#p2f7d7dc9a1)" style="fill: none; stroke: #404040"/>
   </g>
   <g id="line2d_19">
    <path d="M 236.243749 360.587943 
L 267.534316 360.587943 
" clip-path="url(#p2f7d7dc9a1)" style="fill: none; stroke: #404040; stroke-linecap: round"/>
   </g>
   <g id="line2d_20">
    <path d="M 236.243749 169.368 
L 267.534316 169.368 
" clip-path="url(#p2f7d7dc9a1)" style="fill: none; stroke: #404040; stroke-linecap: round"/>
   </g>
   <g id="line2d_21">
    <g clip-path="url(#p2f7d7dc9a1)">
     <use xlink:href="#m96cef69af5" x="251.889032" y="164.660882" style="fill-opacity: 0; stroke: #404040"/>
     <use xlink:href="#m96cef69af5" x="251.889032" y="163.560089" style="fill-opacity: 0; stroke: #404040"/>
     <use xlink:href="#m96cef69af5" x="251.889032" y="159.282199" style="fill-opacity: 0; stroke: #404040"/>
     <use xlink:href="#m96cef69af5" x="251.889032" y="97.136697" style="fill-opacity: 0; stroke: #404040"/>
     <use xlink:href="#m96cef69af5" x="251.889032" y="132.817679" style="fill-opacity: 0; stroke: #404040"/>
     <use xlink:href="#m96cef69af5" x="251.889032" y="144.038874" style="fill-opacity: 0; stroke: #404040"/>
     <use xlink:href="#m96cef69af5" x="251.889032" y="122.784591" style="fill-opacity: 0; stroke: #404040"/>
     <use xlink:href="#m96cef69af5" x="251.889032" y="107.455573" style="fill-opacity: 0; stroke: #404040"/>
     <use xlink:href="#m96cef69af5" x="251.889032" y="137.356525" style="fill-opacity: 0; stroke: #404040"/>
     <use xlink:href="#m96cef69af5" x="251.889032" y="145.334323" style="fill-opacity: 0; stroke: #404040"/>
     <use xlink:href="#m96cef69af5" x="251.889032" y="85.31319" style="fill-opacity: 0; stroke: #404040"/>
    </g>
   </g>
   <g id="patch_6">
    <path d="M 298.824883 354.447483 
L 361.406017 354.447483 
L 361.406017 322.54299 
L 298.824883 322.54299 
L 298.824883 354.447483 
z
" clip-path="url(#p2f7d7dc9a1)" style="fill: #8c9540; stroke: #404040; stroke-linejoin: miter"/>
   </g>
   <g id="line2d_22">
    <path d="M 330.11545 354.447483 
L 330.11545 377.312598 
" clip-path="url(#p2f7d7dc9a1)" style="fill: none; stroke: #404040"/>
   </g>
   <g id="line2d_23">
    <path d="M 330.11545 322.54299 
L 330.11545 299.010835 
" clip-path="url(#p2f7d7dc9a1)" style="fill: none; stroke: #404040"/>
   </g>
   <g id="line2d_24">
    <path d="M 314.470166 377.312598 
L 345.760733 377.312598 
" clip-path="url(#p2f7d7dc9a1)" style="fill: none; stroke: #404040; stroke-linecap: round"/>
   </g>
   <g id="line2d_25">
    <path d="M 314.470166 299.010835 
L 345.760733 299.010835 
" clip-path="url(#p2f7d7dc9a1)" style="fill: none; stroke: #404040; stroke-linecap: round"/>
   </g>
   <g id="line2d_26">
    <g clip-path="url(#p2f7d7dc9a1)">
     <use xlink:href="#m96cef69af5" x="330.11545" y="260.55215" style="fill-opacity: 0; stroke: #404040"/>
     <use xlink:href="#m96cef69af5" x="330.11545" y="204.162884" style="fill-opacity: 0; stroke: #404040"/>
     <use xlink:href="#m96cef69af5" x="330.11545" y="102.653972" style="fill-opacity: 0; stroke: #404040"/>
     <use xlink:href="#m96cef69af5" x="330.11545" y="206.065418" style="fill-opacity: 0; stroke: #404040"/>
     <use xlink:href="#m96cef69af5" x="330.11545" y="291.60513" style="fill-opacity: 0; stroke: #404040"/>
     <use xlink:href="#m96cef69af5" x="330.11545" y="272.808906" style="fill-opacity: 0; stroke: #404040"/>
     <use xlink:href="#m96cef69af5" x="330.11545" y="111.273746" style="fill-opacity: 0; stroke: #404040"/>
     <use xlink:href="#m96cef69af5" x="330.11545" y="265.816249" style="fill-opacity: 0; stroke: #404040"/>
    </g>
   </g>
   <g id="patch_7">
    <path d="M 377.0513 355.996582 
L 439.632435 355.996582 
L 439.632435 341.014542 
L 377.0513 341.014542 
L 377.0513 355.996582 
z
" clip-path="url(#p2f7d7dc9a1)" style="fill: #58a141; stroke: #404040; stroke-linejoin: miter"/>
   </g>
   <g id="line2d_27">
    <path d="M 408.341867 355.996582 
L 408.341867 373.815559 
" clip-path="url(#p2f7d7dc9a1)" style="fill: none; stroke: #404040"/>
   </g>
   <g id="line2d_28">
    <path d="M 408.341867 341.014542 
L 408.341867 328.028449 
" clip-path="url(#p2f7d7dc9a1)" style="fill: none; stroke: #404040"/>
   </g>
   <g id="line2d_29">
    <path d="M 392.696584 373.815559 
L 423.987151 373.815559 
" clip-path="url(#p2f7d7dc9a1)" style="fill: none; stroke: #404040; stroke-linecap: round"/>
   </g>
   <g id="line2d_30">
    <path d="M 392.696584 328.028449 
L 423.987151 328.028449 
" clip-path="url(#p2f7d7dc9a1)" style="fill: none; stroke: #404040; stroke-linecap: round"/>
   </g>
   <g id="line2d_31">
    <g clip-path="url(#p2f7d7dc9a1)">
     <use xlink:href="#m96cef69af5" x="408.341867" y="287.234378" style="fill-opacity: 0; stroke: #404040"/>
     <use xlink:href="#m96cef69af5" x="408.341867" y="256.436222" style="fill-opacity: 0; stroke: #404040"/>
     <use xlink:href="#m96cef69af5" x="408.341867" y="293.940677" style="fill-opacity: 0; stroke: #404040"/>
     <use xlink:href="#m96cef69af5" x="408.341867" y="275.909394" style="fill-opacity: 0; stroke: #404040"/>
     <use xlink:href="#m96cef69af5" x="408.341867" y="300.631695" style="fill-opacity: 0; stroke: #404040"/>
     <use xlink:href="#m96cef69af5" x="408.341867" y="250.158492" style="fill-opacity: 0; stroke: #404040"/>
     <use xlink:href="#m96cef69af5" x="408.341867" y="244.624065" style="fill-opacity: 0; stroke: #404040"/>
     <use xlink:href="#m96cef69af5" x="408.341867" y="179.685233" style="fill-opacity: 0; stroke: #404040"/>
     <use xlink:href="#m96cef69af5" x="408.341867" y="248.090232" style="fill-opacity: 0; stroke: #404040"/>
     <use xlink:href="#m96cef69af5" x="408.341867" y="274.044427" style="fill-opacity: 0; stroke: #404040"/>
    </g>
   </g>
   <g id="patch_8">
    <path d="M 455.277718 347.147908 
L 517.858852 347.147908 
L 517.858852 185.008894 
L 455.277718 185.008894 
L 455.277718 347.147908 
z
" clip-path="url(#p2f7d7dc9a1)" style="fill: #43a07f; stroke: #404040; stroke-linejoin: miter"/>
   </g>
   <g id="line2d_32">
    <path d="M 486.568285 347.147908 
L 486.568285 372.629758 
" clip-path="url(#p2f7d7dc9a1)" style="fill: none; stroke: #404040"/>
   </g>
   <g id="line2d_33">
    <path d="M 486.568285 185.008894 
L 486.568285 180.280549 
" clip-path="url(#p2f7d7dc9a1)" style="fill: none; stroke: #404040"/>
   </g>
   <g id="line2d_34">
    <path d="M 470.923002 372.629758 
L 502.213569 372.629758 
" clip-path="url(#p2f7d7dc9a1)" style="fill: none; stroke: #404040; stroke-linecap: round"/>
   </g>
   <g id="line2d_35">
    <path d="M 470.923002 180.280549 
L 502.213569 180.280549 
" clip-path="url(#p2f7d7dc9a1)" style="fill: none; stroke: #404040; stroke-linecap: round"/>
   </g>
   <g id="line2d_36">
    <g clip-path="url(#p2f7d7dc9a1)">
     <use xlink:href="#m96cef69af5" x="486.568285" y="139.508568" style="fill-opacity: 0; stroke: #404040"/>
     <use xlink:href="#m96cef69af5" x="486.568285" y="46.762022" style="fill-opacity: 0; stroke: #404040"/>
     <use xlink:href="#m96cef69af5" x="486.568285" y="69.358413" style="fill-opacity: 0; stroke: #404040"/>
     <use xlink:href="#m96cef69af5" x="486.568285" y="57.156385" style="fill-opacity: 0; stroke: #404040"/>
     <use xlink:href="#m96cef69af5" x="486.568285" y="107.759018" style="fill-opacity: 0; stroke: #404040"/>
     <use xlink:href="#m96cef69af5" x="486.568285" y="49.195848" style="fill-opacity: 0; stroke: #404040"/>
    </g>
   </g>
   <g id="patch_9">
    <path d="M 533.504136 352.387089 
L 596.08527 352.387089 
L 596.08527 252.673949 
L 533.504136 252.673949 
L 533.504136 352.387089 
z
" clip-path="url(#p2f7d7dc9a1)" style="fill: #459e97; stroke: #404040; stroke-linejoin: miter"/>
   </g>
   <g id="line2d_37">
    <path d="M 564.794703 352.387089 
L 564.794703 369.466897 
" clip-path="url(#p2f7d7dc9a1)" style="fill: none; stroke: #404040"/>
   </g>
   <g id="line2d_38">
    <path d="M 564.794703 252.673949 
L 564.794703 226.339527 
" clip-path="url(#p2f7d7dc9a1)" style="fill: none; stroke: #404040"/>
   </g>
   <g id="line2d_39">
    <path d="M 549.149419 369.466897 
L 580.439986 369.466897 
" clip-path="url(#p2f7d7dc9a1)" style="fill: none; stroke: #404040; stroke-linecap: round"/>
   </g>
   <g id="line2d_40">
    <path d="M 549.149419 226.339527 
L 580.439986 226.339527 
" clip-path="url(#p2f7d7dc9a1)" style="fill: none; stroke: #404040; stroke-linecap: round"/>
   </g>
   <g id="line2d_41">
    <g clip-path="url(#p2f7d7dc9a1)">
     <use xlink:href="#m96cef69af5" x="564.794703" y="152.00004" style="fill-opacity: 0; stroke: #404040"/>
     <use xlink:href="#m96cef69af5" x="564.794703" y="193.602446" style="fill-opacity: 0; stroke: #404040"/>
     <use xlink:href="#m96cef69af5" x="564.794703" y="79.944272" style="fill-opacity: 0; stroke: #404040"/>
     <use xlink:href="#m96cef69af5" x="564.794703" y="110.356826" style="fill-opacity: 0; stroke: #404040"/>
     <use xlink:href="#m96cef69af5" x="564.794703" y="134.87034" style="fill-opacity: 0; stroke: #404040"/>
     <use xlink:href="#m96cef69af5" x="564.794703" y="97.869887" style="fill-opacity: 0; stroke: #404040"/>
     <use xlink:href="#m96cef69af5" x="564.794703" y="46.017046" style="fill-opacity: 0; stroke: #404040"/>
     <use xlink:href="#m96cef69af5" x="564.794703" y="59.890004" style="fill-opacity: 0; stroke: #404040"/>
     <use xlink:href="#m96cef69af5" x="564.794703" y="127.539746" style="fill-opacity: 0; stroke: #404040"/>
     <use xlink:href="#m96cef69af5" x="564.794703" y="80.463815" style="fill-opacity: 0; stroke: #404040"/>
     <use xlink:href="#m96cef69af5" x="564.794703" y="77.843861" style="fill-opacity: 0; stroke: #404040"/>
     <use xlink:href="#m96cef69af5" x="564.794703" y="190.765901" style="fill-opacity: 0; stroke: #404040"/>
    </g>
   </g>
   <g id="patch_10">
    <path d="M 611.730553 351.684031 
L 674.311688 351.684031 
L 674.311688 335.979584 
L 611.730553 335.979584 
L 611.730553 351.684031 
z
" clip-path="url(#p2f7d7dc9a1)" style="fill: #489eae; stroke: #404040; stroke-linejoin: miter"/>
   </g>
   <g id="line2d_42">
    <path d="M 643.02112 351.684031 
L 643.02112 366.512079 
" clip-path="url(#p2f7d7dc9a1)" style="fill: none; stroke: #404040"/>
   </g>
   <g id="line2d_43">
    <path d="M 643.02112 335.979584 
L 643.02112 335.979584 
" clip-path="url(#p2f7d7dc9a1)" style="fill: none; stroke: #404040"/>
   </g>
   <g id="line2d_44">
    <path d="M 627.375837 366.512079 
L 658.666404 366.512079 
" clip-path="url(#p2f7d7dc9a1)" style="fill: none; stroke: #404040; stroke-linecap: round"/>
   </g>
   <g id="line2d_45">
    <path d="M 627.375837 335.979584 
L 658.666404 335.979584 
" clip-path="url(#p2f7d7dc9a1)" style="fill: none; stroke: #404040; stroke-linecap: round"/>
   </g>
   <g id="line2d_46">
    <g clip-path="url(#p2f7d7dc9a1)">
     <use xlink:href="#m96cef69af5" x="643.02112" y="130.746977" style="fill-opacity: 0; stroke: #404040"/>
     <use xlink:href="#m96cef69af5" x="643.02112" y="159.35331" style="fill-opacity: 0; stroke: #404040"/>
     <use xlink:href="#m96cef69af5" x="643.02112" y="207.698902" style="fill-opacity: 0; stroke: #404040"/>
     <use xlink:href="#m96cef69af5" x="643.02112" y="61.216923" style="fill-opacity: 0; stroke: #404040"/>
     <use xlink:href="#m96cef69af5" x="643.02112" y="158.171342" style="fill-opacity: 0; stroke: #404040"/>
     <use xlink:href="#m96cef69af5" x="643.02112" y="82.29386" style="fill-opacity: 0; stroke: #404040"/>
     <use xlink:href="#m96cef69af5" x="643.02112" y="174.907275" style="fill-opacity: 0; stroke: #404040"/>
    </g>
   </g>
   <g id="patch_11">
    <path d="M 689.956971 350.096926 
L 752.538105 350.096926 
L 752.538105 168.440659 
L 689.956971 168.440659 
L 689.956971 350.096926 
z
" clip-path="url(#p2f7d7dc9a1)" style="fill: #529fd6; stroke: #404040; stroke-linejoin: miter"/>
   </g>
   <g id="line2d_47">
    <path d="M 721.247538 350.096926 
L 721.247538 373.815559 
" clip-path="url(#p2f7d7dc9a1)" style="fill: none; stroke: #404040"/>
   </g>
   <g id="line2d_48">
    <path d="M 721.247538 168.440659 
L 721.247538 130.787879 
" clip-path="url(#p2f7d7dc9a1)" style="fill: none; stroke: #404040"/>
   </g>
   <g id="line2d_49">
    <path d="M 705.602255 373.815559 
L 736.892822 373.815559 
" clip-path="url(#p2f7d7dc9a1)" style="fill: none; stroke: #404040; stroke-linecap: round"/>
   </g>
   <g id="line2d_50">
    <path d="M 705.602255 130.787879 
L 736.892822 130.787879 
" clip-path="url(#p2f7d7dc9a1)" style="fill: none; stroke: #404040; stroke-linecap: round"/>
   </g>
   <g id="line2d_51">
    <g clip-path="url(#p2f7d7dc9a1)">
     <use xlink:href="#m96cef69af5" x="721.247538" y="69.914074" style="fill-opacity: 0; stroke: #404040"/>
     <use xlink:href="#m96cef69af5" x="721.247538" y="57.36335" style="fill-opacity: 0; stroke: #404040"/>
     <use xlink:href="#m96cef69af5" x="721.247538" y="80.097728" style="fill-opacity: 0; stroke: #404040"/>
     <use xlink:href="#m96cef69af5" x="721.247538" y="57.9717" style="fill-opacity: 0; stroke: #404040"/>
     <use xlink:href="#m96cef69af5" x="721.247538" y="90.281363" style="fill-opacity: 0; stroke: #404040"/>
     <use xlink:href="#m96cef69af5" x="721.247538" y="116.142465" style="fill-opacity: 0; stroke: #404040"/>
    </g>
   </g>
   <g id="patch_12">
    <path d="M 768.183389 349.25429 
L 830.764523 349.25429 
L 830.764523 197.171738 
L 768.183389 197.171738 
L 768.183389 349.25429 
z
" clip-path="url(#p2f7d7dc9a1)" style="fill: #ab99e7; stroke: #404040; stroke-linejoin: miter"/>
   </g>
   <g id="line2d_52">
    <path d="M 799.473956 349.25429 
L 799.473956 370.348087 
" clip-path="url(#p2f7d7dc9a1)" style="fill: none; stroke: #404040"/>
   </g>
   <g id="line2d_53">
    <path d="M 799.473956 197.171738 
L 799.473956 159.757729 
" clip-path="url(#p2f7d7dc9a1)" style="fill: none; stroke: #404040"/>
   </g>
   <g id="line2d_54">
    <path d="M 783.828672 370.348087 
L 815.119239 370.348087 
" clip-path="url(#p2f7d7dc9a1)" style="fill: none; stroke: #404040; stroke-linecap: round"/>
   </g>
   <g id="line2d_55">
    <path d="M 783.828672 159.757729 
L 815.119239 159.757729 
" clip-path="url(#p2f7d7dc9a1)" style="fill: none; stroke: #404040; stroke-linecap: round"/>
   </g>
   <g id="line2d_56">
    <g clip-path="url(#p2f7d7dc9a1)">
     <use xlink:href="#m96cef69af5" x="799.473956" y="59.327927" style="fill-opacity: 0; stroke: #404040"/>
     <use xlink:href="#m96cef69af5" x="799.473956" y="125.642929" style="fill-opacity: 0; stroke: #404040"/>
     <use xlink:href="#m96cef69af5" x="799.473956" y="151.500433" style="fill-opacity: 0; stroke: #404040"/>
     <use xlink:href="#m96cef69af5" x="799.473956" y="102.795264" style="fill-opacity: 0; stroke: #404040"/>
     <use xlink:href="#m96cef69af5" x="799.473956" y="156.358545" style="fill-opacity: 0; stroke: #404040"/>
     <use xlink:href="#m96cef69af5" x="799.473956" y="147.349546" style="fill-opacity: 0; stroke: #404040"/>
     <use xlink:href="#m96cef69af5" x="799.473956" y="65.533674" style="fill-opacity: 0; stroke: #404040"/>
     <use xlink:href="#m96cef69af5" x="799.473956" y="104.872254" style="fill-opacity: 0; stroke: #404040"/>
     <use xlink:href="#m96cef69af5" x="799.473956" y="112.230424" style="fill-opacity: 0; stroke: #404040"/>
     <use xlink:href="#m96cef69af5" x="799.473956" y="141.612407" style="fill-opacity: 0; stroke: #404040"/>
    </g>
   </g>
   <g id="patch_13">
    <path d="M 846.409806 361.309875 
L 908.990941 361.309875 
L 908.990941 349.184779 
L 846.409806 349.184779 
L 846.409806 361.309875 
z
" clip-path="url(#p2f7d7dc9a1)" style="fill: #d978e2; stroke: #404040; stroke-linejoin: miter"/>
   </g>
   <g id="line2d_57">
    <path d="M 877.700373 361.309875 
L 877.700373 385.557976 
" clip-path="url(#p2f7d7dc9a1)" style="fill: none; stroke: #404040"/>
   </g>
   <g id="line2d_58">
    <path d="M 877.700373 349.184779 
L 877.700373 337.13328 
" clip-path="url(#p2f7d7dc9a1)" style="fill: none; stroke: #404040"/>
   </g>
   <g id="line2d_59">
    <path d="M 862.05509 385.557976 
L 893.345657 385.557976 
" clip-path="url(#p2f7d7dc9a1)" style="fill: none; stroke: #404040; stroke-linecap: round"/>
   </g>
   <g id="line2d_60">
    <path d="M 862.05509 337.13328 
L 893.345657 337.13328 
" clip-path="url(#p2f7d7dc9a1)" style="fill: none; stroke: #404040; stroke-linecap: round"/>
   </g>
   <g id="line2d_61">
    <g clip-path="url(#p2f7d7dc9a1)">
     <use xlink:href="#m96cef69af5" x="877.700373" y="332.686223" style="fill-opacity: 0; stroke: #404040"/>
    </g>
   </g>
   <g id="patch_14">
    <path d="M 924.636224 350.811397 
L 987.217358 350.811397 
L 987.217358 224.0516 
L 924.636224 224.0516 
L 924.636224 350.811397 
z
" clip-path="url(#p2f7d7dc9a1)" style="fill: #e479bd; stroke: #404040; stroke-linejoin: miter"/>
   </g>
   <g id="line2d_62">
    <path d="M 955.926791 350.811397 
L 955.926791 364.906935 
" clip-path="url(#p2f7d7dc9a1)" style="fill: none; stroke: #404040"/>
   </g>
   <g id="line2d_63">
    <path d="M 955.926791 224.0516 
L 955.926791 210.092882 
" clip-path="url(#p2f7d7dc9a1)" style="fill: none; stroke: #404040"/>
   </g>
   <g id="line2d_64">
    <path d="M 940.281508 364.906935 
L 971.572075 364.906935 
" clip-path="url(#p2f7d7dc9a1)" style="fill: none; stroke: #404040; stroke-linecap: round"/>
   </g>
   <g id="line2d_65">
    <path d="M 940.281508 210.092882 
L 971.572075 210.092882 
" clip-path="url(#p2f7d7dc9a1)" style="fill: none; stroke: #404040; stroke-linecap: round"/>
   </g>
   <g id="line2d_66">
    <g clip-path="url(#p2f7d7dc9a1)">
     <use xlink:href="#m96cef69af5" x="955.926791" y="76.724791" style="fill-opacity: 0; stroke: #404040"/>
     <use xlink:href="#m96cef69af5" x="955.926791" y="158.970639" style="fill-opacity: 0; stroke: #404040"/>
     <use xlink:href="#m96cef69af5" x="955.926791" y="109.173756" style="fill-opacity: 0; stroke: #404040"/>
     <use xlink:href="#m96cef69af5" x="955.926791" y="111.49962" style="fill-opacity: 0; stroke: #404040"/>
     <use xlink:href="#m96cef69af5" x="955.926791" y="49.379531" style="fill-opacity: 0; stroke: #404040"/>
     <use xlink:href="#m96cef69af5" x="955.926791" y="110.851628" style="fill-opacity: 0; stroke: #404040"/>
     <use xlink:href="#m96cef69af5" x="955.926791" y="96.397239" style="fill-opacity: 0; stroke: #404040"/>
     <use xlink:href="#m96cef69af5" x="955.926791" y="127.125923" style="fill-opacity: 0; stroke: #404040"/>
     <use xlink:href="#m96cef69af5" x="955.926791" y="80.028417" style="fill-opacity: 0; stroke: #404040"/>
     <use xlink:href="#m96cef69af5" x="955.926791" y="58.436604" style="fill-opacity: 0; stroke: #404040"/>
     <use xlink:href="#m96cef69af5" x="955.926791" y="109.199725" style="fill-opacity: 0; stroke: #404040"/>
    </g>
   </g>
   <g id="line2d_67">
    <path d="M 64.14563 354.408457 
L 126.726764 354.408457 
" clip-path="url(#p2f7d7dc9a1)" style="fill: none; stroke: #404040"/>
   </g>
   <g id="line2d_68">
    <path d="M 142.372047 353.788595 
L 204.953181 353.788595 
" clip-path="url(#p2f7d7dc9a1)" style="fill: none; stroke: #404040"/>
   </g>
   <g id="line2d_69">
    <path d="M 220.598465 312.703606 
L 283.179599 312.703606 
" clip-path="url(#p2f7d7dc9a1)" style="fill: none; stroke: #404040"/>
   </g>
   <g id="line2d_70">
    <path d="M 298.824883 343.392835 
L 361.406017 343.392835 
" clip-path="url(#p2f7d7dc9a1)" style="fill: none; stroke: #404040"/>
   </g>
   <g id="line2d_71">
    <path d="M 377.0513 346.163078 
L 439.632435 346.163078 
" clip-path="url(#p2f7d7dc9a1)" style="fill: none; stroke: #404040"/>
   </g>
   <g id="line2d_72">
    <path d="M 455.277718 339.758217 
L 517.858852 339.758217 
" clip-path="url(#p2f7d7dc9a1)" style="fill: none; stroke: #404040"/>
   </g>
   <g id="line2d_73">
    <path d="M 533.504136 344.882671 
L 596.08527 344.882671 
" clip-path="url(#p2f7d7dc9a1)" style="fill: none; stroke: #404040"/>
   </g>
   <g id="line2d_74">
    <path d="M 611.730553 343.149262 
L 674.311688 343.149262 
" clip-path="url(#p2f7d7dc9a1)" style="fill: none; stroke: #404040"/>
   </g>
   <g id="line2d_75">
    <path d="M 689.956971 338.48129 
L 752.538105 338.48129 
" clip-path="url(#p2f7d7dc9a1)" style="fill: none; stroke: #404040"/>
   </g>
   <g id="line2d_76">
    <path d="M 768.183389 321.34959 
L 830.764523 321.34959 
" clip-path="url(#p2f7d7dc9a1)" style="fill: none; stroke: #404040"/>
   </g>
   <g id="line2d_77">
    <path d="M 846.409806 356.158525 
L 908.990941 356.158525 
" clip-path="url(#p2f7d7dc9a1)" style="fill: none; stroke: #404040"/>
   </g>
   <g id="line2d_78">
    <path d="M 924.636224 305.613453 
L 987.217358 305.613453 
" clip-path="url(#p2f7d7dc9a1)" style="fill: none; stroke: #404040"/>
   </g>
   <g id="patch_15">
    <path d="M 56.322988 402.535023 
L 56.322988 29.04 
" style="fill: none; stroke: #cccccc; stroke-width: 1.25; stroke-linejoin: miter; stroke-linecap: square"/>
   </g>
   <g id="patch_16">
    <path d="M 995.04 402.535023 
L 995.04 29.04 
" style="fill: none; stroke: #cccccc; stroke-width: 1.25; stroke-linejoin: miter; stroke-linecap: square"/>
   </g>
   <g id="patch_17">
    <path d="M 56.322988 402.535023 
L 995.04 402.535023 
" style="fill: none; stroke: #cccccc; stroke-width: 1.25; stroke-linejoin: miter; stroke-linecap: square"/>
   </g>
   <g id="patch_18">
    <path d="M 56.322988 29.04 
L 995.04 29.04 
" style="fill: none; stroke: #cccccc; stroke-width: 1.25; stroke-linejoin: miter; stroke-linecap: square"/>
   </g>
   <g id="text_21">
    <!-- Distribution of Solving Times by Strategy -->
    <g style="fill: #262626" transform="translate(400.02165 23.04) scale(0.14 -0.14)">
     <defs>
      <path id="ArialMT-44" d="M 494 0 
L 494 4581 
L 2072 4581 
Q 2606 4581 2888 4516 
Q 3281 4425 3559 4188 
Q 3922 3881 4101 3404 
Q 4281 2928 4281 2316 
Q 4281 1794 4159 1391 
Q 4038 988 3847 723 
Q 3656 459 3429 307 
Q 3203 156 2883 78 
Q 2563 0 2147 0 
L 494 0 
z
M 1100 541 
L 2078 541 
Q 2531 541 2789 625 
Q 3047 709 3200 863 
Q 3416 1078 3536 1442 
Q 3656 1806 3656 2325 
Q 3656 3044 3420 3430 
Q 3184 3816 2847 3947 
Q 2603 4041 2063 4041 
L 1100 4041 
L 1100 541 
z
" transform="scale(0.015625)"/>
      <path id="ArialMT-62" d="M 941 0 
L 419 0 
L 419 4581 
L 981 4581 
L 981 2947 
Q 1338 3394 1891 3394 
Q 2197 3394 2470 3270 
Q 2744 3147 2920 2923 
Q 3097 2700 3197 2384 
Q 3297 2069 3297 1709 
Q 3297 856 2875 390 
Q 2453 -75 1863 -75 
Q 1275 -75 941 416 
L 941 0 
z
M 934 1684 
Q 934 1088 1097 822 
Q 1363 388 1816 388 
Q 2184 388 2453 708 
Q 2722 1028 2722 1663 
Q 2722 2313 2464 2622 
Q 2206 2931 1841 2931 
Q 1472 2931 1203 2611 
Q 934 2291 934 1684 
z
" transform="scale(0.015625)"/>
      <path id="ArialMT-76" d="M 1344 0 
L 81 3319 
L 675 3319 
L 1388 1331 
Q 1503 1009 1600 663 
Q 1675 925 1809 1294 
L 2547 3319 
L 3125 3319 
L 1869 0 
L 1344 0 
z
" transform="scale(0.015625)"/>
     </defs>
     <use xlink:href="#ArialMT-44"/>
     <use xlink:href="#ArialMT-69" transform="translate(72.216797 0)"/>
     <use xlink:href="#ArialMT-73" transform="translate(94.433594 0)"/>
     <use xlink:href="#ArialMT-74" transform="translate(144.433594 0)"/>
     <use xlink:href="#ArialMT-72" transform="translate(172.216797 0)"/>
     <use xlink:href="#ArialMT-69" transform="translate(205.517578 0)"/>
     <use xlink:href="#ArialMT-62" transform="translate(227.734375 0)"/>
     <use xlink:href="#ArialMT-75" transform="translate(283.349609 0)"/>
     <use xlink:href="#ArialMT-74" transform="translate(338.964844 0)"/>
     <use xlink:href="#ArialMT-69" transform="translate(366.748047 0)"/>
     <use xlink:href="#ArialMT-6f" transform="translate(388.964844 0)"/>
     <use xlink:href="#ArialMT-6e" transform="translate(444.580078 0)"/>
     <use xlink:href="#ArialMT-20" transform="translate(500.195312 0)"/>
     <use xlink:href="#ArialMT-6f" transform="translate(527.978516 0)"/>
     <use xlink:href="#ArialMT-66" transform="translate(583.59375 0)"/>
     <use xlink:href="#ArialMT-20" transform="translate(611.376953 0)"/>
     <use xlink:href="#ArialMT-53" transform="translate(639.160156 0)"/>
     <use xlink:href="#ArialMT-6f" transform="translate(705.859375 0)"/>
     <use xlink:href="#ArialMT-6c" transform="translate(761.474609 0)"/>
     <use xlink:href="#ArialMT-76" transform="translate(783.691406 0)"/>
     <use xlink:href="#ArialMT-69" transform="translate(833.691406 0)"/>
     <use xlink:href="#ArialMT-6e" transform="translate(855.908203 0)"/>
     <use xlink:href="#ArialMT-67" transform="translate(911.523438 0)"/>
     <use xlink:href="#ArialMT-20" transform="translate(967.138672 0)"/>
     <use xlink:href="#ArialMT-54" transform="translate(993.171875 0)"/>
     <use xlink:href="#ArialMT-69" transform="translate(1050.505859 0)"/>
     <use xlink:href="#ArialMT-6d" transform="translate(1072.722656 0)"/>
     <use xlink:href="#ArialMT-65" transform="translate(1156.023438 0)"/>
     <use xlink:href="#ArialMT-73" transform="translate(1211.638672 0)"/>
     <use xlink:href="#ArialMT-20" transform="translate(1261.638672 0)"/>
     <use xlink:href="#ArialMT-62" transform="translate(1289.421875 0)"/>
     <use xlink:href="#ArialMT-79" transform="translate(1345.037109 0)"/>
     <use xlink:href="#ArialMT-20" transform="translate(1395.037109 0)"/>
     <use xlink:href="#ArialMT-53" transform="translate(1422.820312 0)"/>
     <use xlink:href="#ArialMT-74" transform="translate(1489.519531 0)"/>
     <use xlink:href="#ArialMT-72" transform="translate(1517.302734 0)"/>
     <use xlink:href="#ArialMT-61" transform="translate(1550.603516 0)"/>
     <use xlink:href="#ArialMT-74" transform="translate(1606.21875 0)"/>
     <use xlink:href="#ArialMT-65" transform="translate(1634.001953 0)"/>
     <use xlink:href="#ArialMT-67" transform="translate(1689.617188 0)"/>
     <use xlink:href="#ArialMT-79" transform="translate(1745.232422 0)"/>
    </g>
   </g>
  </g>
 </g>
 <defs>
  <clipPath id="p2f7d7dc9a1">
   <rect x="56.322988" y="29.04" width="938.717012" height="373.495023"/>
  </clipPath>
 </defs>
</svg>
